<svg width="546" height="341" viewBox="0 0 546 341" fill="none" xmlns="http://www.w3.org/2000/svg">
<ellipse cx="273" cy="316.5" rx="273" ry="24.5" fill="#040B2B" fill-opacity="0.41"/>
<path fill-rule="evenodd" clip-rule="evenodd" d="M194.702 4.13901V8.27973L190.872 8.82308L187.043 9.36813L186.529 17.3515L186.014 25.3365L182.273 25.868L178.532 26.4011L178.071 60.8929L177.611 95.3846H173.39H169.17V99.6429V103.901H164.915H160.66V108.159V112.418H156.404H152.149V116.676V120.934H147.894H143.638V125.192V129.451H139.383H135.128V133.709V137.967H130.872H126.617V142.225V146.484H109.596H92.5745V142.225V137.967H88.3192H84.0638V133.709V129.451H79.8085H75.5532V125.192V120.934H71.3574H67.1617L66.6766 103.475L66.1915 86.0165L62.3617 85.4714L58.5319 84.9281V80.7873V76.6483H54.3957H50.2579L49.7149 72.8159L49.1702 68.9835L45.3404 68.4384L41.5106 67.8951V111.447V155H44.8826H48.2545L49.3217 159.258L50.3906 163.516H54.4604H58.5319V167.655V171.796L62.3617 172.34L66.1915 172.885L66.7362 176.717L67.2791 180.549H71.417H75.5532V184.808V189.066H79.8085H84.0638V193.205V197.346L87.8936 197.889L91.7234 198.434L92.2681 202.266L92.8111 206.099H96.9489H101.085V210.357V214.615H105.34H109.596V219.725V224.835H113.851H118.106V232.5V240.165H75.5532H33V245.275V250.385H75.5532H118.106V263.159V275.934H135.128H152.149V270.824V265.714H147.894H143.638V261.456V257.198H139.383H135.128V253.791V250.385H152.149H169.17V263.219V276.053L186.617 275.568L204.064 275.082V270.824V266.566L200.338 266.036L196.614 265.505L196.083 261.778L195.553 258.049L191.723 258.184L187.894 258.32V254.352V250.385H255.979H324.064V245.275V240.165H255.979H187.894V232.619V225.072L191.723 224.529L195.553 223.984L196.091 219.299L196.631 214.615H200.772H204.915V206.099V197.582H209.17H213.426V193.324V189.066H217.681H221.936V184.808V180.549H226.191H230.447V167.775V155H243.213H255.979V159.258V163.516H260.234H264.489V150.742V137.967H251.723H238.957V133.709V129.451H234.702H230.447V120.934V112.418H234.702H238.957V108.159V103.901H264.489H290.021V99.6429V95.3846H294.277H298.532V86.0165V76.6483H273H247.468V73.2418V69.8352H277.255H307.043V43.4341V17.033H302.787H298.532V12.7747V8.51648H294.277H290.021V4.25824V0H242.362H194.702V4.13901ZM230.115 25.9753L230.634 34.0659H222.03H213.426V25.4558V16.8456L221.511 17.3651L229.596 17.8846L230.115 25.9753ZM436.404 46.8407V51.0989H432.188H427.972L427.507 81.3324L427.043 111.566L423.213 112.111L419.383 112.654V116.795V120.934H415.179H410.974L410.498 99.217L410.021 77.5L401.936 76.9805L393.851 76.461V80.7005V84.9383L389.17 85.4782L384.489 86.0165L384.025 116.25L383.56 146.484H388.706H393.851V150.742V155H398.106H402.362V159.258V163.516H410.872H419.383V167.775V172.033H423.638H427.894V232.5V292.967H440.632H453.371L453.824 245.701L454.277 198.434L458.106 197.889L461.936 197.346V193.205V189.066H470.447H478.957V184.808V180.549H483.213H487.468V176.291V172.033H491.723H495.979V163.516V155H500.234H504.489V129.57V104.138L500.66 103.595L496.83 103.049L496.316 94.1071L495.8 85.1648H491.635H487.468V80.9066V76.6483H483.213H478.957V90.2747V103.901H474.702H470.447V129.451V155H466.191H461.936V159.258V163.516H457.681H453.426V111.566V59.6154H449.17H444.915V51.0989V42.5824H440.66H436.404V46.8407ZM298.532 47.6923V51.0989H294.277H290.021V47.6923V44.2857H294.277H298.532V47.6923ZM341.085 159.258V163.516H336.83H332.574V180.549V197.582H328.319H324.064V193.324V189.066H315.553H307.043V201.841V214.615H311.186H315.327L315.866 219.299L316.404 223.984L320.13 224.513L323.854 225.045L324.386 228.771L324.915 232.5L328.745 233.045L332.574 233.588V254.834V276.077L345.766 275.58L358.957 275.082L359.17 272.953L359.383 270.824L359.596 252.182L359.809 233.539L367.894 233.019L375.979 232.5L376.508 228.771L377.039 225.045L380.763 224.513L384.489 223.984L384.976 206.405L385.463 188.827L380.721 189.373L375.979 189.918L375.449 193.646L374.918 197.373L371.194 197.904L367.468 198.434L367.347 206.099L367.228 213.764L362.588 214.31L357.948 214.857L358.21 189.613L358.474 164.368L354.886 163.823L351.298 163.28V159.139V155H346.191H341.085V159.258ZM169.17 236.758V240.165H152.149H135.128V236.758V233.352H152.149H169.17V236.758ZM367.671 241.539L366.821 242.914L367.305 246.223L367.79 249.533L393.586 250.003L419.383 250.473V245.319V240.165H393.952H368.52L367.671 241.539ZM470.447 245.275V250.385H491.723H513V245.275V240.165H491.723H470.447V245.275ZM255.979 270.824V275.934H273H290.021V270.824V265.714H273H255.979V270.824ZM375.773 268.194L374.763 270.824L375.744 273.379L376.723 275.934H389.655H402.588L402.049 271.25L401.511 266.566L389.146 266.065L376.78 265.564L375.773 268.194ZM49.6043 280.192L50.4179 284.451H71.497H92.5745V280.192V275.934H70.6834H48.7906L49.6043 280.192ZM307.043 288.709V292.967H315.553H324.064V288.709V284.451H315.553H307.043V288.709ZM101.085 305.742V310H118.106H135.128V305.742V301.484H118.106H101.085V305.742ZM213.426 305.742V310H221.936H230.447V305.742V301.484H221.936H213.426V305.742Z" fill="url(#paint0_linear_214_19)"/>
<defs>
<linearGradient id="paint0_linear_214_19" x1="2.49998" y1="3.2209e-05" x2="511.515" y2="314.557" gradientUnits="userSpaceOnUse">
<stop stop-color="#32F6F4"/>
<stop offset="1" stop-color="#11508B"/>
</linearGradient>
</defs>
</svg>
