<svg width="572" height="532" viewBox="0 0 572 532" fill="none" xmlns="http://www.w3.org/2000/svg">
<path fill-rule="evenodd" clip-rule="evenodd" d="M468.445 0.141767C491.975 0.479707 518.601 -2.99249 534.931 14.0909C551.133 31.0402 542.822 57.7825 545.854 81.1225C549.769 111.262 572.305 143.488 554.972 168.359C537.102 194 498.321 200.84 468.445 192.193C442.281 184.62 440.96 147.565 420.518 129.443C396.835 108.449 348.622 112.436 343.154 81.1225C337.809 50.5108 374.084 28.9287 400.038 12.1536C420.294 -0.938984 444.386 -0.203771 468.445 0.141767Z" fill="url(#paint0_linear_174_14)"/>
<path fill-rule="evenodd" clip-rule="evenodd" d="M141.224 380.7C163.006 386.91 159.99 419.443 170.146 439.885C175.212 450.083 184.469 457.726 185.149 469.116C185.87 481.189 181.615 492.889 173.861 502.101C165.381 512.175 153.816 517.703 141.224 521.301C121.632 526.9 100.789 537.85 82.857 528.106C61.6561 516.585 43.7254 493.399 45.1914 469.116C46.6286 445.31 72.1254 432.972 89.5702 416.911C105.674 402.084 120.259 374.722 141.224 380.7Z" fill="url(#paint1_linear_174_14)"/>
<path fill-rule="evenodd" clip-rule="evenodd" d="M144.219 307.474C147.131 305.47 153.086 298.296 156.206 296.639C163.145 292.952 194.054 285.706 195.059 285.277C196.589 284.626 206.533 282.347 212.327 280.908C225.93 277.527 274.682 255.692 287.532 250.094C289.172 254.452 302.715 273.692 300.392 275.664C292.743 282.155 279.033 290.238 270.173 294.89C263.007 298.653 255.417 301.767 247.754 304.309C239.055 307.196 233.084 310.291 224.413 313.243C215.883 316.149 226.078 325.235 230.458 327.113C235.372 329.219 242.983 330.287 248.003 332.113C239.164 345.984 231.74 362.82 230.255 379.437C229.898 383.435 226.879 387.102 221.968 385.904C219.434 385.286 196.052 382.142 192.24 381.264C166.788 375.404 121.097 344.713 132.864 313.243C135.559 314.5 141.713 309.199 144.219 307.474Z" fill="url(#paint2_linear_174_14)"/>
<path fill-rule="evenodd" clip-rule="evenodd" d="M158.458 140.513C160.36 140.352 165.276 136.517 162.696 134.577C160.094 132.62 158.224 139.178 158.458 140.513ZM59.4119 155.222C59.909 155.133 59.6919 152.387 58.9097 152.036C56.4396 150.929 56.2312 155.09 56.1707 156.203C56.0959 157.609 55.9212 161.567 58.9247 160.482C60.6295 159.866 59.5715 156.275 59.4119 155.222ZM205.222 168.051C205.155 170.502 210.06 175.216 211.888 172.389C213.426 170.013 205.348 163.171 205.222 168.051ZM31.813 112.766C33.234 116.427 40.262 111.438 40.5234 108.753C41.0592 103.255 31.7394 109.108 31.813 112.766ZM90.4471 128.547C93.72 128.275 98.0265 124.074 101.183 122.504C103.319 121.442 109.13 120.176 109.762 117.765C110.312 115.67 100.452 120.154 99.6097 120.553C95.7417 122.383 92.2541 124.469 90.4471 128.547ZM336.15 99.5751C338.759 97.5382 341.93 96.2244 345.274 96.3107C346.944 96.3536 350.428 97.4085 350.559 94.4924C350.772 89.7512 336.023 95.5335 333.719 96.4638C334.53 97.5017 335.34 98.5384 336.15 99.5751ZM173.409 284.356C171.495 281.147 168.053 279.292 165.465 276.554C166.413 281.049 164.274 285.048 162.805 289.151C166.34 287.552 169.874 285.954 173.409 284.356ZM505.759 352.763C506.814 349.198 507.87 345.654 509.103 342.145C510.483 338.215 511.169 337.876 507.866 335.128C505.125 340.358 502.384 345.59 499.642 350.822C501.594 351.659 503.631 352.474 505.759 352.763ZM222.063 94.7664C218.434 90.6361 201.425 90.3766 203.53 99.4926C204.264 102.676 208.446 99.2942 211.065 98.5523C213.665 97.8154 221.027 97.7177 222.063 94.7664ZM221.439 153.245C221 152.191 220.121 148.386 218.818 148.086C217.548 147.794 212.536 151.785 211.594 152.394C206.896 155.434 202.315 158.704 197.736 161.927C199.489 161.927 201.081 161.297 202.824 161.284C204.895 161.265 206.38 162.124 208.399 161.634C212.738 160.583 217.773 155.729 221.439 153.245ZM226.141 58.9959C226.548 57.1067 247.814 62.7781 250.369 63.8166C251.762 64.3814 258.946 68.1521 257.402 62.4691C256.524 59.2323 248.222 56.7649 245.561 55.8778C238.798 53.6238 231.667 52.0204 224.465 52.3923C223.067 52.4639 212.476 53.081 216.898 57.3793C218.422 58.8596 223.885 58.393 226.141 58.9959ZM230.796 318.572C234.758 320.54 238.803 322.045 242.945 323.584C244.784 324.268 247.65 326.058 249.68 325.609C251.342 325.239 251.875 322.684 252.748 320.973C255.94 314.714 259.753 309.665 264.48 304.504C262.285 302.888 251.143 310.017 248.386 311.07C245.626 312.124 243.022 313.185 240.32 314.444C237.777 315.629 232.759 316.689 230.796 318.572ZM300.948 265.218C306.722 262.579 312.195 257.901 316.931 253.712C322.368 248.903 327.243 243.862 331.224 237.639C328.828 237.762 323.54 245.541 323.481 237.072C323.45 232.751 329.314 228.495 331.134 224.488C326.607 221.907 322.457 237.329 317.262 233.591C312.258 229.989 320.154 217.605 321.675 213.697C318.74 211.725 302.015 233.798 299.595 236.622C298.081 238.39 294.5 240.744 293.646 242.806C293.137 244.034 293.064 247.929 293.31 249.058C293.822 251.42 296.416 254.247 297.572 256.446C299.034 259.23 300.307 262.123 300.948 265.218ZM539.661 344.797C534.668 337.68 539.826 334.577 543.886 328.67C547.133 323.945 550.121 318.737 552.179 313.461C557.327 300.264 561.972 287.995 564.515 274.035C561.016 275.648 558.828 281.786 557.078 285.02C554.724 289.368 552.654 293.932 550.038 298.145C545.142 306.027 540.336 314.437 534.109 321.27C531.288 324.367 528.899 327.85 525.644 330.64C524.157 331.915 521.312 332.961 520.216 334.555C519.181 336.06 520.338 337.022 519.945 338.819C519.543 340.663 517.695 342.629 516.902 344.405C515.861 346.737 514.891 349.075 513.729 351.356C512.461 353.843 512.115 355.143 511.773 357.574C511.4 360.232 512.545 360.508 510.246 362.956C514.412 364.811 518.578 366.665 522.742 368.519C524.148 369.146 525.554 369.772 526.96 370.398C527.256 369.836 527.552 369.276 527.849 368.715C528.993 367.592 530.046 364.824 530.701 363.341C533.438 357.154 536.529 350.942 539.661 344.797ZM137.43 314.922C125.603 346.362 167.164 372.835 192.748 378.69C196.292 379.5 199.75 380.562 203.278 381.433C207.124 382.382 210.539 382.193 214.378 382.59C217.432 382.906 218.888 385.288 221.766 385.945C226.576 387.042 226.282 383.393 226.626 379.483C228.086 362.903 236.467 346.906 245.336 333.071C241.285 331.608 237.27 330.01 233.271 328.408C229.848 327.036 224.608 323.181 220.928 322.977C218.207 322.827 214.06 325.173 211.417 326.202C207.016 327.917 202.602 329.378 198.014 330.548C189.993 332.593 181.066 335.38 172.766 335.591C170.372 335.652 163.808 336.778 162.086 335.284C158.803 332.437 163.36 330.064 166.109 329.047C182.492 322.99 199.887 320.414 216.317 314.204C224.772 311.007 233.139 307.438 241.647 304.289C248.98 301.575 256.661 299.173 263.749 295.834C273.108 291.426 282.508 285.936 290.613 279.467C292.235 278.172 295.634 276.25 296.746 274.374C297.725 272.723 297.603 274.37 297.399 272.367C297.253 270.93 295.511 268.98 294.794 267.622C292.123 262.556 289.709 257.352 287.68 251.991C274.751 257.591 262.452 265.211 249.714 271.195C236.893 277.218 222.431 281.466 208.714 284.855C202.877 286.297 196.165 286.753 190.812 289.603C188.537 290.814 186.288 292.214 183.851 292.915C183.132 294.308 182.424 294.582 181.726 293.734C181.288 293.238 180.723 293.029 180.03 293.106C178.539 293.361 177.019 294.072 175.626 294.618C168.572 297.379 161.817 300.836 155.12 304.365C151.945 306.036 148.689 307.682 145.652 309.591C144.024 310.614 142.565 311.646 141.232 313.051C139.635 314.736 140.015 316.121 137.43 314.922ZM403.569 128.251C406.558 128.3 409.282 126.665 412.399 126.756C417.3 126.899 421.18 130.736 424.024 134.436C429.653 141.757 428.218 150.589 425.39 158.783C424.037 162.698 422.18 166.457 419.859 169.884C417.805 172.919 414.131 175.789 412.697 179.167C410.332 184.739 415.104 182.37 418.025 181.18C421.698 179.682 425.142 177.821 428.26 175.314C442.155 164.14 452.726 148.608 456.267 130.77C457.994 122.067 457.861 111.893 451.857 104.79C446.368 98.2947 436.892 96.1728 428.792 97.377C420.036 98.6795 412.1 102.424 404.97 107.244C402.899 108.645 401.003 110.174 399.059 111.741C396.508 113.796 394.979 113.849 395.617 117.07C396.092 119.465 397.383 121.946 398.215 124.244C399.773 128.547 399.205 129.661 403.569 128.251ZM413.098 202.444L412.493 203.488C416.662 203.688 420.545 199.975 424.098 198.162C428.712 195.806 432.81 192.592 436.854 189.346C443.985 183.622 451.209 177.171 456.517 169.656C468.417 152.81 479.226 131.452 475.978 110.094C472.479 87.0744 452.538 78.2134 431.29 81.2607C421.715 82.6338 413.166 86.9504 404.597 91.3326C400.277 93.5414 396.632 96.4077 392.675 99.1814C390.621 100.622 388.747 100.809 388.613 103.327C388.512 105.225 391.761 109.516 392.64 111.236C403.399 100.153 414.994 90.985 431.243 90.4181C450.574 89.7442 462.004 108.251 461.92 125.973C461.837 143.353 454.413 160.071 442.578 172.561C437.199 178.238 432.071 182.793 425.467 186.935C422.175 189.001 419.746 190.855 416.065 192.226C413.462 193.197 413.733 192.685 413.069 195.119C412.504 197.184 413.081 200.3 413.098 202.444ZM308.06 438.57C307.808 441.702 307.178 444.786 306.477 447.84C306.225 448.937 304.806 452.401 305.054 453.634C305.465 455.673 304.918 454.362 306.687 455.425C308.533 456.535 310.681 456.469 312.701 456.806C313.948 457.014 318.517 459.185 319.286 458.843C320.629 458.243 320.587 456.129 322.061 455.292C324.069 454.149 327.029 455.128 328.924 456.022C333.989 458.407 337.469 463.345 342.37 466.048C351.074 470.848 361.403 473.505 371.113 474.602C376.374 475.196 381.757 476.238 386.953 474.994C391.046 474.013 396.366 474.103 398.591 469.668C378.817 464.178 348.635 457.458 340.817 434.545C336.566 438.436 329.463 436.341 324.327 435.804C318.676 435.213 313.627 435.35 308.459 432.75C308.081 434.794 307.966 436.491 308.06 438.57ZM132.979 296.66C142.288 297.228 151.113 292.78 156.841 285.276C158.251 283.427 159.697 281.541 160.544 279.351C160.728 278.796 160.91 278.24 161.094 277.686C161.983 276.153 161.593 275.43 159.927 275.516C158.989 274.217 156.608 273.779 157.286 271.423C157.795 269.646 159.677 269.617 161.313 269.058C160.498 267.676 160.011 266.982 158.845 265.754C155.815 268.505 150.317 273.907 148.188 267.585C147.165 264.549 148.965 261.648 148.519 258.721C148.336 257.51 146.816 254.417 145.934 253.693C141.242 249.836 134.483 251.432 129.504 253.703C126.073 255.268 125.334 256.002 124.775 259.59C124.206 263.238 123.679 266.884 123.048 270.521C125.107 269.438 125.482 267.098 126.825 265.412C127.328 266.337 127.831 267.263 128.336 268.187C129.044 267.786 129.706 267.807 130.32 268.252C131.314 269.794 130.689 272.081 130.383 273.698C133.696 273.386 135.097 277.119 131.756 278.63C128.296 280.196 126.736 275.927 126.618 273.162C125.327 274.719 124.001 273.886 123.101 274.686C122.202 275.486 121.848 277.153 121.528 278.979C121.002 281.978 119.657 286.307 120.902 289.316C122.75 293.786 128.643 296.112 132.979 296.66ZM402.715 153.094C399.635 157.419 394.384 163.08 393.285 168.305C396.678 166.296 403.851 156.624 405.698 164.328C406.759 168.751 401.319 174.02 399.982 178.303C405.332 176.525 409.143 170.959 412.481 166.663C416.738 161.185 421.084 153.965 422.17 147C423.049 141.364 419.177 136.11 413.423 135.558C410.484 135.276 407.415 135.747 404.576 136.435C403.281 136.748 401.349 137.138 400.194 137.838C398.743 138.718 398.544 140.777 397.177 139.064C395.361 142.52 393.545 145.976 391.73 149.43C393.537 148.768 397.224 145.958 399.199 146.249C402.084 146.674 402.676 150.904 402.715 153.094ZM114.326 68.49C106.251 68.7303 97.8107 70.4665 90.1664 73.0473C88.2682 73.6888 80.2596 75.9701 81.9463 79.2773C83.061 81.4632 89.071 78.3743 90.8881 77.8592C98.6753 75.6511 106.693 74.1951 114.669 72.8662C116.601 72.5446 123.152 72.5764 123.49 70.0202C123.904 66.9013 116.606 68.4864 114.326 68.49ZM334.089 424.226C329.712 424.766 325.51 424.564 321.129 424.022C317.442 423.567 313.687 422.043 310.019 422.043C310.019 426.008 309.753 426.033 313.896 426.881C316.788 427.474 319.721 427.806 322.643 428.219C327.788 428.946 333.5 430.985 338.709 429.937C338.583 429.249 338.184 424.602 337.644 424.143C337.34 423.884 334.531 424.23 334.089 424.226ZM263.351 130.863C264.575 131.65 267.388 134.79 268.846 134.845C268.326 131.21 264.31 124.882 259.697 127.128C258.567 127.679 256.193 130.421 257.267 131.631C257.84 132.278 261.852 130.867 263.351 130.863ZM220.68 163.198C220.724 162.564 220.77 161.93 220.816 161.297C219.123 162.302 217.028 162.777 215.825 164.396C217.27 165.042 218.712 165.689 220.157 166.336C220.331 165.29 220.506 164.244 220.68 163.198ZM353.965 259.697C361.961 262.525 369.292 266.301 375.178 272.711C380.265 278.254 382.656 288.02 383.898 295.285C386.971 313.264 381.041 329.928 377.131 347.128C375.148 355.852 372.187 364.249 369.414 372.748C366.993 380.17 364.917 387.942 361.576 395C358.743 400.983 355.123 406.883 352.63 413.091C351.289 416.431 349.115 427.895 344.024 424.295C342.635 427.962 342.297 427.65 343.783 430.198C344.857 432.042 348.503 434.603 350.224 436.104C354.809 440.107 360.616 443.406 365.995 446.209C375.847 451.343 386.408 455.184 396.553 459.864C401.039 461.935 405.903 464.381 404.896 470.305C404.053 475.272 401.207 479.038 396.768 481.248C392.6 483.323 386.638 484.925 382.053 485.576C379.333 485.963 378.709 484.819 376.491 484.424C374.022 483.985 371.142 484.835 368.595 484.813C357.164 484.712 347.155 481.808 337.917 475.115C334.616 472.723 329.757 466.234 325.437 466.235C323.229 466.235 323.695 467.589 321.752 468.384C319.355 469.364 315.224 467.514 312.868 467.079C307.847 466.154 302.741 465.214 299.398 460.848C295.783 456.129 297.068 450.284 298.621 445.044C300.372 439.137 303.318 433.144 304.57 427.147C304.875 425.689 305.156 422.97 304.847 421.486C304.365 419.183 302.063 417.81 301.993 415.316C301.972 414.558 303.047 413.558 303.235 412.775C303.65 411.056 303.586 409.272 303.757 407.522C304.062 404.401 304.767 401.411 305.253 398.326C306.359 391.306 308.539 385.045 310.649 378.282C312.696 371.718 314.645 366.833 318.603 361.149C320.652 358.206 327.508 347.719 324.16 344.701C319.578 353.788 314.221 360.875 307.208 368.109C301.846 373.642 296.602 381.081 289.89 385.021C282.51 389.354 273.491 391.903 265.342 394.195C261.466 395.284 258.25 397.7 254.071 398.147C249.542 398.63 244.933 398.06 240.498 397.04C239.249 396.754 235.648 394.816 234.519 394.94C232.855 395.122 230.46 398.118 228.634 398.668C224.188 400.007 221.153 397.449 217.78 395.085C214.121 392.519 213.014 391.882 208.791 391.573C203.618 391.195 198.588 389.355 193.501 388.227C184.556 386.246 176.953 382.23 168.822 378.026C159.503 373.208 151.531 366.565 144.506 358.716C134.179 347.177 119.797 315.203 136.667 304.008C126.736 302.646 117.64 298.267 116.43 286.918C115.797 280.98 116.988 274.401 118.467 268.677C119.142 266.063 119.947 263.466 120.718 260.879C121.298 260.005 121.606 259.05 121.638 258.011C121.994 256.665 121.48 255.994 120.096 256C117.481 252.912 115.514 250.186 114.986 245.802C114.819 244.412 114.67 242.282 115.649 241.101C116.102 240.626 116.649 240.308 117.287 240.149C118.821 240.238 119.254 239.475 118.587 237.862C119.332 235.577 118.227 233.797 121.033 232.843C121.931 233.036 122.827 233.247 123.718 233.476C124.856 234 125.595 233.62 125.94 232.341C128.582 231.297 127.363 229.753 130.954 231.097C133.126 231.91 135.193 233.31 136.776 235.015C138.761 233.729 134.247 225.777 134.096 223.24C133.739 217.26 136.188 212.316 139.373 207.404C145.566 197.858 154.209 189.651 162.732 182.265C179.057 168.122 196.208 154.658 214.642 143.39C207.037 138.057 198.153 136.612 189.104 139.09C180.763 141.375 174.001 145.525 166.322 149.154C159.209 152.516 151.658 153.897 149.39 144.724C146.849 134.448 154.956 130.633 162.229 126.026C160.413 124.658 154.435 125.636 152.174 125.798C147.137 126.157 142.321 127.305 137.427 128.321C135.079 128.807 132.923 128.697 130.597 129.174C127.141 129.883 123.531 130.676 120.033 131.686C111.712 134.089 103.453 137.735 96.2625 142.649C90.0479 146.894 85.7363 152.888 80.7293 158.408C75.0193 164.703 69.5476 170.896 61.0823 173.2C57.1182 174.28 52.468 175.259 49.6579 171.684C47.0431 168.36 46.8971 164.354 46.9832 160.29C47.1722 151.312 51.4675 141.611 56.4639 134.274C61.8876 126.311 69.1521 121.75 76.0155 115.341C66.095 116.057 56.5076 121.337 47.3843 124.986C45.4643 125.755 43.5262 126.618 41.5956 127.329C39.5372 128.087 38.1736 127.623 36.2013 127.97C31.7007 128.763 27.8345 130.678 23.4566 127.625C15.1737 121.849 23.4722 110.098 29.1751 106.492C37.1182 101.471 45.1992 97.2429 53.9501 93.6611C49.2125 88.4726 53.2583 81.0682 57.6254 77.3875C63.1501 72.7299 70.1857 70.061 76.8432 67.5678C82.1078 65.5958 87.2789 63.7025 92.7482 62.5158C98.4981 61.2688 105.221 59.3632 111.055 59.546C116.527 59.7175 121.379 58.7441 126.92 58.5884C131.531 58.459 136.153 58.571 140.763 58.4503C153.167 58.1267 165.617 58.9715 177.74 59.8722C168.136 31.5124 231.403 40.2704 244.901 43.9748C257.167 47.3416 271.222 51.2471 281.526 59.2356C285.891 62.619 290.036 66.4659 293.909 70.4134C299.623 76.2375 302.786 83.8649 305.809 91.3931C313.475 87.6016 320.804 83.4696 329.192 81.5894C337.173 79.8011 345.349 77.377 353.377 76.0259C359.48 74.9983 368.34 74.3014 373.477 78.6529C379.056 83.3795 381.962 90.7349 385.293 97.0338C401.286 81.7109 419.126 70.5323 441.929 71.2757C464.243 72.0032 478.916 91.4592 481.621 112.542C484.601 135.773 474.351 160.048 460.459 178.038C454.229 186.106 447.783 193.898 439.398 199.917C435.24 202.901 430.854 206.17 426.295 208.499C424.021 209.661 421.535 210.71 419.149 211.604C418.071 212.007 416.962 212.412 415.842 212.686C412.643 213.469 413.265 212.423 412.075 215.25C411.11 217.546 411.229 221.496 410.815 224.015C410.343 226.894 410.062 229.814 409.373 232.654C408.178 237.577 406.934 242.38 405.438 247.188C402.604 256.287 398.792 265.458 394.122 273.758C398.083 275.494 403.629 275.67 407.861 276.196C412.441 276.765 417.029 277.961 421.787 279.305C431.32 281.996 439.84 284.268 448.906 288.298C458.318 292.481 466.706 298.728 475.769 303.7C484.103 308.272 492.527 313.998 500.267 319.486C502.108 320.792 503.248 321.927 504.714 323.581C506.214 325.27 506.691 325.6 508.483 327.064C509.291 327.724 511.641 331.052 512.564 331.174C514.216 331.395 513.962 330.15 515.259 328.412C517.968 324.783 521.745 321.971 524.434 318.25C526.677 315.147 529.017 312.006 531.414 309.337C537.217 302.88 542.024 295.723 546.149 287.983C548.296 283.952 550.557 280.117 552.888 276.314C555.209 272.527 559.336 267.53 563.958 267.753C563.587 265.825 562.406 265.504 564.444 264.325C565.756 263.566 568.311 264.79 569.323 265.561C572.004 267.604 572.118 271.567 571.95 274.544C571.515 282.216 569.925 289.789 567.709 297.043C565.046 305.764 561.707 313.457 558.064 321.78C555.163 328.41 551.561 337.178 544.344 340.203C549.191 347.192 546.863 352.886 543.623 360.305C541.255 365.729 538.128 371.333 533.364 374.923C527.995 378.969 522.171 375.536 516.555 372.862C513.163 371.247 502.79 367.434 504.899 362.463C502.308 362.114 500.678 360.213 498.32 359.629C495.823 359.01 496.252 360.033 493.61 360.417C491.584 360.712 488.555 358.88 486.648 358.224C483.462 357.13 480.285 356.008 477.104 354.902C468.15 351.788 459.347 348.722 450.304 346.227C433.479 341.585 416.446 338.952 399.68 334.807C396.319 333.976 392.978 333.175 389.478 332.509C388.756 332.372 385.007 332.161 384.551 331.38C383.753 330.011 386.206 322.352 386.416 320.792C387.799 310.546 387.347 299.329 385.4 289.201C384.592 284.99 380.981 279.537 381.012 275.427C381.034 272.67 383.453 269.659 384.874 267.161C388.389 260.986 392.071 254.314 394.674 247.887C398.66 238.055 401.101 226.958 402.862 216.429C403.778 210.939 404.846 204.989 405.095 199.436C405.286 195.202 404.942 190.763 405.551 186.428C403.23 186.65 399.947 187.864 397.857 186.565C395.218 184.925 394.51 180.244 394.846 177.448C385.811 179.04 386.111 170.388 386.67 163.622C370.339 163.622 391.254 139.12 393.867 133.858C395.067 131.439 395.032 134.156 394.502 130.415C394.269 128.77 393.156 126.948 392.525 125.435C391.153 122.135 389.669 118.884 388.084 115.681C384.736 108.917 380.943 102.382 376.803 96.0796C373.076 98.7015 369.717 101.805 366.605 105.135C368.601 99.8635 374.701 93.3329 372.092 87.3471C369.674 81.7984 361.598 82.1832 356.829 83.1976C343.869 85.9565 331.439 89.9747 319.093 94.6272C322.917 96.8417 328.773 95.1311 332.573 93.4381C337.278 91.3408 342.338 89.1409 347.409 88.0299C351.832 87.0612 357.64 87.3919 356.362 93.4066C355.326 98.2802 350.605 102.974 347.49 106.618C340.627 114.646 332.021 120.861 323.567 127.071C314.48 133.747 305.724 141 296.522 147.482C279.888 159.2 262.003 169.384 244.817 180.322C235.886 186.006 225.767 190.58 216.081 194.792C205.427 199.425 195.212 204.387 184.159 208.046C178.02 210.079 171.936 211.752 165.904 214.066C162.124 215.515 155.54 218.419 153.041 214.115C147.968 205.375 166.328 193.88 171.359 188.536C174.83 191.939 157.714 204.622 159.054 209.578C160.106 213.472 164.178 208.443 166.144 207.382C169.321 205.666 173.083 204.804 176.276 202.847C182.825 198.832 190.59 194.202 192.085 185.903C191.045 184.795 191.058 183.771 192.125 182.833C192.599 182.263 192.976 181.637 193.254 180.954C193.72 179.65 193.907 178.017 194.156 176.634C194.894 172.547 193.043 168.72 194.773 164.72C184.679 172.441 174.978 181.164 165.397 189.523C156.803 197.021 147.835 206.839 144.677 218.027C144.273 219.461 143.601 221.087 143.674 222.6C143.818 225.57 144.112 224.929 146.481 225.884C148.852 226.84 152.303 226.757 154.852 226.859C156.304 226.915 162.793 225.362 161.503 228.581C160.759 230.437 156.261 230.367 154.651 230.539C150.609 230.969 148.417 230.527 150.332 234.951C151.19 236.934 152.929 238.277 154.293 239.811C158.09 244.081 160.152 250.629 163.139 255.645C166.542 261.359 170.283 266.793 174.257 272.115C175.897 274.311 178.088 278.438 180.362 280.005C182.485 281.468 179.987 281.347 183.513 280.753C185.05 280.495 186.443 279.485 187.914 279.123C196.704 276.961 205.74 274.524 214.831 271.855C226.46 268.44 238.662 265.529 249.757 260.613C259.695 256.207 269.56 250.963 279.603 246.501C282.536 245.199 285.465 244.336 287.745 241.94C290.496 239.047 292.774 235.261 295.312 232.152C299.628 226.864 303.605 221.485 308.251 216.473C311.709 212.744 317.837 205.812 322.715 204.324C331.985 201.496 327.023 215.752 325.825 219.355C328.004 219.855 329.149 217.033 331.707 217.845C334.769 218.817 335.086 222.928 335.469 225.505C335.571 226.192 334.651 227.474 334.93 228.087C335.025 228.295 337.023 229.488 337.409 230.041C338.808 232.049 338.533 234.492 338.003 236.658C335.259 247.878 325.509 256.071 318.338 264.347C321.546 263.734 323.924 261.888 326.953 260.973C329.795 260.115 332.653 260.16 335.518 259.913C338.517 259.656 341.399 258.522 344.467 258.465C347.688 258.404 350.771 259.33 353.965 259.697Z" fill="#E8E9EB"/>
<path fill-rule="evenodd" clip-rule="evenodd" d="M14.806 158.776C13.0376 159.943 12.5391 161.088 12.478 163.781C12.4536 164.885 12.529 169.005 14.0575 168.849C15.4919 168.703 14.806 160.193 14.806 158.776ZM5.67093 165.486C6.49494 156.857 9.62166 148.083 16.9771 142.706C18.7962 141.376 20.8539 141.423 22.8476 140.585C24.0457 140.081 25.9387 137.738 27.299 138.015C32.3062 139.038 26.5213 145.755 25.6742 147.523C23.0489 152.998 23.2262 157.808 23.3046 163.715C23.3643 168.203 24.288 175.771 22.0467 179.834C19.6576 184.16 14.4757 181.35 11.5832 178.79C7.93273 175.557 5.17566 170.41 5.67093 165.486Z" fill="#E8E9EB"/>
<path fill-rule="evenodd" clip-rule="evenodd" d="M93.5728 190.994C93.5728 195.809 97.4433 192.549 97.3055 189.124C97.1027 184.082 93.3919 187.187 93.5728 190.994ZM114.15 164.374C109.914 168.221 106.646 170.379 105.83 176.295C105.212 180.775 105.826 185.213 105.852 189.726C105.897 197.291 99.8461 205.245 93.3351 196.573C88.5857 190.248 90.2893 180.301 94.1623 173.944C96.1945 170.609 99.0957 167.31 102.447 165.231C104.968 163.667 112.059 160.589 114.15 164.374Z" fill="#E8E9EB"/>
<path fill-rule="evenodd" clip-rule="evenodd" d="M54.9859 280.965C54.495 282.138 53.3416 286.929 55.6945 285.845C57.771 284.888 56.4256 281.713 54.9859 280.965ZM42.556 266.175C42.1929 264.374 42.3408 253.081 45.4216 253.928C47.8412 254.592 48.241 260.372 49.2266 262.384C52.8975 269.876 61.3228 274.541 64.2283 282.273C67.4713 290.908 57.6662 291.176 52.4634 287.68C46.303 283.539 42.7387 273.401 42.556 266.175Z" fill="#E8E9EB"/>
<path fill-rule="evenodd" clip-rule="evenodd" d="M35.0058 219.875C36.3425 218.053 36.4779 217.079 35.7156 215.467C34.7413 216.537 34.9141 218.066 35.0058 219.875ZM35.9733 228.028C29.0032 228.816 28.6543 215.848 29.8478 211.395C30.7984 207.848 32.8419 204.038 34.9459 201.148C35.3707 200.565 39.4003 195.326 40.19 195.313C43.2215 195.265 42.3888 198.723 42.0613 200.01C41.0314 204.066 40.6235 207.456 40.9005 211.953C41.198 216.765 43.4548 228.188 35.9733 228.028Z" fill="#E8E9EB"/>
<path fill-rule="evenodd" clip-rule="evenodd" d="M352.433 115.71C342.467 124.149 333.005 133.285 322.168 140.666C316.866 144.279 311.322 147.475 306.031 151.146C303.336 153.016 300.586 154.69 297.597 156.064C294.956 157.278 293.229 157.436 295.42 154.554C296.885 152.629 300.168 151.287 302.163 149.919C305.234 147.811 308.133 145.473 311.363 143.603C317.057 140.305 322.717 137.642 327.965 133.597C332.624 130.008 337.43 126.503 341.877 122.689C343.783 121.053 350.105 113.543 352.433 115.71Z" fill="#E8E9EB"/>
<path fill-rule="evenodd" clip-rule="evenodd" d="M352.633 146.188C357.115 150.058 345.901 160.663 343.344 163.067C340.647 165.602 337.678 167.863 334.745 170.108C333.712 170.899 328.08 176.191 326.65 175.764C323.829 174.921 327.532 171.487 328.496 170.592C331.61 167.693 334.791 164.879 337.837 161.901C340.583 159.218 343.557 156.733 346.213 153.963C348.365 151.719 350.172 147.917 352.633 146.188Z" fill="#E8E9EB"/>
<path fill-rule="evenodd" clip-rule="evenodd" d="M20.5842 302.22C19.414 299.482 17.3182 302.522 18.3807 303.889C19.3855 305.183 20.4345 302.746 20.5842 302.22ZM13.7227 296.814C14.35 292.788 15.7998 290.551 19.5402 293.987C22.1105 296.348 27.2798 303.063 26.7893 306.723C26.1454 311.525 20.9081 310.162 18.1932 307.652C15.4103 305.078 14.1818 300.384 13.7227 296.814Z" fill="#E8E9EB"/>
<path fill-rule="evenodd" clip-rule="evenodd" d="M21.9194 376.05C17.3373 375.698 13.4281 372.146 11.4823 367.983C9.84504 364.483 8.2954 358.84 14.0473 360.68C17.796 361.88 32.2473 376.614 21.9194 376.05Z" fill="#E8E9EB"/>
<path fill-rule="evenodd" clip-rule="evenodd" d="M77.4506 353.225C73.9094 354.04 70.4069 351.685 68.2293 349.03C66.8745 347.376 63.7213 341.578 65.3101 339.192C67.5245 335.863 70.8679 342.554 72.0212 343.878C73.8302 345.952 79.746 349.919 77.4506 353.225Z" fill="#E8E9EB"/>
<path fill-rule="evenodd" clip-rule="evenodd" d="M80.6399 262.7C77.8642 261.399 75.2874 259.834 74.1708 256.727C73.4609 254.749 72.8646 248.817 76.0172 248.844C79.6637 248.877 88.0136 262.106 80.6399 262.7Z" fill="#E8E9EB"/>
<path fill-rule="evenodd" clip-rule="evenodd" d="M61.179 200.978C64.8955 200.91 65.7756 202.98 66.2921 205.953C66.6433 207.971 68.3456 214.822 66.5778 216.225C64.0515 218.23 60.0326 213.636 59.2204 211.832C57.5462 208.118 59.861 204.466 61.179 200.978Z" fill="#E8E9EB"/>
<path fill-rule="evenodd" clip-rule="evenodd" d="M125.04 406.383C126.849 407.214 130.966 409.058 129.393 411.918C127.748 414.91 123.026 412.003 121.262 410.695C120.523 410.148 115.831 406.565 116.027 405.364C116.441 402.811 122.909 406.143 125.04 406.383Z" fill="#E8E9EB"/>
<path fill-rule="evenodd" clip-rule="evenodd" d="M5.81756 219.559C7.05413 222.685 8.44608 233.426 1.93438 227.626C-0.0527703 225.856 -0.352681 223.645 0.331972 221.215C1.32196 217.693 2.76269 218.391 5.81756 219.559Z" fill="#E8E9EB"/>
<path fill-rule="evenodd" clip-rule="evenodd" d="M350.896 179.556C349.454 176.581 353.014 174.663 354.916 172.746C356.158 171.494 361.381 164.702 363.093 165.086C366.616 165.875 352.628 178.23 350.896 179.556Z" fill="#E8E9EB"/>
<path fill-rule="evenodd" clip-rule="evenodd" d="M61.1314 395.015C64.5291 394.464 65.3219 398.275 67.5107 399.936C68.4495 400.649 71.6719 401.275 71.0238 402.787C69.3209 406.759 60.9648 397.685 61.1314 395.015Z" fill="#E8E9EB"/>
<path fill-rule="evenodd" clip-rule="evenodd" d="M89.8223 305.012C92.1577 304.025 98.8982 309.327 96.9626 311.617C94.0695 315.044 89.9869 306.887 89.8223 305.012Z" fill="#E8E9EB"/>
<path fill-rule="evenodd" clip-rule="evenodd" d="M139.05 381.722C137.348 381.893 130.164 379.613 132.825 376.56C134.694 374.415 139.661 379.781 139.05 381.722Z" fill="#E8E9EB"/>
<path fill-rule="evenodd" clip-rule="evenodd" d="M53.0209 367.073C51.3311 367.755 45.2356 366.352 47.1518 363.679C48.9776 361.135 53.0234 364.961 53.0209 367.073Z" fill="#E8E9EB"/>
<path fill-rule="evenodd" clip-rule="evenodd" d="M102.922 378.609C104.898 378.402 106.325 379.605 106.665 381.642C104.193 381.997 103.431 381.404 102.922 378.609Z" fill="#E8E9EB"/>
<path fill-rule="evenodd" clip-rule="evenodd" d="M359.918 82.8828C360.753 82.8866 361.586 82.891 362.413 82.8948C361.577 82.8904 360.748 82.8866 359.918 82.8828Z" fill="#E8E9EB"/>
<path fill-rule="evenodd" clip-rule="evenodd" d="M346.817 258.281C345.569 258.283 344.321 258.285 343.074 258.286C344.322 258.284 345.57 258.283 346.817 258.281Z" fill="#E8E9EB"/>
<path fill-rule="evenodd" clip-rule="evenodd" d="M176.615 52.9688C176.557 54.2298 176.5 55.4909 176.441 56.7477C176.498 55.4855 176.556 54.2266 176.615 52.9688Z" fill="#E8E9EB"/>
<path fill-rule="evenodd" clip-rule="evenodd" d="M563.147 267.109C563.545 268.511 562.962 268.743 561.396 267.806C561.979 267.574 562.563 267.342 563.147 267.109Z" fill="#E8E9EB"/>
<path fill-rule="evenodd" clip-rule="evenodd" d="M527.711 377.008C528.337 377.012 528.963 377.016 529.582 377.02C528.954 377.016 528.333 377.012 527.711 377.008Z" fill="#E8E9EB"/>
<path fill-rule="evenodd" clip-rule="evenodd" d="M409.195 275.629C408.149 276.434 407.109 276.547 406.076 275.586C407.116 275.601 408.155 275.615 409.195 275.629Z" fill="#E8E9EB"/>
<path fill-rule="evenodd" clip-rule="evenodd" d="M385.844 168.219C385.818 169.27 385.791 170.32 385.764 171.368C385.79 170.315 385.817 169.267 385.844 168.219Z" fill="#E8E9EB"/>
<path fill-rule="evenodd" clip-rule="evenodd" d="M439.759 71.0406C438.72 71.04 437.679 71.0387 436.641 71.0374C437.681 70.6444 438.721 70.7735 439.759 71.0406Z" fill="#E8E9EB"/>
<path fill-rule="evenodd" clip-rule="evenodd" d="M160.31 58.4251C159.478 58.3539 158.645 58.2821 157.814 58.2109C158.645 58.2821 159.477 58.3539 160.31 58.4251Z" fill="#E8E9EB"/>
<path fill-rule="evenodd" clip-rule="evenodd" d="M174.032 59.4219C173.201 59.7349 172.369 59.9201 171.537 59.4263C172.369 59.425 173.201 59.4231 174.032 59.4219Z" fill="#E8E9EB"/>
<path fill-rule="evenodd" clip-rule="evenodd" d="M99.8025 61.1484C98.762 61.3619 97.7228 61.5755 96.6836 61.7871C97.724 61.5755 98.7633 61.3619 99.8025 61.1484Z" fill="#E8E9EB"/>
<path fill-rule="evenodd" clip-rule="evenodd" d="M386.47 317.492C386.441 318.123 386.412 318.754 386.385 319.382C386.414 318.75 386.442 318.121 386.47 317.492Z" fill="#E8E9EB"/>
<path fill-rule="evenodd" clip-rule="evenodd" d="M42.7109 266.477C42.7234 266.897 42.7353 267.318 42.7465 267.736C42.7328 267.314 42.7228 266.895 42.7109 266.477Z" fill="#E8E9EB"/>
<path fill-rule="evenodd" clip-rule="evenodd" d="M567.009 264.215L563.891 264.232C564.928 263.449 565.968 263.549 567.009 264.215Z" fill="#E8E9EB"/>
<path fill-rule="evenodd" clip-rule="evenodd" d="M353.679 259.759C352.846 259.621 352.014 259.482 351.184 259.344C352.014 259.482 352.847 259.621 353.679 259.759Z" fill="#E8E9EB"/>
<path fill-rule="evenodd" clip-rule="evenodd" d="M125.379 406.285C124.339 406.081 123.3 405.876 122.26 405.672L125.379 406.285Z" fill="#E8E9EB"/>
<path fill-rule="evenodd" clip-rule="evenodd" d="M335.307 225.538C335.288 224.907 335.269 224.277 335.25 223.648C335.269 224.279 335.288 224.909 335.307 225.538Z" fill="#E8E9EB"/>
<path fill-rule="evenodd" clip-rule="evenodd" d="M314.381 467.664C314.798 467.69 315.216 467.716 315.628 467.741C315.209 467.715 314.794 467.689 314.381 467.664Z" fill="#E8E9EB"/>
<path fill-rule="evenodd" clip-rule="evenodd" d="M28.0703 129.469C28.6966 129.485 29.3228 129.502 29.9416 129.519C29.3122 129.502 28.6913 129.485 28.0703 129.469Z" fill="#E8E9EB"/>
<path fill-rule="evenodd" clip-rule="evenodd" d="M117.894 68.7109C116.435 68.7135 114.978 68.716 113.527 68.7185C114.989 68.716 116.442 68.7135 117.894 68.7109Z" fill="#E8E9EB"/>
<path fill-rule="evenodd" clip-rule="evenodd" d="M412.596 198.461C412.614 199.512 412.635 200.563 412.656 201.61C412.637 200.558 412.618 199.509 412.596 198.461Z" fill="#E8E9EB"/>
<path fill-rule="evenodd" clip-rule="evenodd" d="M336.214 423.954C335.379 423.942 334.546 423.928 333.719 423.914C334.555 423.925 335.384 423.94 336.214 423.954Z" fill="#E8E9EB"/>
<path fill-rule="evenodd" clip-rule="evenodd" d="M424.789 90.2476C426.037 90.1078 427.284 89.9679 428.532 89.8281C427.334 90.8976 426.041 90.1859 424.789 90.2476Z" fill="#E8E9EB"/>
<path fill-rule="evenodd" clip-rule="evenodd" d="M329.352 424.281C328.726 424.257 328.101 424.234 327.48 424.211C328.109 424.235 328.73 424.258 329.352 424.281Z" fill="#E8E9EB"/>
<path fill-rule="evenodd" clip-rule="evenodd" d="M307.785 435.266C307.816 436.317 307.848 437.368 307.88 438.415C307.849 437.361 307.817 436.314 307.785 435.266Z" fill="#E8E9EB"/>
<path fill-rule="evenodd" clip-rule="evenodd" d="M402.957 128.921C403.789 128.843 404.621 128.765 405.452 128.688C404.693 129.278 403.802 128.933 402.957 128.921Z" fill="#E8E9EB"/>
<path fill-rule="evenodd" clip-rule="evenodd" d="M260.113 130.752C261.151 129.859 262.191 129.956 263.232 130.742C262.192 130.745 261.153 130.749 260.113 130.752Z" fill="#E8E9EB"/>
<path fill-rule="evenodd" clip-rule="evenodd" d="M221.082 162.557C221.112 162.136 221.141 161.716 221.173 161.297C221.144 161.718 221.113 162.137 221.082 162.557Z" fill="#E8E9EB"/>
<path fill-rule="evenodd" clip-rule="evenodd" d="M402.631 150.594C402.64 151.435 402.648 152.276 402.657 153.113C402.649 152.27 402.64 151.432 402.631 150.594Z" fill="#E8E9EB"/>
<path fill-rule="evenodd" clip-rule="evenodd" d="M127.426 282.238C128.795 282.707 131.547 284.122 133.142 283.934C134.419 283.784 135.472 282.217 136.703 282.219C140.018 282.223 139.403 286.093 137.801 288.17C133.469 293.789 123.789 287.696 127.426 282.238Z" fill="#E8E9EB"/>
<path fill-rule="evenodd" clip-rule="evenodd" d="M140.96 262.07C145.481 263.249 143.229 273.29 139.428 273.98C134.953 274.794 134.174 266.629 135.058 263.678C137.36 265.059 135.935 269.988 138.837 268.626C140.683 267.759 140.402 263.749 140.96 262.07Z" fill="#E8E9EB"/>
<defs>
<linearGradient id="paint0_linear_174_14" x1="342.625" y1="97.8725" x2="565.359" y2="96.9927" gradientUnits="userSpaceOnUse">
<stop stop-color="#32F6F4"/>
<stop offset="1" stop-color="#11508B"/>
</linearGradient>
<linearGradient id="paint1_linear_174_14" x1="45.1074" y1="455.929" x2="187.736" y2="455.464" gradientUnits="userSpaceOnUse">
<stop stop-color="#32F6F4"/>
<stop offset="1" stop-color="#11508B"/>
</linearGradient>
<linearGradient id="paint2_linear_174_14" x1="130.963" y1="318.114" x2="303.695" y2="317.353" gradientUnits="userSpaceOnUse">
<stop stop-color="#32F6F4"/>
<stop offset="1" stop-color="#11508B"/>
</linearGradient>
</defs>
</svg>
