<svg width="670" height="378" viewBox="0 0 670 378" fill="none" xmlns="http://www.w3.org/2000/svg">
<path d="M333.862 326.352L414.459 355.379" stroke="url(#paint0_linear_242_4)" stroke-width="1.294" stroke-linecap="round" stroke-linejoin="round"/>
<path d="M414.456 355.379L419.26 376.553H412.477H332.165H322.479L333.86 326.352L414.456 355.379Z" fill="#E8E9EB"/>
<path d="M322.479 376.553L333.86 326.352H407.88L414.456 355.379L419.26 376.553" stroke="url(#paint1_linear_242_4)" stroke-width="1.294" stroke-linecap="round" stroke-linejoin="round"/>
<path d="M412.477 376.57H332.165" stroke="url(#paint2_linear_242_4)" stroke-width="1.294" stroke-linecap="round" stroke-linejoin="round"/>
<path d="M297.621 376.57H441.63" stroke="url(#paint3_linear_242_4)" stroke-width="1.294" stroke-linecap="round" stroke-linejoin="round"/>
<path d="M74.842 201.294L74.7505 201.135C73.5232 199.064 60.04 176.75 43.666 167.125C43.666 167.125 48.1358 196.381 62.4384 208.373C63.029 208.874 63.6452 209.343 64.2847 209.78C80.0538 220.681 90.8185 227.838 92.8442 241.276" stroke="url(#paint4_linear_242_4)" stroke-width="1.294" stroke-linecap="round" stroke-linejoin="round"/>
<path d="M527.294 72.861H184.218V59.3075C184.219 55.3391 185.796 51.5336 188.602 48.7276C191.408 45.9215 195.213 44.3447 199.182 44.3438H522.722C522.171 47.0319 521.893 49.769 521.892 52.5131V52.8437H237.866V64.245H523.341L523.615 64.1676C524.518 67.1918 525.752 70.1072 527.294 72.861Z" fill="url(#paint5_linear_242_4)"/>
<path d="M527.294 72.861H184.218V59.3075C184.219 55.3391 185.796 51.5336 188.602 48.7276C191.408 45.9215 195.213 44.3447 199.182 44.3438H522.722C522.171 47.0319 521.893 49.769 521.892 52.5131V52.8437H237.866V64.245H523.341L523.615 64.1676C524.518 67.1918 525.752 70.1072 527.294 72.861Z" stroke="url(#paint6_linear_242_4)"/>
<path d="M370.865 295.063C373.058 295.062 375.202 295.711 377.025 296.929C378.849 298.147 380.27 299.878 381.109 301.904C381.949 303.929 382.169 306.158 381.741 308.309C381.313 310.46 380.258 312.435 378.707 313.985C377.157 315.536 375.181 316.592 373.031 317.019C370.88 317.447 368.651 317.227 366.625 316.388C364.6 315.548 362.869 314.127 361.651 312.303C360.433 310.48 359.783 308.336 359.784 306.144C359.786 303.205 360.954 300.388 363.032 298.31C365.11 296.232 367.927 295.064 370.865 295.063Z" fill="#E8E9EB"/>
<path d="M570.817 128.454V256.112C568.187 257.242 565.629 258.534 563.158 259.98L557.38 258.025L557.528 257.578V104.195L570.817 128.454Z" fill="#E8E9EB"/>
<path d="M570.816 102.22V128.459L557.526 104.193V98.1797C561.824 99.9286 566.272 101.281 570.816 102.22Z" fill="#E8E9EB"/>
<path d="M545.123 326.348H520.886L532.206 285.93H539.651C537.699 290.776 536.694 295.951 536.69 301.175C536.759 310.248 539.712 319.064 545.123 326.348Z" fill="#E8E9EB"/>
<path d="M532.217 285.921L520.897 326.339H191.114C185.76 326.339 180.626 324.213 176.84 320.427C173.054 316.641 170.928 311.507 170.928 306.153V209.749L184.218 192.773V270.958C184.218 274.926 185.795 278.732 188.601 281.538C191.407 284.344 195.213 285.921 199.181 285.921H532.217ZM381.971 306.129C381.972 303.936 381.322 301.792 380.105 299.968C378.887 298.144 377.156 296.723 375.13 295.883C373.105 295.043 370.875 294.822 368.724 295.249C366.573 295.676 364.597 296.731 363.046 298.281C361.495 299.831 360.438 301.806 360.009 303.956C359.58 306.107 359.798 308.336 360.636 310.363C361.474 312.389 362.894 314.122 364.717 315.341C366.54 316.56 368.683 317.212 370.876 317.213C373.815 317.213 376.634 316.044 378.713 313.966C380.791 311.887 381.96 309.068 381.961 306.129H381.971Z" fill="#E8E9EB"/>
<path d="M527.441 110.385C528.222 110.365 528.998 110.503 529.725 110.788C530.452 111.074 531.115 111.502 531.674 112.047C532.233 112.593 532.677 113.245 532.98 113.964C533.283 114.684 533.44 115.457 533.44 116.238C533.44 117.019 533.283 117.792 532.98 118.512C532.677 119.232 532.233 119.884 531.674 120.429C531.115 120.974 530.452 121.403 529.725 121.688C528.998 121.974 528.222 122.111 527.441 122.092H392.496C391.338 122.094 390.205 121.752 389.241 121.109C388.277 120.467 387.525 119.552 387.082 118.482C386.639 117.412 386.523 116.234 386.75 115.098C386.977 113.962 387.536 112.918 388.357 112.101C388.898 111.554 389.543 111.121 390.254 110.826C390.965 110.532 391.727 110.381 392.496 110.385H527.441Z" fill="#32F6F4"/>
<path d="M527.441 135.406C528.994 135.406 530.483 136.023 531.581 137.121C532.679 138.219 533.296 139.709 533.296 141.262C533.296 142.815 532.679 144.304 531.581 145.402C530.483 146.5 528.994 147.117 527.441 147.117H324.222C322.669 147.114 321.179 146.496 320.081 145.397C318.983 144.298 318.365 142.808 318.363 141.255C318.37 139.704 318.989 138.218 320.087 137.123C321.185 136.027 322.671 135.41 324.222 135.406H527.441Z" fill="url(#paint7_linear_242_4)"/>
<path d="M527.44 160.455C528.221 160.436 528.998 160.573 529.725 160.859C530.452 161.144 531.114 161.572 531.673 162.118C532.232 162.663 532.676 163.315 532.98 164.035C533.283 164.754 533.439 165.527 533.439 166.308C533.439 167.09 533.283 167.863 532.98 168.582C532.676 169.302 532.232 169.954 531.673 170.499C531.114 171.045 530.452 171.473 529.725 171.758C528.998 172.044 528.221 172.181 527.44 172.162H460.77C459.216 172.161 457.727 171.544 456.628 170.445C455.53 169.347 454.912 167.857 454.911 166.303C454.914 164.751 455.532 163.264 456.631 162.167C457.729 161.071 459.218 160.455 460.77 160.455H527.44Z" fill="#32F6F4"/>
<path d="M527.44 185.461C528.993 185.461 530.482 186.078 531.58 187.176C532.679 188.274 533.296 189.763 533.296 191.316C533.296 192.869 532.679 194.359 531.58 195.457C530.482 196.555 528.993 197.172 527.44 197.172H312.845C311.291 197.17 309.801 196.552 308.702 195.453C307.603 194.354 306.984 192.864 306.982 191.309C306.989 189.758 307.609 188.272 308.708 187.176C309.806 186.08 311.293 185.464 312.845 185.461H527.44Z" fill="url(#paint8_linear_242_4)"/>
<path d="M527.44 210.508C528.968 210.545 530.42 211.178 531.487 212.272C532.555 213.366 533.152 214.833 533.152 216.361C533.152 217.89 532.555 219.357 531.487 220.451C530.42 221.544 528.968 222.178 527.44 222.215H415.256C413.702 222.214 412.212 221.597 411.113 220.498C410.014 219.4 409.395 217.91 409.394 216.356C409.398 214.804 410.018 213.317 411.117 212.221C412.215 211.125 413.704 210.509 415.256 210.508H527.44Z" fill="#32F6F4"/>
<path d="M527.44 235.533C528.221 235.514 528.998 235.651 529.725 235.937C530.452 236.222 531.114 236.65 531.673 237.196C532.232 237.741 532.676 238.393 532.979 239.113C533.283 239.832 533.439 240.606 533.439 241.387C533.439 242.168 533.283 242.941 532.979 243.66C532.676 244.38 532.232 245.032 531.673 245.577C531.114 246.123 530.452 246.551 529.725 246.837C528.998 247.122 528.221 247.259 527.44 247.24H494.907C493.353 247.239 491.863 246.622 490.765 245.523C489.666 244.425 489.049 242.935 489.048 241.381C489.053 239.83 489.672 238.343 490.77 237.247C491.868 236.151 493.355 235.535 494.907 235.533H527.44Z" fill="url(#paint9_linear_242_4)"/>
<path d="M527.44 260.57C528.993 260.57 530.482 261.187 531.58 262.285C532.678 263.383 533.295 264.873 533.295 266.426C533.295 267.979 532.678 269.468 531.58 270.566C530.482 271.664 528.993 272.281 527.44 272.281H346.982C345.427 272.279 343.937 271.661 342.838 270.562C341.739 269.463 341.121 267.973 341.119 266.419C341.126 264.867 341.746 263.381 342.844 262.285C343.943 261.19 345.43 260.573 346.982 260.57H527.44Z" fill="#32F6F4"/>
<path d="M527.896 85.3817L522.22 97.0467H346.984C345.431 97.0467 343.942 96.4298 342.844 95.3317C341.746 94.2336 341.129 92.7443 341.129 91.1913C341.129 89.6384 341.746 88.149 342.844 87.051C343.942 85.9529 345.431 85.3359 346.984 85.3359H527.443C527.601 85.3359 527.738 85.3711 527.896 85.3817Z" fill="url(#paint10_linear_242_4)"/>
<path d="M191.114 34.6406H525.985C524.509 37.7284 523.413 40.9841 522.722 44.3363H199.181C195.213 44.3372 191.407 45.914 188.601 48.7201C185.795 51.5261 184.218 55.3317 184.218 59.3V107.068C180.094 104.013 175.636 101.44 170.928 99.398V54.8267C170.928 49.473 173.054 44.3386 176.84 40.553C180.626 36.7674 185.76 34.6406 191.114 34.6406Z" fill="#E8E9EB"/>
<path d="M462.586 235.531C464.114 235.569 465.566 236.202 466.633 237.296C467.7 238.389 468.298 239.857 468.298 241.385C468.298 242.913 467.7 244.381 466.633 245.474C465.566 246.568 464.114 247.201 462.586 247.238H236.607C235.053 247.238 233.564 246.62 232.465 245.521C231.367 244.423 230.749 242.933 230.748 241.38C230.753 239.828 231.372 238.342 232.47 237.246C233.568 236.15 235.055 235.533 236.607 235.531H462.586Z" fill="#32F6F4"/>
<path d="M428.445 160.453C429.973 160.491 431.425 161.124 432.493 162.217C433.56 163.311 434.157 164.779 434.157 166.307C434.157 167.835 433.56 169.302 432.493 170.396C431.425 171.49 429.973 172.123 428.445 172.16H236.607C235.053 172.159 233.564 171.542 232.465 170.443C231.367 169.345 230.749 167.855 230.748 166.301C230.751 164.749 231.369 163.262 232.468 162.165C233.566 161.069 235.055 160.453 236.607 160.453H428.445Z" fill="url(#paint11_linear_242_4)"/>
<path d="M407.883 326.352L414.459 355.379L333.862 326.352H407.883Z" fill="url(#paint12_linear_242_4)"/>
<path d="M382.928 210.508C384.456 210.545 385.908 211.178 386.975 212.272C388.043 213.366 388.64 214.833 388.64 216.361C388.64 217.89 388.043 219.357 386.975 220.451C385.908 221.544 384.456 222.178 382.928 222.215H236.607C235.053 222.214 233.564 221.597 232.465 220.498C231.367 219.399 230.749 217.91 230.748 216.356C230.751 214.804 231.369 213.317 232.468 212.22C233.566 211.124 235.055 210.508 236.607 210.508H382.928Z" fill="url(#paint13_linear_242_4)"/>
<path d="M360.17 110.385C360.95 110.365 361.727 110.503 362.454 110.788C363.181 111.074 363.844 111.502 364.402 112.047C364.961 112.593 365.406 113.245 365.709 113.964C366.012 114.684 366.169 115.457 366.169 116.238C366.169 117.019 366.012 117.792 365.709 118.512C365.406 119.232 364.961 119.884 364.402 120.429C363.844 120.974 363.181 121.403 362.454 121.688C361.727 121.974 360.95 122.111 360.17 122.092H236.605C235.825 122.111 235.048 121.974 234.321 121.688C233.594 121.403 232.931 120.974 232.372 120.429C231.814 119.884 231.369 119.232 231.066 118.512C230.763 117.792 230.606 117.019 230.606 116.238C230.606 115.457 230.763 114.684 231.066 113.964C231.369 113.245 231.814 112.593 232.372 112.047C232.931 111.502 233.594 111.074 234.321 110.788C235.048 110.503 235.825 110.365 236.605 110.385H360.17Z" fill="url(#paint14_linear_242_4)"/>
<path d="M314.654 85.3359C316.207 85.3359 317.696 85.9529 318.794 87.051C319.893 88.149 320.509 89.6384 320.509 91.1913C320.509 92.7443 319.893 94.2336 318.794 95.3317C317.696 96.4298 316.207 97.0467 314.654 97.0467H236.607C235.053 97.0458 233.564 96.4282 232.465 95.3297C231.367 94.2311 230.749 92.7414 230.748 91.1878C230.752 89.6357 231.37 88.1484 232.469 87.0515C233.567 85.9547 235.055 85.3378 236.607 85.3359H314.654Z" fill="#32F6F4"/>
<path d="M314.654 260.57C316.207 260.57 317.696 261.187 318.794 262.285C319.893 263.383 320.509 264.873 320.509 266.426C320.509 267.979 319.893 269.468 318.794 270.566C317.696 271.664 316.207 272.281 314.654 272.281H236.607C235.053 272.279 233.563 271.661 232.465 270.562C231.366 269.463 230.749 267.973 230.748 266.419C230.753 264.867 231.372 263.381 232.47 262.285C233.568 261.189 235.055 260.572 236.607 260.57H314.654Z" fill="url(#paint15_linear_242_4)"/>
<path d="M291.897 135.406C293.45 135.406 294.94 136.023 296.038 137.121C297.136 138.219 297.753 139.709 297.753 141.262C297.753 142.815 297.136 144.304 296.038 145.402C294.94 146.5 293.45 147.117 291.897 147.117H236.607C235.053 147.115 233.563 146.497 232.465 145.398C231.366 144.299 230.749 142.808 230.748 141.255C230.753 139.703 231.372 138.217 232.47 137.121C233.568 136.025 235.055 135.408 236.607 135.406H291.897Z" fill="#32F6F4"/>
<path d="M280.517 185.461C282.07 185.461 283.559 186.078 284.657 187.176C285.756 188.274 286.372 189.763 286.372 191.316C286.372 192.869 285.756 194.359 284.657 195.457C283.559 196.555 282.07 197.172 280.517 197.172H236.607C235.053 197.17 233.563 196.551 232.465 195.452C231.366 194.353 230.749 192.863 230.748 191.309C230.753 189.758 231.372 188.271 232.47 187.175C233.568 186.079 235.055 185.463 236.607 185.461H280.517Z" fill="#32F6F4"/>
<path d="M204.041 137.203C204.813 137.491 205.486 137.993 205.982 138.651C206.477 139.309 206.775 140.094 206.839 140.915C206.903 141.736 206.732 142.558 206.344 143.285C205.957 144.012 205.37 144.613 204.653 145.017V144.279C204.653 143.699 204.653 143.118 204.607 142.538V142.401C204.532 140.658 204.343 138.921 204.041 137.203Z" fill="url(#paint16_linear_242_4)"/>
<path d="M202.492 86.8203C203.355 86.8176 204.2 87.0709 204.919 87.5484C205.638 88.0259 206.199 88.706 206.531 89.5025C206.863 90.2991 206.952 91.1764 206.785 92.0232C206.618 92.87 206.204 93.6483 205.595 94.2596C204.985 94.8709 204.208 95.2876 203.362 95.457C202.516 95.6264 201.638 95.5409 200.841 95.2112C200.043 94.8816 199.361 94.3227 198.881 93.6053C198.402 92.8878 198.146 92.0442 198.146 91.1811C198.146 90.027 198.603 88.9199 199.418 88.1025C200.233 87.2851 201.338 86.8241 202.492 86.8203Z" fill="url(#paint17_linear_242_4)"/>
<path d="M202.492 111.867C203.354 111.865 204.198 112.119 204.916 112.596C205.634 113.074 206.194 113.754 206.525 114.55C206.857 115.346 206.944 116.222 206.778 117.068C206.611 117.914 206.196 118.691 205.588 119.302C204.979 119.912 204.202 120.328 203.357 120.497C202.511 120.666 201.635 120.58 200.838 120.251C200.041 119.922 199.36 119.363 198.881 118.646C198.401 117.93 198.146 117.087 198.146 116.224C198.146 115.071 198.603 113.964 199.418 113.147C200.233 112.33 201.338 111.87 202.492 111.867Z" fill="url(#paint18_linear_242_4)"/>
<path d="M202.495 161.938C203.65 161.938 204.759 162.397 205.576 163.214C206.393 164.032 206.852 165.14 206.852 166.295C206.852 167.451 206.393 168.559 205.576 169.376C204.759 170.194 203.65 170.653 202.495 170.653C201.566 170.631 200.668 170.317 199.928 169.755C199.188 169.193 198.644 168.412 198.373 167.523L197.775 167.146C198.803 165.551 199.726 163.891 200.54 162.177L200.733 162.265C201.095 161.907 202.196 161.938 202.495 161.938Z" fill="url(#paint19_linear_242_4)"/>
<path d="M202.492 211.984C203.355 211.982 204.2 212.235 204.919 212.712C205.638 213.19 206.199 213.87 206.531 214.667C206.863 215.463 206.952 216.34 206.785 217.187C206.618 218.034 206.204 218.812 205.595 219.424C204.985 220.035 204.208 220.452 203.362 220.621C202.516 220.79 201.638 220.705 200.841 220.375C200.043 220.046 199.361 219.487 198.881 218.769C198.402 218.052 198.146 217.208 198.146 216.345C198.146 215.191 198.603 214.084 199.418 213.267C200.233 212.449 201.338 211.988 202.492 211.984Z" fill="url(#paint20_linear_242_4)"/>
<path d="M202.492 237.031C203.354 237.029 204.198 237.283 204.916 237.76C205.634 238.238 206.194 238.918 206.525 239.714C206.857 240.51 206.944 241.386 206.778 242.232C206.611 243.078 206.196 243.855 205.588 244.466C204.979 245.076 204.202 245.492 203.357 245.661C202.511 245.83 201.635 245.745 200.838 245.415C200.041 245.086 199.36 244.527 198.881 243.81C198.401 243.094 198.146 242.251 198.146 241.389C198.146 240.235 198.603 239.128 199.418 238.311C200.233 237.494 201.338 237.034 202.492 237.031Z" fill="url(#paint21_linear_242_4)"/>
<path d="M202.492 262.055C203.355 262.052 204.2 262.305 204.919 262.783C205.638 263.261 206.199 263.941 206.531 264.738C206.863 265.535 206.952 266.412 206.785 267.259C206.618 268.106 206.203 268.884 205.594 269.495C204.984 270.106 204.207 270.523 203.36 270.692C202.514 270.861 201.636 270.775 200.838 270.445C200.041 270.114 199.359 269.555 198.88 268.837C198.4 268.119 198.145 267.275 198.146 266.412C198.146 265.258 198.603 264.151 199.418 263.335C200.233 262.518 201.338 262.058 202.492 262.055Z" fill="url(#paint22_linear_242_4)"/>
<path d="M178.196 185.5L184.526 188.493L184.206 189.175V192.808L170.916 209.783V189.175C173.416 188.1 175.847 186.873 178.196 185.5Z" fill="#E8E9EB"/>
<path d="M156.536 193.836L156.659 194.395C150.779 207.731 143.295 220.964 134.528 228.328C131.682 230.717 128.943 233.137 126.313 235.587C125.398 221.848 124.37 208.117 123.229 194.395C128.271 195.313 133.387 195.773 138.512 195.77C144.572 195.779 150.615 195.131 156.536 193.836Z" fill="url(#paint23_linear_242_4)"/>
<path d="M115.307 260.499C117.47 255.432 120.805 250.951 125.037 247.424C125.684 246.924 126.332 246.421 126.993 245.943C137.435 238.599 148.813 232.685 160.824 228.359C160.504 229.042 148.283 254.928 136.558 264.817C133.84 267.103 131.118 269.154 128.547 271.148C125.938 273.132 123.471 275.295 121.162 277.622C118.614 280.131 116.598 283.129 115.235 286.435C113.873 289.742 113.191 293.289 113.232 296.866V297.446H108.217V296.866C108.281 290.733 108.852 284.617 109.926 278.578C110.949 272.349 112.757 266.274 115.307 260.499Z" fill="url(#paint24_linear_242_4)"/>
<path d="M129.79 296.866V297.447H123.692C123.396 290.779 122.543 284.148 121.143 277.623C123.451 275.296 125.919 273.133 128.528 271.148C129.312 284.35 129.79 294.225 129.79 296.866Z" fill="url(#paint25_linear_242_4)"/>
<path d="M126.995 245.937C126.334 246.426 125.687 246.929 125.04 247.428C120.807 250.955 117.472 255.436 115.309 260.503C113.955 258.393 112.281 256.055 110.347 253.449C105.852 247.372 100.029 239.976 94.0537 231.758C86.8588 222.121 80.436 211.932 74.8452 201.285C74.8452 201.285 74.8101 201.229 74.7538 201.127C73.9194 199.471 73.1198 197.798 72.3554 196.108C47.4674 141.215 63.5916 86.4844 63.5916 86.4844C72.1239 94.267 80.1293 102.608 87.5547 111.453C82.8901 115.58 79.1312 120.629 76.5152 126.281C73.8992 131.933 72.4828 138.066 72.3554 144.293C72.3554 168.632 94.0537 189.036 123.229 194.406C124.252 206.342 125.321 221.056 126.313 235.598C126.541 239.065 126.781 242.522 126.995 245.937Z" fill="url(#paint26_linear_242_4)"/>
<path d="M107.478 257.758C107.478 257.758 109.345 268.874 109.94 278.559C108.866 284.597 108.294 290.714 108.231 296.846V297.427H103.233V296.846C104.992 285.079 103.188 271.835 103.233 265.576C104.501 262.892 105.918 260.282 107.478 257.758Z" fill="url(#paint27_linear_242_4)"/>
<path d="M110.343 253.445C109.345 254.851 108.388 256.3 107.477 257.767C105.917 260.291 104.5 262.901 103.232 265.585C98.6201 275.554 96.1955 286.395 96.1216 297.379V297.436H94.117C93.9958 285.225 92.7348 273.052 90.3506 261.076C91.5006 255.055 92.109 248.229 92.844 241.263C93.1745 238.122 93.5262 234.95 93.9588 231.82L94.0502 231.75C100.025 239.976 105.849 247.361 110.343 253.445Z" fill="#32F6F4"/>
<path d="M94.1178 297.437H85.2556C84.6753 267.281 64.2852 257.758 43.8705 240.554C22.7701 222.791 0.811523 175.898 0.811523 175.898C22.7605 183.803 43.5021 194.726 62.439 208.351C63.029 208.851 63.644 209.32 64.2817 209.758C79.0521 221.342 86.5744 242.28 90.3514 261.067C92.7363 273.047 93.9972 285.223 94.1178 297.437Z" fill="url(#paint28_linear_242_4)"/>
<path d="M94.0504 231.739L93.959 231.81C93.5264 234.94 93.1748 238.112 92.8442 241.252C90.8185 227.815 80.0538 220.669 64.2847 209.756C63.6693 209.278 63.0644 208.8 62.4384 208.349C48.1358 196.357 43.666 167.102 43.666 167.102C60.04 176.727 73.5232 199.041 74.7505 201.112L74.842 201.27C80.4329 211.916 86.8557 222.104 94.0504 231.739Z" fill="url(#paint29_linear_242_4)"/>
<path d="M170.928 99.398V54.8267C170.928 49.473 173.054 44.3386 176.84 40.553C180.626 36.7674 185.76 34.6406 191.114 34.6406H525.985" stroke="url(#paint30_linear_242_4)" stroke-width="1.294" stroke-linecap="round" stroke-linejoin="round"/>
<path d="M333.873 326.363H191.114C185.76 326.363 180.626 324.236 176.84 320.45C173.054 316.665 170.928 311.53 170.928 306.177V189.164" stroke="url(#paint31_linear_242_4)" stroke-width="1.294" stroke-linecap="round" stroke-linejoin="round"/>
<path d="M545.122 326.348L521.275 326.356L193.783 326.461" stroke="url(#paint32_linear_242_4)" stroke-width="1.294" stroke-linecap="round" stroke-linejoin="round"/>
<path d="M570.814 102.211V128.449V256.121" stroke="url(#paint33_linear_242_4)" stroke-width="1.294" stroke-linecap="round" stroke-linejoin="round"/>
<path d="M539.652 285.945H199.182C195.213 285.944 191.408 284.367 188.602 281.561C185.796 278.755 184.219 274.949 184.218 270.981V189.164" stroke="url(#paint34_linear_242_4)" stroke-width="1.294" stroke-linecap="round" stroke-linejoin="round"/>
<path d="M557.526 98.1797V104.186V257.573" stroke="url(#paint35_linear_242_4)" stroke-width="1.294" stroke-linecap="round" stroke-linejoin="round"/>
<path d="M381.961 306.144C381.962 308.337 381.313 310.481 380.096 312.305C378.879 314.129 377.148 315.552 375.122 316.392C373.097 317.233 370.867 317.454 368.716 317.027C366.565 316.601 364.589 315.546 363.037 313.996C361.485 312.447 360.428 310.472 359.999 308.321C359.569 306.17 359.788 303.941 360.626 301.914C361.464 299.887 362.884 298.155 364.706 296.935C366.529 295.716 368.672 295.064 370.865 295.063C373.806 295.062 376.627 296.228 378.707 298.306C380.788 300.384 381.958 303.203 381.961 306.144Z" stroke="url(#paint36_linear_242_4)" stroke-width="1.294" stroke-linecap="round" stroke-linejoin="round"/>
<path d="M41.5244 376.57H59.073" stroke="url(#paint37_linear_242_4)" stroke-width="1.294" stroke-linecap="round" stroke-linejoin="round"/>
<path d="M64.2861 376.57H88.0206" stroke="url(#paint38_linear_242_4)" stroke-width="1.294" stroke-linecap="round" stroke-linejoin="round"/>
<path d="M185.142 49.1953C185.142 46.4339 187.38 44.1953 190.142 44.1953H531.523C534.284 44.1953 536.523 46.4339 536.523 49.1953V72.997H185.142V49.1953Z" fill="url(#paint39_linear_242_4)"/>
<path d="M215.896 65.566L227.537 58.8525L215.896 52.125" stroke="#010412" stroke-width="1.294" stroke-linecap="round" stroke-linejoin="round"/>
<path d="M208.373 52.125L196.722 58.8525L208.373 65.566" stroke="#010412" stroke-width="1.294" stroke-linecap="round" stroke-linejoin="round"/>
<path d="M127.619 376.569H88.0206C81.7259 376.569 75.6889 374.069 71.2378 369.618C66.7867 365.167 64.2861 359.13 64.2861 352.835V297.453H151.354V352.835C151.353 359.129 148.852 365.166 144.401 369.617C139.95 374.067 133.914 376.568 127.619 376.569Z" stroke="url(#paint40_linear_242_4)" stroke-width="1.294" stroke-linecap="round" stroke-linejoin="round"/>
<path d="M221.713 80.9688V273.409" stroke="url(#paint41_linear_242_4)" stroke-width="1.294" stroke-linecap="round" stroke-linejoin="round"/>
<path d="M527.907 85.3817C527.738 85.3817 527.601 85.3359 527.443 85.3359H346.984C345.431 85.3359 343.942 85.9529 342.844 87.051C341.746 88.149 341.129 89.6384 341.129 91.1913C341.129 92.7443 341.746 94.2336 342.844 95.3317C343.942 96.4298 345.431 97.0467 346.984 97.0467H522.22L527.907 85.3817Z" stroke="url(#paint42_linear_242_4)" stroke-width="1.294" stroke-linecap="round" stroke-linejoin="round"/>
<path d="M206.851 91.1811C206.85 92.0417 206.593 92.8826 206.114 93.5976C205.635 94.3126 204.955 94.8695 204.159 95.198C203.364 95.5266 202.489 95.612 201.645 95.4435C200.801 95.275 200.026 94.8602 199.417 94.2514C198.809 93.6425 198.395 92.8671 198.227 92.023C198.059 91.1789 198.145 90.304 198.475 89.5088C198.804 88.7136 199.361 88.0338 200.077 87.5553C200.792 87.0768 201.633 86.821 202.494 86.8203C203.067 86.8194 203.634 86.9316 204.163 87.1504C204.692 87.3693 205.173 87.6905 205.578 88.0957C205.983 88.5009 206.304 88.982 206.522 89.5115C206.741 90.0409 206.852 90.6083 206.851 91.1811Z" stroke="url(#paint43_linear_242_4)" stroke-width="1.294" stroke-linecap="round" stroke-linejoin="round"/>
<path d="M360.17 122.092H236.605C235.825 122.111 235.048 121.974 234.321 121.688C233.594 121.403 232.931 120.974 232.372 120.429C231.814 119.884 231.369 119.232 231.066 118.512C230.763 117.792 230.606 117.019 230.606 116.238C230.606 115.457 230.763 114.684 231.066 113.964C231.369 113.245 231.814 112.593 232.372 112.047C232.931 111.502 233.594 111.074 234.321 110.788C235.048 110.503 235.825 110.365 236.605 110.385H360.17C360.95 110.365 361.727 110.503 362.454 110.788C363.181 111.074 363.844 111.502 364.402 112.047C364.961 112.593 365.406 113.245 365.709 113.964C366.012 114.684 366.169 115.457 366.169 116.238C366.169 117.019 366.012 117.792 365.709 118.512C365.406 119.232 364.961 119.884 364.402 120.429C363.844 120.974 363.181 121.403 362.454 121.688C361.727 121.974 360.95 122.111 360.17 122.092Z" stroke="url(#paint44_linear_242_4)" stroke-width="1.294" stroke-linecap="round" stroke-linejoin="round"/>
<path d="M206.851 116.224C206.85 117.085 206.594 117.926 206.116 118.642C205.637 119.357 204.957 119.915 204.162 120.244C203.366 120.573 202.491 120.659 201.647 120.491C200.803 120.323 200.027 119.908 199.419 119.299C198.81 118.691 198.395 117.915 198.227 117.071C198.059 116.227 198.145 115.352 198.474 114.556C198.803 113.761 199.361 113.081 200.076 112.602C200.792 112.124 201.633 111.868 202.494 111.867C203.066 111.866 203.633 111.978 204.162 112.197C204.691 112.416 205.172 112.737 205.577 113.141C205.982 113.546 206.303 114.027 206.521 114.556C206.74 115.085 206.852 115.652 206.851 116.224Z" stroke="url(#paint45_linear_242_4)" stroke-width="1.294" stroke-linecap="round" stroke-linejoin="round"/>
<path d="M527.441 147.14H324.222C322.669 147.138 321.179 146.519 320.081 145.42C318.983 144.321 318.365 142.832 318.363 141.278C318.37 139.727 318.989 138.242 320.087 137.146C321.185 136.05 322.671 135.433 324.222 135.43H527.441C528.994 135.43 530.483 136.047 531.581 137.145C532.679 138.243 533.296 139.732 533.296 141.285C533.296 142.838 532.679 144.327 531.581 145.425C530.483 146.524 528.994 147.14 527.441 147.14Z" stroke="url(#paint46_linear_242_4)" stroke-width="1.294" stroke-linecap="round" stroke-linejoin="round"/>
<path d="M204.665 144.279C204.665 144.529 204.665 144.778 204.64 145.017C205.358 144.613 205.945 144.012 206.332 143.285C206.719 142.558 206.891 141.736 206.826 140.915C206.762 140.094 206.465 139.309 205.969 138.651C205.473 137.993 204.8 137.491 204.029 137.203H204.004C204.315 138.926 204.517 140.667 204.609 142.415V142.556C204.651 143.118 204.665 143.699 204.665 144.279Z" stroke="url(#paint47_linear_242_4)" stroke-width="1.294" stroke-linecap="round" stroke-linejoin="round"/>
<path d="M428.445 172.16H236.607C235.053 172.159 233.564 171.542 232.465 170.443C231.367 169.345 230.749 167.855 230.748 166.301C230.751 164.749 231.369 163.262 232.468 162.165C233.566 161.069 235.055 160.453 236.607 160.453H428.445C429.973 160.491 431.425 161.124 432.493 162.217C433.56 163.311 434.157 164.779 434.157 166.307C434.157 167.835 433.56 169.302 432.493 170.396C431.425 171.49 429.973 172.123 428.445 172.16Z" stroke="url(#paint48_linear_242_4)" stroke-width="1.294" stroke-linecap="round" stroke-linejoin="round"/>
<path d="M200.74 162.265C201.092 161.913 202.196 161.938 202.499 161.938C203.654 161.938 204.762 162.397 205.58 163.214C206.397 164.031 206.856 165.139 206.856 166.295C206.856 167.451 206.397 168.559 205.58 169.376C204.762 170.193 203.654 170.652 202.499 170.652C201.57 170.63 200.671 170.316 199.931 169.754C199.191 169.192 198.647 168.411 198.377 167.522" stroke="url(#paint49_linear_242_4)" stroke-width="1.294" stroke-linecap="round" stroke-linejoin="round"/>
<path d="M527.44 197.211H312.845C311.291 197.209 309.801 196.591 308.702 195.492C307.603 194.393 306.984 192.903 306.982 191.348C306.989 189.797 307.609 188.311 308.708 187.215C309.806 186.119 311.293 185.503 312.845 185.5H527.44C528.993 185.5 530.482 186.117 531.58 187.215C532.679 188.313 533.296 189.802 533.296 191.355C533.296 192.908 532.679 194.398 531.58 195.496C530.482 196.594 528.993 197.211 527.44 197.211Z" stroke="url(#paint50_linear_242_4)" stroke-width="1.294" stroke-linecap="round" stroke-linejoin="round"/>
<path d="M382.928 222.215H236.607C235.053 222.214 233.564 221.597 232.465 220.498C231.367 219.399 230.749 217.91 230.748 216.356C230.751 214.804 231.369 213.317 232.468 212.22C233.566 211.124 235.055 210.508 236.607 210.508H382.928C384.456 210.545 385.908 211.178 386.975 212.272C388.043 213.366 388.64 214.833 388.64 216.361C388.64 217.89 388.043 219.357 386.975 220.451C385.908 221.544 384.456 222.178 382.928 222.215Z" stroke="url(#paint51_linear_242_4)" stroke-width="1.294" stroke-linecap="round" stroke-linejoin="round"/>
<path d="M206.851 216.345C206.85 217.206 206.593 218.047 206.114 218.762C205.635 219.477 204.955 220.034 204.159 220.362C203.364 220.691 202.489 220.776 201.645 220.608C200.801 220.439 200.026 220.024 199.417 219.415C198.809 218.807 198.395 218.031 198.227 217.187C198.059 216.343 198.145 215.468 198.475 214.673C198.804 213.878 199.361 213.198 200.077 212.719C200.792 212.241 201.633 211.985 202.494 211.984C203.067 211.983 203.634 212.096 204.163 212.315C204.692 212.533 205.173 212.855 205.578 213.26C205.983 213.665 206.304 214.146 206.522 214.676C206.741 215.205 206.852 215.772 206.851 216.345Z" stroke="url(#paint52_linear_242_4)" stroke-width="1.294" stroke-linecap="round" stroke-linejoin="round"/>
<path d="M527.44 247.24H494.907C493.353 247.239 491.863 246.622 490.765 245.523C489.666 244.425 489.049 242.935 489.048 241.381C489.053 239.83 489.672 238.343 490.77 237.247C491.868 236.151 493.355 235.535 494.907 235.533H527.44C528.221 235.514 528.998 235.651 529.725 235.937C530.452 236.222 531.114 236.65 531.673 237.196C532.232 237.741 532.676 238.393 532.979 239.113C533.283 239.832 533.439 240.606 533.439 241.387C533.439 242.168 533.283 242.941 532.979 243.66C532.676 244.38 532.232 245.032 531.673 245.577C531.114 246.123 530.452 246.551 529.725 246.837C528.998 247.122 528.221 247.259 527.44 247.24Z" stroke="url(#paint53_linear_242_4)" stroke-width="1.294" stroke-linecap="round" stroke-linejoin="round"/>
<path d="M206.851 241.373C206.85 242.234 206.594 243.075 206.116 243.79C205.637 244.506 204.957 245.063 204.162 245.392C203.366 245.721 202.491 245.807 201.647 245.639C200.803 245.471 200.027 245.057 199.419 244.448C198.81 243.839 198.395 243.064 198.227 242.22C198.059 241.375 198.145 240.5 198.474 239.705C198.803 238.909 199.361 238.23 200.076 237.751C200.792 237.272 201.633 237.016 202.494 237.016C203.066 237.015 203.633 237.127 204.162 237.345C204.691 237.564 205.172 237.885 205.577 238.29C205.982 238.695 206.303 239.175 206.521 239.704C206.74 240.233 206.852 240.8 206.851 241.373Z" stroke="url(#paint54_linear_242_4)" stroke-width="1.294" stroke-linecap="round" stroke-linejoin="round"/>
<path d="M314.654 272.281H236.607C235.053 272.279 233.563 271.661 232.465 270.562C231.366 269.463 230.749 267.973 230.748 266.419C230.753 264.867 231.372 263.381 232.47 262.285C233.568 261.189 235.055 260.572 236.607 260.57H314.654C316.207 260.57 317.696 261.187 318.794 262.285C319.893 263.383 320.509 264.873 320.509 266.426C320.509 267.979 319.893 269.468 318.794 270.566C317.696 271.664 316.207 272.281 314.654 272.281Z" stroke="url(#paint55_linear_242_4)" stroke-width="1.294" stroke-linecap="round" stroke-linejoin="round"/>
<path d="M206.851 266.412C206.85 267.273 206.594 268.114 206.116 268.829C205.637 269.545 204.957 270.102 204.162 270.431C203.366 270.76 202.491 270.846 201.647 270.678C200.803 270.51 200.027 270.096 199.419 269.487C198.81 268.878 198.395 268.103 198.227 267.259C198.059 266.414 198.145 265.539 198.474 264.744C198.803 263.949 199.361 263.269 200.076 262.79C200.792 262.311 201.633 262.055 202.494 262.055C203.066 262.054 203.633 262.167 204.162 262.385C204.691 262.604 205.171 262.925 205.576 263.33C205.981 263.735 206.301 264.215 206.52 264.744C206.739 265.273 206.851 265.84 206.851 266.412Z" stroke="url(#paint56_linear_242_4)" stroke-width="1.294" stroke-linecap="round" stroke-linejoin="round"/>
<path d="M527.903 85.3843L531.135 78.7411C529.702 76.8741 528.409 74.9041 527.266 72.8471C525.731 70.0925 524.503 67.1771 523.605 64.1537C522.493 60.4813 521.917 56.6671 521.896 52.8298V52.4992C521.895 49.7553 522.17 47.0182 522.719 44.3298C523.408 40.978 524.502 37.7222 525.976 34.6341C535.306 14.9966 559.575 1 588.046 1C624.571 1 654.193 24.0523 654.193 52.4992C654.193 80.9461 624.571 103.991 588.046 103.991C582.256 104.001 576.48 103.402 570.814 102.205C566.27 101.274 561.821 99.9248 557.525 98.1747C554.372 96.9047 551.316 95.4061 548.381 93.6908L517.434 106.893L527.924 85.3808" fill="#010412"/>
<path d="M602.017 71.4679L632.933 53.6274L602.017 35.7729" fill="#010412"/>
<path d="M570.282 35.7729L539.367 53.6274L570.282 71.4679" fill="#010412"/>
<path d="M594.952 27.7091L576.471 79.2892Z" fill="#010412"/>
<path d="M527.903 85.3843L531.135 78.7411C529.702 76.8741 528.409 74.9041 527.266 72.8471C525.731 70.0925 524.503 67.1771 523.605 64.1537C522.493 60.4813 521.917 56.6671 521.896 52.8298V52.4992C521.895 49.7553 522.17 47.0182 522.719 44.3298C523.408 40.978 524.502 37.7222 525.976 34.6341C535.306 14.9966 559.575 1 588.046 1C624.571 1 654.193 24.0523 654.193 52.4992C654.193 80.9461 624.571 103.991 588.046 103.991C582.256 104.001 576.48 103.402 570.814 102.205C566.27 101.274 561.821 99.9248 557.525 98.1747C554.372 96.9047 551.316 95.4061 548.381 93.6908L517.434 106.893L527.924 85.3808M602.017 71.4679L632.933 53.6274L602.017 35.7729M570.282 35.7729L539.367 53.6274L570.282 71.4679M594.952 27.7091L576.471 79.2892" stroke="url(#paint57_linear_242_4)" stroke-width="1.294" stroke-linecap="round" stroke-linejoin="round"/>
<path d="M567.584 322.414L584.472 271.139L601.37 322.414" fill="#010412"/>
<path d="M572.591 307.214H596.361Z" fill="#010412"/>
<path d="M627.095 313.558C623.831 320.556 617.719 324.618 613.464 322.638C609.209 320.658 608.414 313.364 611.677 306.355C614.941 299.347 621.043 295.295 625.308 297.275C626.62 298.081 627.674 299.244 628.348 300.628C629.021 302.013 629.286 303.56 629.11 305.089C629.057 308.024 628.369 310.913 627.095 313.558Z" fill="#010412"/>
<path d="M629.098 304.988V305.09C629.724 311.248 625.958 327.464 635.78 320.863" fill="#010412"/>
<path d="M537.59 251.332L545.931 274.944C543.343 278.306 541.229 282.009 539.651 285.948C537.699 290.794 536.693 295.969 536.689 301.193C536.76 310.267 539.716 319.083 545.13 326.366C556.45 342.068 578.06 352.685 602.853 352.685C639.382 352.685 669 329.629 669 301.193C669 272.756 639.382 249.704 602.853 249.704C591.851 249.648 580.952 251.835 570.823 256.133C568.193 257.264 565.635 258.555 563.164 260.001L537.59 251.332Z" fill="#010412"/>
<path d="M567.584 322.414L584.472 271.139L601.37 322.414M572.591 307.214H596.361M629.098 304.988V305.09C629.724 311.248 625.958 327.464 635.78 320.863M627.095 313.558C623.831 320.556 617.719 324.618 613.464 322.638C609.209 320.658 608.414 313.364 611.677 306.355C614.941 299.347 621.043 295.295 625.308 297.275C626.62 298.081 627.674 299.244 628.348 300.628C629.021 302.013 629.286 303.56 629.11 305.089C629.057 308.024 628.369 310.913 627.095 313.558ZM537.59 251.332L545.931 274.944C543.343 278.306 541.229 282.009 539.651 285.948C537.699 290.794 536.693 295.969 536.689 301.193C536.76 310.267 539.716 319.083 545.13 326.366C556.45 342.068 578.06 352.685 602.853 352.685C639.382 352.685 669 329.629 669 301.193C669 272.756 639.382 249.704 602.853 249.704C591.851 249.648 580.952 251.835 570.823 256.133C568.193 257.264 565.635 258.555 563.164 260.001L537.59 251.332Z" stroke="url(#paint58_linear_242_4)" stroke-width="1.294" stroke-linecap="round" stroke-linejoin="round"/>
<path d="M124.295 144.009H123.465C119.241 143.793 115.267 141.935 112.393 138.832C109.518 135.728 107.97 131.624 108.078 127.395C108.187 123.166 109.943 119.147 112.972 116.195C116.002 113.242 120.065 111.59 124.295 111.591M101.264 143.997H124.296H123.888C119.635 144.122 115.6 145.912 112.655 148.983C109.71 152.054 108.089 156.159 108.143 160.414C108.196 164.668 109.92 168.732 112.941 171.727C115.963 174.723 120.041 176.412 124.296 176.429M153.415 144.009H154.245C158.469 143.793 162.443 141.935 165.317 138.832C168.192 135.728 169.74 131.624 169.631 127.395C169.523 123.166 167.767 119.147 164.738 116.195C161.708 113.242 157.645 111.59 153.415 111.591M176.446 143.997H153.415H153.837C158.091 144.122 162.125 145.914 165.071 148.986C168.016 152.058 169.635 156.165 169.58 160.421C169.524 164.676 167.799 168.74 164.775 171.734C161.751 174.729 157.671 176.415 153.415 176.429M204.621 142.417C204.541 140.673 204.347 138.937 204.041 137.219C201.537 125.003 194.441 114.213 184.217 107.073C180.094 104.019 175.635 101.445 170.927 99.4034C160.693 94.988 149.655 92.7416 138.51 92.806C119.787 92.407 101.598 99.0599 87.5519 111.445C82.8872 115.572 79.1284 120.62 76.5124 126.272C73.8963 131.924 72.48 138.057 72.3525 144.284C72.3525 168.624 94.0509 189.028 123.226 194.398C128.269 195.316 133.384 195.776 138.51 195.773C144.57 195.782 150.613 195.133 156.533 193.839C161.472 192.758 166.293 191.196 170.927 189.175M170.928 189.157C173.424 188.083 175.852 186.855 178.197 185.483L184.527 188.475L215.475 203.042L195.429 170.533C196.27 169.429 197.068 168.303 197.796 167.139C198.824 165.543 199.747 163.882 200.56 162.166C203.149 156.814 204.545 150.963 204.654 145.019V144.28C204.654 143.7 204.654 143.12 204.608 142.54" stroke="url(#paint59_linear_242_4)" stroke-width="1.294" stroke-linecap="round" stroke-linejoin="round"/>
<path d="M38.3311 376.57H182.34" stroke="url(#paint60_linear_242_4)" stroke-width="1.294" stroke-linecap="round" stroke-linejoin="round"/>
<defs>
<linearGradient id="paint0_linear_242_4" x1="333.862" y1="340.865" x2="415.895" y2="340.06" gradientUnits="userSpaceOnUse">
<stop stop-color="#32F6F4"/>
<stop offset="1" stop-color="#11508B"/>
</linearGradient>
<linearGradient id="paint1_linear_242_4" x1="322.479" y1="351.452" x2="420.989" y2="350.781" gradientUnits="userSpaceOnUse">
<stop stop-color="#32F6F4"/>
<stop offset="1" stop-color="#11508B"/>
</linearGradient>
<linearGradient id="paint2_linear_242_4" x1="332.165" y1="377.07" x2="407.823" y2="355.601" gradientUnits="userSpaceOnUse">
<stop stop-color="#32F6F4"/>
<stop offset="1" stop-color="#11508B"/>
</linearGradient>
<linearGradient id="paint3_linear_242_4" x1="297.621" y1="377.07" x2="414.062" y2="317.822" gradientUnits="userSpaceOnUse">
<stop stop-color="#32F6F4"/>
<stop offset="1" stop-color="#11508B"/>
</linearGradient>
<linearGradient id="paint4_linear_242_4" x1="43.666" y1="204.2" x2="93.7247" y2="204.083" gradientUnits="userSpaceOnUse">
<stop stop-color="#32F6F4"/>
<stop offset="1" stop-color="#11508B"/>
</linearGradient>
<linearGradient id="paint5_linear_242_4" x1="184.218" y1="58.6024" x2="532.809" y2="43.7847" gradientUnits="userSpaceOnUse">
<stop stop-color="#32F6F4"/>
<stop offset="1" stop-color="#11508B"/>
</linearGradient>
<linearGradient id="paint6_linear_242_4" x1="184.218" y1="58.6024" x2="532.809" y2="43.7847" gradientUnits="userSpaceOnUse">
<stop stop-color="#32F6F4"/>
<stop offset="1" stop-color="#11508B"/>
</linearGradient>
<linearGradient id="paint7_linear_242_4" x1="318.363" y1="141.262" x2="536.229" y2="127.133" gradientUnits="userSpaceOnUse">
<stop stop-color="#32F6F4"/>
<stop offset="1" stop-color="#11508B"/>
</linearGradient>
<linearGradient id="paint8_linear_242_4" x1="306.982" y1="191.316" x2="536.28" y2="175.659" gradientUnits="userSpaceOnUse">
<stop stop-color="#32F6F4"/>
<stop offset="1" stop-color="#11508B"/>
</linearGradient>
<linearGradient id="paint9_linear_242_4" x1="489.048" y1="241.387" x2="534.226" y2="240.782" gradientUnits="userSpaceOnUse">
<stop stop-color="#32F6F4"/>
<stop offset="1" stop-color="#11508B"/>
</linearGradient>
<linearGradient id="paint10_linear_242_4" x1="341.129" y1="91.1913" x2="530.639" y2="80.5123" gradientUnits="userSpaceOnUse">
<stop stop-color="#32F6F4"/>
<stop offset="1" stop-color="#11508B"/>
</linearGradient>
<linearGradient id="paint11_linear_242_4" x1="230.748" y1="166.307" x2="437.023" y2="153.644" gradientUnits="userSpaceOnUse">
<stop stop-color="#32F6F4"/>
<stop offset="1" stop-color="#11508B"/>
</linearGradient>
<linearGradient id="paint12_linear_242_4" x1="333.862" y1="340.865" x2="415.895" y2="340.06" gradientUnits="userSpaceOnUse">
<stop stop-color="#32F6F4"/>
<stop offset="1" stop-color="#11508B"/>
</linearGradient>
<linearGradient id="paint13_linear_242_4" x1="230.748" y1="216.361" x2="391.104" y2="208.72" gradientUnits="userSpaceOnUse">
<stop stop-color="#32F6F4"/>
<stop offset="1" stop-color="#11508B"/>
</linearGradient>
<linearGradient id="paint14_linear_242_4" x1="230.606" y1="116.238" x2="368.366" y2="110.604" gradientUnits="userSpaceOnUse">
<stop stop-color="#32F6F4"/>
<stop offset="1" stop-color="#11508B"/>
</linearGradient>
<linearGradient id="paint15_linear_242_4" x1="230.748" y1="266.426" x2="322.05" y2="263.953" gradientUnits="userSpaceOnUse">
<stop stop-color="#32F6F4"/>
<stop offset="1" stop-color="#11508B"/>
</linearGradient>
<linearGradient id="paint16_linear_242_4" x1="204.041" y1="141.11" x2="206.903" y2="141.107" gradientUnits="userSpaceOnUse">
<stop stop-color="#32F6F4"/>
<stop offset="1" stop-color="#11508B"/>
</linearGradient>
<linearGradient id="paint17_linear_242_4" x1="198.146" y1="91.1811" x2="207.023" y2="91.1497" gradientUnits="userSpaceOnUse">
<stop stop-color="#32F6F4"/>
<stop offset="1" stop-color="#11508B"/>
</linearGradient>
<linearGradient id="paint18_linear_242_4" x1="198.146" y1="116.224" x2="207.016" y2="116.193" gradientUnits="userSpaceOnUse">
<stop stop-color="#32F6F4"/>
<stop offset="1" stop-color="#11508B"/>
</linearGradient>
<linearGradient id="paint19_linear_242_4" x1="197.775" y1="166.295" x2="207.015" y2="166.261" gradientUnits="userSpaceOnUse">
<stop stop-color="#32F6F4"/>
<stop offset="1" stop-color="#11508B"/>
</linearGradient>
<linearGradient id="paint20_linear_242_4" x1="198.146" y1="216.345" x2="207.023" y2="216.314" gradientUnits="userSpaceOnUse">
<stop stop-color="#32F6F4"/>
<stop offset="1" stop-color="#11508B"/>
</linearGradient>
<linearGradient id="paint21_linear_242_4" x1="198.146" y1="241.389" x2="207.016" y2="241.357" gradientUnits="userSpaceOnUse">
<stop stop-color="#32F6F4"/>
<stop offset="1" stop-color="#11508B"/>
</linearGradient>
<linearGradient id="paint22_linear_242_4" x1="198.146" y1="266.415" x2="207.023" y2="266.384" gradientUnits="userSpaceOnUse">
<stop stop-color="#32F6F4"/>
<stop offset="1" stop-color="#11508B"/>
</linearGradient>
<linearGradient id="paint23_linear_242_4" x1="123.229" y1="214.711" x2="157.257" y2="214.615" gradientUnits="userSpaceOnUse">
<stop stop-color="#32F6F4"/>
<stop offset="1" stop-color="#11508B"/>
</linearGradient>
<linearGradient id="paint24_linear_242_4" x1="108.217" y1="262.903" x2="161.766" y2="262.759" gradientUnits="userSpaceOnUse">
<stop stop-color="#32F6F4"/>
<stop offset="1" stop-color="#11508B"/>
</linearGradient>
<linearGradient id="paint25_linear_242_4" x1="121.143" y1="284.298" x2="129.945" y2="284.287" gradientUnits="userSpaceOnUse">
<stop stop-color="#32F6F4"/>
<stop offset="1" stop-color="#11508B"/>
</linearGradient>
<linearGradient id="paint26_linear_242_4" x1="58.4551" y1="173.494" x2="128.222" y2="173.397" gradientUnits="userSpaceOnUse">
<stop stop-color="#32F6F4"/>
<stop offset="1" stop-color="#11508B"/>
</linearGradient>
<linearGradient id="paint27_linear_242_4" x1="103.232" y1="277.592" x2="110.06" y2="277.588" gradientUnits="userSpaceOnUse">
<stop stop-color="#32F6F4"/>
<stop offset="1" stop-color="#11508B"/>
</linearGradient>
<linearGradient id="paint28_linear_242_4" x1="0.811523" y1="236.668" x2="95.7882" y2="236.41" gradientUnits="userSpaceOnUse">
<stop stop-color="#32F6F4"/>
<stop offset="1" stop-color="#11508B"/>
</linearGradient>
<linearGradient id="paint29_linear_242_4" x1="43.666" y1="204.177" x2="94.9525" y2="204.054" gradientUnits="userSpaceOnUse">
<stop stop-color="#32F6F4"/>
<stop offset="1" stop-color="#11508B"/>
</linearGradient>
<linearGradient id="paint30_linear_242_4" x1="170.928" y1="67.0193" x2="532.209" y2="60.0203" gradientUnits="userSpaceOnUse">
<stop stop-color="#32F6F4"/>
<stop offset="1" stop-color="#11508B"/>
</linearGradient>
<linearGradient id="paint31_linear_242_4" x1="170.928" y1="257.763" x2="336.788" y2="257.067" gradientUnits="userSpaceOnUse">
<stop stop-color="#32F6F4"/>
<stop offset="1" stop-color="#11508B"/>
</linearGradient>
<linearGradient id="paint32_linear_242_4" x1="193.783" y1="326.961" x2="334.469" y2="152.201" gradientUnits="userSpaceOnUse">
<stop stop-color="#32F6F4"/>
<stop offset="1" stop-color="#11508B"/>
</linearGradient>
<linearGradient id="paint33_linear_242_4" x1="570.814" y1="179.166" x2="571.832" y2="179.166" gradientUnits="userSpaceOnUse">
<stop stop-color="#32F6F4"/>
<stop offset="1" stop-color="#11508B"/>
</linearGradient>
<linearGradient id="paint34_linear_242_4" x1="184.218" y1="237.554" x2="545.957" y2="232.86" gradientUnits="userSpaceOnUse">
<stop stop-color="#32F6F4"/>
<stop offset="1" stop-color="#11508B"/>
</linearGradient>
<linearGradient id="paint35_linear_242_4" x1="557.526" y1="177.876" x2="558.544" y2="177.876" gradientUnits="userSpaceOnUse">
<stop stop-color="#32F6F4"/>
<stop offset="1" stop-color="#11508B"/>
</linearGradient>
<linearGradient id="paint36_linear_242_4" x1="359.784" y1="306.151" x2="382.358" y2="306.071" gradientUnits="userSpaceOnUse">
<stop stop-color="#32F6F4"/>
<stop offset="1" stop-color="#11508B"/>
</linearGradient>
<linearGradient id="paint37_linear_242_4" x1="41.5244" y1="377.07" x2="59.3189" y2="375.967" gradientUnits="userSpaceOnUse">
<stop stop-color="#32F6F4"/>
<stop offset="1" stop-color="#11508B"/>
</linearGradient>
<linearGradient id="paint38_linear_242_4" x1="64.2861" y1="377.07" x2="88.277" y2="375.058" gradientUnits="userSpaceOnUse">
<stop stop-color="#32F6F4"/>
<stop offset="1" stop-color="#11508B"/>
</linearGradient>
<linearGradient id="paint39_linear_242_4" x1="185.142" y1="58.5962" x2="542.153" y2="43.2067" gradientUnits="userSpaceOnUse">
<stop stop-color="#32F6F4"/>
<stop offset="1" stop-color="#11508B"/>
</linearGradient>
<linearGradient id="paint40_linear_242_4" x1="64.2861" y1="337.011" x2="152.912" y2="336.667" gradientUnits="userSpaceOnUse">
<stop stop-color="#32F6F4"/>
<stop offset="1" stop-color="#11508B"/>
</linearGradient>
<linearGradient id="paint41_linear_242_4" x1="221.713" y1="177.189" x2="222.731" y2="177.189" gradientUnits="userSpaceOnUse">
<stop stop-color="#32F6F4"/>
<stop offset="1" stop-color="#11508B"/>
</linearGradient>
<linearGradient id="paint42_linear_242_4" x1="341.129" y1="91.1913" x2="530.65" y2="80.5111" gradientUnits="userSpaceOnUse">
<stop stop-color="#32F6F4"/>
<stop offset="1" stop-color="#11508B"/>
</linearGradient>
<linearGradient id="paint43_linear_242_4" x1="198.144" y1="91.174" x2="207.007" y2="91.1427" gradientUnits="userSpaceOnUse">
<stop stop-color="#32F6F4"/>
<stop offset="1" stop-color="#11508B"/>
</linearGradient>
<linearGradient id="paint44_linear_242_4" x1="230.606" y1="116.238" x2="368.366" y2="110.604" gradientUnits="userSpaceOnUse">
<stop stop-color="#32F6F4"/>
<stop offset="1" stop-color="#11508B"/>
</linearGradient>
<linearGradient id="paint45_linear_242_4" x1="198.144" y1="116.221" x2="207.007" y2="116.19" gradientUnits="userSpaceOnUse">
<stop stop-color="#32F6F4"/>
<stop offset="1" stop-color="#11508B"/>
</linearGradient>
<linearGradient id="paint46_linear_242_4" x1="318.363" y1="141.285" x2="536.229" y2="127.157" gradientUnits="userSpaceOnUse">
<stop stop-color="#32F6F4"/>
<stop offset="1" stop-color="#11508B"/>
</linearGradient>
<linearGradient id="paint47_linear_242_4" x1="204.004" y1="141.11" x2="206.89" y2="141.107" gradientUnits="userSpaceOnUse">
<stop stop-color="#32F6F4"/>
<stop offset="1" stop-color="#11508B"/>
</linearGradient>
<linearGradient id="paint48_linear_242_4" x1="230.748" y1="166.307" x2="437.023" y2="153.644" gradientUnits="userSpaceOnUse">
<stop stop-color="#32F6F4"/>
<stop offset="1" stop-color="#11508B"/>
</linearGradient>
<linearGradient id="paint49_linear_242_4" x1="198.377" y1="166.295" x2="207.008" y2="166.265" gradientUnits="userSpaceOnUse">
<stop stop-color="#32F6F4"/>
<stop offset="1" stop-color="#11508B"/>
</linearGradient>
<linearGradient id="paint50_linear_242_4" x1="306.982" y1="191.355" x2="536.28" y2="175.698" gradientUnits="userSpaceOnUse">
<stop stop-color="#32F6F4"/>
<stop offset="1" stop-color="#11508B"/>
</linearGradient>
<linearGradient id="paint51_linear_242_4" x1="230.748" y1="216.361" x2="391.104" y2="208.72" gradientUnits="userSpaceOnUse">
<stop stop-color="#32F6F4"/>
<stop offset="1" stop-color="#11508B"/>
</linearGradient>
<linearGradient id="paint52_linear_242_4" x1="198.144" y1="216.338" x2="207.007" y2="216.307" gradientUnits="userSpaceOnUse">
<stop stop-color="#32F6F4"/>
<stop offset="1" stop-color="#11508B"/>
</linearGradient>
<linearGradient id="paint53_linear_242_4" x1="489.048" y1="241.387" x2="534.226" y2="240.782" gradientUnits="userSpaceOnUse">
<stop stop-color="#32F6F4"/>
<stop offset="1" stop-color="#11508B"/>
</linearGradient>
<linearGradient id="paint54_linear_242_4" x1="198.144" y1="241.369" x2="207.007" y2="241.338" gradientUnits="userSpaceOnUse">
<stop stop-color="#32F6F4"/>
<stop offset="1" stop-color="#11508B"/>
</linearGradient>
<linearGradient id="paint55_linear_242_4" x1="230.748" y1="266.426" x2="322.05" y2="263.953" gradientUnits="userSpaceOnUse">
<stop stop-color="#32F6F4"/>
<stop offset="1" stop-color="#11508B"/>
</linearGradient>
<linearGradient id="paint56_linear_242_4" x1="198.144" y1="266.408" x2="207.007" y2="266.377" gradientUnits="userSpaceOnUse">
<stop stop-color="#32F6F4"/>
<stop offset="1" stop-color="#11508B"/>
</linearGradient>
<linearGradient id="paint57_linear_242_4" x1="517.434" y1="53.9464" x2="656.639" y2="53.3111" gradientUnits="userSpaceOnUse">
<stop stop-color="#32F6F4"/>
<stop offset="1" stop-color="#11508B"/>
</linearGradient>
<linearGradient id="paint58_linear_242_4" x1="536.689" y1="301.194" x2="671.367" y2="300.583" gradientUnits="userSpaceOnUse">
<stop stop-color="#32F6F4"/>
<stop offset="1" stop-color="#11508B"/>
</linearGradient>
<linearGradient id="paint59_linear_242_4" x1="72.3525" y1="147.915" x2="218.035" y2="147.247" gradientUnits="userSpaceOnUse">
<stop stop-color="#32F6F4"/>
<stop offset="1" stop-color="#11508B"/>
</linearGradient>
<linearGradient id="paint60_linear_242_4" x1="38.3311" y1="377.07" x2="154.772" y2="317.822" gradientUnits="userSpaceOnUse">
<stop stop-color="#32F6F4"/>
<stop offset="1" stop-color="#11508B"/>
</linearGradient>
</defs>
</svg>
