<svg width="283" height="161" viewBox="0 0 283 161" fill="none" xmlns="http://www.w3.org/2000/svg">
<path d="M140.466 138.219L174.458 150.461" stroke="url(#paint0_linear_240_165)" stroke-width="1.294" stroke-linecap="round" stroke-linejoin="round"/>
<path d="M174.457 150.461L176.483 159.391H173.622H139.75H135.665L140.465 138.219L174.457 150.461Z" fill="#E8E9EB"/>
<path d="M135.665 159.391L140.465 138.219H171.683L174.457 150.461L176.483 159.391" stroke="url(#paint1_linear_240_165)" stroke-width="1.294" stroke-linecap="round" stroke-linejoin="round"/>
<path d="M173.622 159.398H139.75" stroke="url(#paint2_linear_240_165)" stroke-width="1.294" stroke-linecap="round" stroke-linejoin="round"/>
<path d="M125.181 159.398H185.917" stroke="url(#paint3_linear_240_165)" stroke-width="1.294" stroke-linecap="round" stroke-linejoin="round"/>
<path d="M31.2228 85.4733L31.1842 85.4066C30.6666 84.5329 24.98 75.122 18.0742 71.0625C18.0742 71.0625 19.9594 83.4013 25.9916 88.459C26.2406 88.6701 26.5005 88.8682 26.7702 89.0523C33.4209 93.6502 37.961 96.6685 38.8153 102.336" stroke="url(#paint4_linear_240_165)" stroke-width="1.294" stroke-linecap="round" stroke-linejoin="round"/>
<path d="M222.046 31.3085H77.3525V25.5923C77.3529 23.9186 78.018 22.3136 79.2014 21.1301C80.3849 19.9467 81.9899 19.2816 83.6636 19.2812H220.118C219.886 20.415 219.768 21.5694 219.768 22.7267V22.8662H99.9788V27.6747H220.379L220.495 27.6421C220.876 28.9175 221.396 30.1471 222.046 31.3085Z" fill="url(#paint5_linear_240_165)"/>
<path d="M222.046 31.3085H77.3525V25.5923C77.3529 23.9186 78.018 22.3136 79.2014 21.1301C80.3849 19.9467 81.9899 19.2816 83.6636 19.2812H220.118C219.886 20.415 219.768 21.5694 219.768 22.7267V22.8662H99.9788V27.6747H220.379L220.495 27.6421C220.876 28.9175 221.396 30.1471 222.046 31.3085Z" stroke="url(#paint6_linear_240_165)"/>
<path d="M156.072 125.023C156.997 125.023 157.901 125.297 158.67 125.811C159.439 126.324 160.038 127.054 160.392 127.909C160.746 128.763 160.839 129.703 160.659 130.61C160.478 131.517 160.033 132.35 159.379 133.004C158.725 133.658 157.892 134.103 156.985 134.284C156.078 134.464 155.138 134.371 154.284 134.017C153.429 133.663 152.699 133.064 152.186 132.295C151.672 131.526 151.398 130.622 151.398 129.697C151.399 128.458 151.892 127.269 152.768 126.393C153.644 125.517 154.833 125.024 156.072 125.023Z" fill="#E8E9EB"/>
<path d="M240.403 54.7546V108.595C239.293 109.072 238.214 109.617 237.172 110.226L234.735 109.402L234.798 109.213V44.5234L240.403 54.7546Z" fill="#E8E9EB"/>
<path d="M240.402 43.6886V54.7548L234.797 44.5207V41.9844C236.609 42.722 238.486 43.2924 240.402 43.6886Z" fill="#E8E9EB"/>
<path d="M229.566 138.218H219.344L224.118 121.172H227.258C226.435 123.216 226.011 125.398 226.009 127.602C226.038 131.428 227.284 135.146 229.566 138.218Z" fill="#E8E9EB"/>
<path d="M224.122 121.168L219.348 138.215H80.2607C78.0027 138.215 75.8372 137.318 74.2406 135.721C72.644 134.125 71.7471 131.959 71.7471 129.701V89.0422L77.3521 81.8828V114.857C77.3525 116.531 78.0175 118.136 79.201 119.32C80.3844 120.503 81.9895 121.168 83.6631 121.168H224.122ZM160.756 129.691C160.756 128.766 160.482 127.862 159.968 127.093C159.455 126.323 158.725 125.724 157.87 125.37C157.016 125.015 156.076 124.922 155.169 125.102C154.261 125.282 153.428 125.727 152.774 126.381C152.119 127.035 151.674 127.868 151.493 128.775C151.312 129.682 151.404 130.622 151.757 131.477C152.111 132.331 152.71 133.062 153.479 133.576C154.247 134.091 155.151 134.365 156.076 134.366C157.316 134.366 158.505 133.873 159.381 132.996C160.258 132.12 160.751 130.931 160.751 129.691H160.756Z" fill="#E8E9EB"/>
<path d="M222.108 47.1336C222.438 47.1255 222.765 47.1834 223.072 47.3038C223.378 47.4243 223.658 47.6048 223.894 47.8349C224.129 48.0649 224.317 48.3398 224.445 48.6433C224.573 48.9469 224.638 49.2729 224.638 49.6023C224.638 49.9317 224.573 50.2578 224.445 50.5614C224.317 50.8649 224.129 51.1398 223.894 51.3698C223.658 51.5999 223.378 51.7804 223.072 51.9009C222.765 52.0213 222.438 52.0792 222.108 52.0711H165.195C164.706 52.0721 164.228 51.9279 163.822 51.6568C163.415 51.3857 163.098 51 162.911 50.5486C162.724 50.0972 162.676 49.6004 162.771 49.1213C162.867 48.6422 163.103 48.2022 163.449 47.8574C163.678 47.6268 163.949 47.4441 164.249 47.3198C164.549 47.1955 164.87 47.1322 165.195 47.1336H222.108Z" fill="#32F6F4"/>
<path d="M222.108 57.6875C222.763 57.6875 223.391 57.9477 223.854 58.4108C224.317 58.8739 224.578 59.5021 224.578 60.157C224.578 60.812 224.317 61.4401 223.854 61.9033C223.391 62.3664 222.763 62.6266 222.108 62.6266H136.4C135.744 62.6254 135.116 62.3645 134.653 61.901C134.19 61.4375 133.929 60.8093 133.929 60.1541C133.931 59.5 134.193 58.8735 134.656 58.4114C135.119 57.9493 135.746 57.6891 136.4 57.6875H222.108Z" fill="url(#paint7_linear_240_165)"/>
<path d="M222.108 68.2507C222.437 68.2427 222.765 68.3006 223.072 68.421C223.378 68.5414 223.658 68.722 223.893 68.952C224.129 69.1821 224.316 69.457 224.444 69.7605C224.572 70.0641 224.638 70.3901 224.638 70.7195C224.638 71.0489 224.572 71.375 224.444 71.6785C224.316 71.9821 224.129 72.257 223.893 72.487C223.658 72.7171 223.378 72.8976 223.072 73.0181C222.765 73.1385 222.437 73.1964 222.108 73.1883H193.99C193.334 73.1879 192.706 72.9275 192.243 72.4642C191.779 72.0008 191.519 71.3725 191.519 70.7173C191.52 70.0627 191.781 69.4354 192.244 68.9729C192.707 68.5105 193.335 68.2507 193.99 68.2507H222.108Z" fill="#32F6F4"/>
<path d="M222.108 78.7969C222.763 78.7969 223.391 79.0571 223.854 79.5202C224.317 79.9833 224.577 80.6114 224.577 81.2664C224.577 81.9214 224.317 82.5495 223.854 83.0126C223.391 83.4758 222.763 83.7359 222.108 83.7359H131.601C130.946 83.7352 130.317 83.4744 129.854 83.0109C129.39 82.5474 129.13 81.919 129.129 81.2634C129.132 80.6091 129.393 79.9824 129.856 79.5203C130.32 79.0581 130.947 78.798 131.601 78.7969H222.108Z" fill="url(#paint8_linear_240_165)"/>
<path d="M222.108 89.3594C222.752 89.3752 223.365 89.6422 223.815 90.1035C224.265 90.5647 224.517 91.1837 224.517 91.8282C224.517 92.4727 224.265 93.0916 223.815 93.5529C223.365 94.0141 222.752 94.2812 222.108 94.297H174.794C174.138 94.2966 173.51 94.0362 173.046 93.5729C172.583 93.1096 172.322 92.4813 172.321 91.8259C172.323 91.1713 172.585 90.5442 173.048 90.0819C173.511 89.6196 174.139 89.3598 174.794 89.3594H222.108Z" fill="#32F6F4"/>
<path d="M222.108 99.9148C222.437 99.9067 222.765 99.9646 223.072 100.085C223.378 100.205 223.658 100.386 223.893 100.616C224.129 100.846 224.316 101.121 224.444 101.425C224.572 101.728 224.638 102.054 224.638 102.384C224.638 102.713 224.572 103.039 224.444 103.343C224.316 103.646 224.129 103.921 223.893 104.151C223.658 104.381 223.378 104.562 223.072 104.682C222.765 104.803 222.437 104.86 222.108 104.852H208.387C207.732 104.852 207.104 104.592 206.64 104.128C206.177 103.665 205.916 103.037 205.916 102.381C205.918 101.727 206.179 101.1 206.642 100.638C207.105 100.176 207.733 99.9156 208.387 99.9148H222.108Z" fill="url(#paint9_linear_240_165)"/>
<path d="M222.108 110.477C222.763 110.477 223.391 110.737 223.854 111.2C224.317 111.663 224.577 112.291 224.577 112.946C224.577 113.601 224.317 114.229 223.854 114.692C223.391 115.155 222.763 115.416 222.108 115.416H145.999C145.343 115.415 144.715 115.154 144.251 114.691C143.788 114.227 143.527 113.599 143.526 112.943C143.529 112.289 143.791 111.662 144.254 111.2C144.717 110.738 145.345 110.478 145.999 110.477H222.108Z" fill="#32F6F4"/>
<path d="M222.3 36.5896L219.906 41.5094H146C145.345 41.5094 144.717 41.2492 144.254 40.7861C143.79 40.323 143.53 39.6948 143.53 39.0398C143.53 38.3849 143.79 37.7568 144.254 37.2936C144.717 36.8305 145.345 36.5703 146 36.5703H222.109C222.176 36.5703 222.233 36.5851 222.3 36.5896Z" fill="url(#paint10_linear_240_165)"/>
<path d="M80.2607 15.1875H221.494C220.871 16.4898 220.409 17.8629 220.118 19.2767H83.6631C81.9895 19.2771 80.3844 19.9421 79.201 21.1256C78.0175 22.309 77.3525 23.914 77.3521 25.5877V45.7341C75.6132 44.4456 73.7326 43.3603 71.7471 42.4992V23.7011C71.7471 21.4431 72.644 19.2777 74.2406 17.6811C75.8372 16.0845 78.0027 15.1875 80.2607 15.1875Z" fill="#E8E9EB"/>
<path d="M194.755 99.9141C195.4 99.9299 196.012 100.197 196.462 100.658C196.912 101.119 197.164 101.738 197.164 102.383C197.164 103.027 196.912 103.646 196.462 104.108C196.012 104.569 195.4 104.836 194.755 104.852H99.4476C98.7923 104.851 98.1641 104.591 97.7007 104.127C97.2374 103.664 96.977 103.036 96.9766 102.381C96.9785 101.726 97.2396 101.099 97.7027 100.637C98.1658 100.175 98.7932 99.9148 99.4476 99.9141H194.755Z" fill="#32F6F4"/>
<path d="M180.356 68.25C181.001 68.2658 181.613 68.5328 182.063 68.9941C182.513 69.4554 182.765 70.0743 182.765 70.7188C182.765 71.3633 182.513 71.9822 182.063 72.4435C181.613 72.9048 181.001 73.1718 180.356 73.1876H99.4476C98.7923 73.1872 98.1641 72.9267 97.7007 72.4634C97.2374 72.0001 96.977 71.3718 96.9766 70.7166C96.9777 70.062 97.2386 69.4346 97.7019 68.9722C98.1652 68.5097 98.793 68.25 99.4476 68.25H180.356Z" fill="url(#paint11_linear_240_165)"/>
<path d="M171.684 138.219L174.458 150.461L140.466 138.219H171.684Z" fill="url(#paint12_linear_240_165)"/>
<path d="M161.159 89.3594C161.803 89.3752 162.416 89.6422 162.866 90.1035C163.316 90.5647 163.568 91.1837 163.568 91.8282C163.568 92.4727 163.316 93.0916 162.866 93.5529C162.416 94.0141 161.803 94.2812 161.159 94.297H99.4476C98.7923 94.2966 98.1641 94.0361 97.7007 93.5728C97.2374 93.1095 96.977 92.4812 96.9766 91.8259C96.9777 91.1714 97.2386 90.544 97.7019 90.0815C98.1652 89.6191 98.793 89.3594 99.4476 89.3594H161.159Z" fill="url(#paint13_linear_240_165)"/>
<path d="M151.561 47.1336C151.89 47.1255 152.218 47.1834 152.524 47.3038C152.831 47.4243 153.11 47.6048 153.346 47.8349C153.582 48.0649 153.769 48.3398 153.897 48.6433C154.025 48.9469 154.091 49.2729 154.091 49.6023C154.091 49.9317 154.025 50.2578 153.897 50.5614C153.769 50.8649 153.582 51.1398 153.346 51.3698C153.11 51.5999 152.831 51.7804 152.524 51.9009C152.218 52.0213 151.89 52.0792 151.561 52.0711H99.447C99.1177 52.0792 98.7902 52.0213 98.4836 51.9009C98.177 51.7804 97.8976 51.5999 97.6618 51.3698C97.4261 51.1398 97.2387 50.8649 97.1108 50.5614C96.9829 50.2578 96.917 49.9317 96.917 49.6023C96.917 49.2729 96.9829 48.9469 97.1108 48.6433C97.2387 48.3398 97.4261 48.0649 97.6618 47.8349C97.8976 47.6048 98.177 47.4243 98.4836 47.3038C98.7902 47.1834 99.1177 47.1255 99.447 47.1336H151.561Z" fill="url(#paint14_linear_240_165)"/>
<path d="M132.364 36.5703C133.019 36.5703 133.647 36.8305 134.111 37.2936C134.574 37.7568 134.834 38.3849 134.834 39.0398C134.834 39.6948 134.574 40.323 134.111 40.7861C133.647 41.2492 133.019 41.5094 132.364 41.5094H99.4476C98.7923 41.509 98.1641 41.2485 97.7007 40.7852C97.2374 40.3219 96.977 39.6936 96.9766 39.0384C96.9781 38.3838 97.2391 37.7565 97.7022 37.2939C98.1654 36.8313 98.793 36.5711 99.4476 36.5703H132.364Z" fill="#32F6F4"/>
<path d="M132.364 110.477C133.019 110.477 133.647 110.737 134.111 111.2C134.574 111.663 134.834 112.291 134.834 112.946C134.834 113.601 134.574 114.229 134.111 114.692C133.647 115.155 133.019 115.416 132.364 115.416H99.4476C98.7922 115.415 98.1639 115.154 97.7007 114.69C97.2374 114.227 96.977 113.599 96.9766 112.943C96.9785 112.289 97.2396 111.662 97.7027 111.2C98.1658 110.737 98.7932 110.477 99.4476 110.477H132.364Z" fill="url(#paint15_linear_240_165)"/>
<path d="M122.766 57.6875C123.421 57.6875 124.05 57.9477 124.513 58.4108C124.976 58.8739 125.236 59.5021 125.236 60.157C125.236 60.812 124.976 61.4401 124.513 61.9033C124.05 62.3664 123.421 62.6266 122.766 62.6266H99.4476C98.7922 62.6258 98.1639 62.365 97.7007 61.9014C97.2374 61.4379 96.977 60.8094 96.9766 60.1541C96.9785 59.4997 97.2396 58.8728 97.7027 58.4105C98.1658 57.9483 98.7932 57.6883 99.4476 57.6875H122.766Z" fill="#32F6F4"/>
<path d="M117.967 78.7969C118.622 78.7969 119.25 79.0571 119.713 79.5202C120.176 79.9833 120.436 80.6114 120.436 81.2664C120.436 81.9214 120.176 82.5495 119.713 83.0126C119.25 83.4758 118.622 83.7359 117.967 83.7359H99.4476C98.7922 83.7352 98.1639 83.4744 97.7007 83.0108C97.2374 82.5473 96.977 81.9188 96.9766 81.2634C96.9785 80.6091 97.2396 79.9822 97.7027 79.5199C98.1658 79.0576 98.7932 78.7977 99.4476 78.7969H117.967Z" fill="#32F6F4"/>
<path d="M85.7129 58.4453C86.0383 58.5667 86.3222 58.7786 86.5313 59.0559C86.7404 59.3333 86.8658 59.6646 86.8929 60.0109C86.9201 60.3571 86.8477 60.7039 86.6843 61.0104C86.521 61.3169 86.2735 61.5704 85.971 61.741V61.4295C85.971 61.1848 85.971 60.9401 85.9517 60.6953V60.6375C85.9201 59.9023 85.8403 59.17 85.7129 58.4453Z" fill="url(#paint16_linear_240_165)"/>
<path d="M85.0598 37.1953C85.4238 37.1941 85.78 37.301 86.0832 37.5024C86.3864 37.7038 86.6231 37.9906 86.7632 38.3266C86.9033 38.6625 86.9406 39.0325 86.8703 39.3897C86.8 39.7468 86.6253 40.0751 86.3683 40.3329C86.1113 40.5907 85.7837 40.7664 85.4267 40.8379C85.0698 40.9093 84.6997 40.8733 84.3633 40.7342C84.0269 40.5952 83.7393 40.3595 83.5369 40.0569C83.3346 39.7543 83.2266 39.3985 83.2266 39.0345C83.2266 38.5477 83.4195 38.0808 83.7631 37.7361C84.1068 37.3914 84.5731 37.1969 85.0598 37.1953Z" fill="url(#paint17_linear_240_165)"/>
<path d="M85.0598 47.7578C85.4234 47.7569 85.7792 47.864 86.082 48.0654C86.3848 48.2667 86.621 48.5534 86.7608 48.8892C86.9005 49.2249 86.9376 49.5945 86.8672 49.9513C86.7968 50.308 86.6221 50.6359 86.3653 50.8934C86.1084 51.1508 85.781 51.3263 85.4244 51.3975C85.0678 51.4688 84.6981 51.4327 84.362 51.2937C84.026 51.1548 83.7387 50.9192 83.5366 50.6169C83.3345 50.3146 83.2266 49.9592 83.2266 49.5955C83.2266 49.1089 83.4196 48.6421 83.7632 48.2976C84.1069 47.9531 84.5732 47.759 85.0598 47.7578Z" fill="url(#paint18_linear_240_165)"/>
<path d="M85.0608 68.8753C85.5482 68.8753 86.0156 69.0689 86.3602 69.4135C86.7048 69.7582 86.8985 70.2256 86.8985 70.713C86.8985 71.2004 86.7048 71.6678 86.3602 72.0124C86.0156 72.3571 85.5482 72.5507 85.0608 72.5507C84.669 72.5414 84.2901 72.4089 83.978 72.1719C83.6659 71.9349 83.4365 71.6055 83.3225 71.2306L83.0703 71.0719C83.5035 70.3991 83.8929 69.6991 84.2361 68.9762L84.3177 69.0132C84.4705 68.8619 84.9347 68.8753 85.0608 68.8753Z" fill="url(#paint19_linear_240_165)"/>
<path d="M85.0598 89.9844C85.4238 89.9832 85.78 90.0901 86.0832 90.2915C86.3864 90.4928 86.6231 90.7797 86.7632 91.1156C86.9033 91.4516 86.9406 91.8215 86.8703 92.1787C86.8 92.5359 86.6253 92.8641 86.3683 93.1219C86.1113 93.3797 85.7837 93.5555 85.4267 93.6269C85.0698 93.6984 84.6997 93.6623 84.3633 93.5233C84.0269 93.3843 83.7393 93.1485 83.5369 92.846C83.3346 92.5434 83.2266 92.1876 83.2266 91.8236C83.2266 91.3368 83.4195 90.8699 83.7631 90.5252C84.1068 90.1804 84.5731 89.986 85.0598 89.9844Z" fill="url(#paint20_linear_240_165)"/>
<path d="M85.0598 100.547C85.4234 100.546 85.7792 100.653 86.082 100.854C86.3848 101.056 86.621 101.343 86.7608 101.678C86.9005 102.014 86.9376 102.384 86.8672 102.74C86.7968 103.097 86.6221 103.425 86.3653 103.682C86.1084 103.94 85.781 104.115 85.4244 104.187C85.0678 104.258 84.6981 104.222 84.362 104.083C84.026 103.944 83.7387 103.708 83.5366 103.406C83.3345 103.104 83.2266 102.748 83.2266 102.385C83.2266 101.898 83.4196 101.431 83.7632 101.087C84.1069 100.742 84.5732 100.548 85.0598 100.547Z" fill="url(#paint21_linear_240_165)"/>
<path d="M85.0598 111.102C85.4239 111.1 85.7801 111.207 86.0834 111.409C86.3866 111.61 86.6233 111.897 86.7633 112.233C86.9034 112.569 86.9406 112.939 86.8702 113.296C86.7998 113.654 86.6249 113.982 86.3678 114.24C86.1107 114.497 85.7828 114.673 85.4258 114.744C85.0688 114.816 84.6986 114.779 84.3623 114.64C84.0259 114.501 83.7384 114.265 83.5362 113.962C83.334 113.659 83.2263 113.303 83.2266 112.939C83.2266 112.453 83.4196 111.986 83.7632 111.641C84.1069 111.297 84.5732 111.103 85.0598 111.102Z" fill="url(#paint22_linear_240_165)"/>
<path d="M74.8124 78.8125L77.4822 80.0747L77.3472 80.3624V81.8946L71.7422 89.054V80.3624C72.7964 79.9093 73.8218 79.3916 74.8124 78.8125Z" fill="#E8E9EB"/>
<path d="M65.6773 82.3281L65.7292 82.5639C63.2493 88.1883 60.093 93.7695 56.3954 96.8754C55.195 97.883 54.0401 98.9034 52.9306 99.9367C52.5447 94.1423 52.1111 88.3512 51.6299 82.5639C53.7567 82.9511 55.9141 83.1452 58.0759 83.1439C60.6317 83.1477 63.1805 82.8742 65.6773 82.3281Z" fill="url(#paint23_linear_240_165)"/>
<path d="M48.289 110.446C49.2014 108.309 50.6079 106.419 52.393 104.931C52.6659 104.72 52.9388 104.508 53.2176 104.307C57.6216 101.209 62.4203 98.7149 67.4861 96.8906C67.3511 97.1784 62.197 108.096 57.252 112.267C56.1054 113.231 54.9574 114.096 53.8732 114.937C52.7729 115.774 51.7322 116.686 50.7585 117.667C49.6837 118.726 48.8335 119.99 48.2588 121.384C47.6841 122.779 47.3968 124.275 47.4139 125.783V126.028H45.2988V125.783C45.3257 123.197 45.5668 120.617 46.0197 118.071C46.4512 115.443 47.2137 112.881 48.289 110.446Z" fill="url(#paint24_linear_240_165)"/>
<path d="M54.3972 125.784V126.029H51.8253C51.7002 123.217 51.3405 120.42 50.75 117.668C51.7237 116.687 52.7644 115.774 53.8647 114.938C54.1955 120.505 54.3972 124.67 54.3972 125.784Z" fill="url(#paint25_linear_240_165)"/>
<path d="M53.2186 104.305C52.9397 104.511 52.6668 104.723 52.3939 104.933C50.6088 106.421 49.2023 108.311 48.2899 110.448C47.7188 109.558 47.0128 108.572 46.1971 107.473C44.3015 104.91 41.8454 101.791 39.3254 98.3243C36.2909 94.2602 33.5821 89.9629 31.2241 85.4724C31.2241 85.4724 31.2093 85.4486 31.1856 85.4056C30.8337 84.7072 30.4964 84.0016 30.174 83.2891C19.6774 60.1378 26.4779 37.0547 26.4779 37.0547C30.0764 40.337 33.4527 43.8551 36.5844 47.5854C34.6171 49.3259 33.0318 51.4552 31.9285 53.839C30.8251 56.2228 30.2278 58.8094 30.174 61.4356C30.174 71.7008 39.3254 80.3064 51.63 82.5712C52.0617 87.6052 52.5126 93.8109 52.9308 99.944C53.0272 101.406 53.1281 102.864 53.2186 104.305Z" fill="url(#paint26_linear_240_165)"/>
<path d="M44.9869 109.289C44.9869 109.289 45.7745 113.977 46.0251 118.062C45.5723 120.609 45.3312 123.188 45.3043 125.775V126.02H43.1967V125.775C43.9383 120.812 43.1774 115.226 43.1967 112.586C43.7311 111.454 44.3288 110.354 44.9869 109.289Z" fill="url(#paint27_linear_240_165)"/>
<path d="M46.1957 107.47C45.7744 108.063 45.371 108.675 44.9869 109.293C44.3288 110.358 43.7311 111.458 43.1966 112.59C41.2514 116.795 40.2288 121.367 40.1976 126V126.024H39.3522C39.3011 120.874 38.7692 115.74 37.7637 110.689C38.2487 108.149 38.5053 105.271 38.8153 102.332C38.9547 101.008 39.103 99.67 39.2854 98.35L39.324 98.3203C41.844 101.79 44.3001 104.904 46.1957 107.47Z" fill="#32F6F4"/>
<path d="M39.3523 126.025H35.6147C35.3699 113.307 26.7703 109.29 18.1603 102.034C9.26112 94.5426 0 74.7656 0 74.7656C9.2571 78.0996 18.005 82.7061 25.9916 88.4526C26.2405 88.6634 26.4999 88.8614 26.7688 89.0459C32.9983 93.9316 36.1709 102.763 37.7638 110.686C38.7697 115.738 39.3015 120.874 39.3523 126.025Z" fill="url(#paint28_linear_240_165)"/>
<path d="M39.3241 98.316L39.2855 98.3456C39.1031 99.6657 38.9548 101.004 38.8153 102.328C37.961 96.6607 33.4209 93.6468 26.7702 89.0445C26.5107 88.8427 26.2556 88.641 25.9916 88.4512C19.9594 83.3934 18.0742 71.0547 18.0742 71.0547C24.98 75.1142 30.6666 84.5251 31.1842 85.3987L31.2228 85.4655C33.5808 89.9555 36.2897 94.2523 39.3241 98.316Z" fill="url(#paint29_linear_240_165)"/>
<path d="M71.7471 42.4992V23.7011C71.7471 21.4431 72.644 19.2777 74.2406 17.6811C75.8372 16.0845 78.0027 15.1875 80.2607 15.1875H221.494" stroke="url(#paint30_linear_240_165)" stroke-width="1.294" stroke-linecap="round" stroke-linejoin="round"/>
<path d="M140.47 138.224H80.2607C78.0027 138.224 75.8372 137.327 74.2406 135.73C72.644 134.133 71.7471 131.968 71.7471 129.71V80.3594" stroke="url(#paint31_linear_240_165)" stroke-width="1.294" stroke-linecap="round" stroke-linejoin="round"/>
<path d="M229.565 138.218L219.508 138.221L81.3867 138.266" stroke="url(#paint32_linear_240_165)" stroke-width="1.294" stroke-linecap="round" stroke-linejoin="round"/>
<path d="M240.401 43.6875V54.7537V108.6" stroke="url(#paint33_linear_240_165)" stroke-width="1.294" stroke-linecap="round" stroke-linejoin="round"/>
<path d="M227.258 121.177H83.6636C81.9899 121.177 80.3849 120.512 79.2014 119.328C78.018 118.145 77.3529 116.54 77.3525 114.866V80.3594" stroke="url(#paint34_linear_240_165)" stroke-width="1.294" stroke-linecap="round" stroke-linejoin="round"/>
<path d="M234.797 41.9844V44.5177V109.209" stroke="url(#paint35_linear_240_165)" stroke-width="1.294" stroke-linecap="round" stroke-linejoin="round"/>
<path d="M160.752 129.697C160.752 130.622 160.478 131.526 159.965 132.296C159.452 133.065 158.722 133.665 157.867 134.019C157.013 134.374 156.073 134.467 155.166 134.287C154.258 134.107 153.425 133.663 152.77 133.009C152.116 132.355 151.67 131.522 151.489 130.615C151.308 129.708 151.4 128.768 151.753 127.913C152.107 127.058 152.706 126.328 153.474 125.813C154.243 125.299 155.147 125.024 156.072 125.023C157.312 125.023 158.502 125.515 159.379 126.392C160.257 127.268 160.75 128.457 160.752 129.697Z" stroke="url(#paint36_linear_240_165)" stroke-width="1.294" stroke-linecap="round" stroke-linejoin="round"/>
<path d="M17.1709 159.398H24.5721" stroke="url(#paint37_linear_240_165)" stroke-width="1.294" stroke-linecap="round" stroke-linejoin="round"/>
<path d="M26.7705 159.398H36.7806" stroke="url(#paint38_linear_240_165)" stroke-width="1.294" stroke-linecap="round" stroke-linejoin="round"/>
<path d="M77.7422 24.2188C77.7422 21.4573 79.9808 19.2188 82.7422 19.2188H220.939C223.7 19.2188 225.939 21.4573 225.939 24.2188V31.366H77.7422V24.2188Z" fill="url(#paint39_linear_240_165)"/>
<path d="M90.7129 28.2313L95.6223 25.3999L90.7129 22.5625" stroke="#010412" stroke-width="1.294" stroke-linecap="round" stroke-linejoin="round"/>
<path d="M87.5398 22.5625L82.626 25.3999L87.5398 28.2313" stroke="#010412" stroke-width="1.294" stroke-linecap="round" stroke-linejoin="round"/>
<path d="M53.4815 159.399H36.7806C34.1258 159.399 31.5797 158.344 29.7024 156.467C27.8251 154.59 26.7705 152.044 26.7705 149.389V126.031H63.4916V149.389C63.4913 152.043 62.4365 154.589 60.5593 156.467C58.6821 158.344 56.1362 159.398 53.4815 159.399Z" stroke="url(#paint40_linear_240_165)" stroke-width="1.294" stroke-linecap="round" stroke-linejoin="round"/>
<path d="M93.166 34.7266V115.889" stroke="url(#paint41_linear_240_165)" stroke-width="1.294" stroke-linecap="round" stroke-linejoin="round"/>
<path d="M222.305 36.5896C222.233 36.5896 222.176 36.5703 222.109 36.5703H146C145.345 36.5703 144.717 36.8305 144.254 37.2936C143.79 37.7568 143.53 38.3849 143.53 39.0398C143.53 39.6948 143.79 40.323 144.254 40.7861C144.717 41.2492 145.345 41.5094 146 41.5094H219.906L222.305 36.5896Z" stroke="url(#paint42_linear_240_165)" stroke-width="1.294" stroke-linecap="round" stroke-linejoin="round"/>
<path d="M86.898 39.0345C86.8974 39.3975 86.7893 39.7521 86.5872 40.0537C86.3851 40.3552 86.0983 40.5901 85.7628 40.7287C85.4273 40.8672 85.0582 40.9033 84.7023 40.8322C84.3463 40.7611 84.0194 40.5862 83.7629 40.3294C83.5063 40.0726 83.3316 39.7456 83.2608 39.3896C83.1901 39.0336 83.2264 38.6646 83.3652 38.3292C83.5041 37.9938 83.7392 37.7071 84.0409 37.5053C84.3426 37.3035 84.6973 37.1956 85.0603 37.1953C85.3019 37.1949 85.5411 37.2422 85.7644 37.3345C85.9876 37.4269 86.1904 37.5623 86.3611 37.7332C86.5319 37.9041 86.6672 38.107 86.7593 38.3303C86.8515 38.5536 86.8986 38.7929 86.898 39.0345Z" stroke="url(#paint43_linear_240_165)" stroke-width="1.294" stroke-linecap="round" stroke-linejoin="round"/>
<path d="M151.561 52.0711H99.447C99.1177 52.0792 98.7902 52.0213 98.4836 51.9009C98.177 51.7804 97.8976 51.5999 97.6618 51.3698C97.4261 51.1398 97.2387 50.8649 97.1108 50.5614C96.9829 50.2578 96.917 49.9317 96.917 49.6023C96.917 49.2729 96.9829 48.9469 97.1108 48.6433C97.2387 48.3398 97.4261 48.0649 97.6618 47.8349C97.8976 47.6048 98.177 47.4243 98.4836 47.3038C98.7902 47.1834 99.1177 47.1255 99.447 47.1336H151.561C151.89 47.1255 152.218 47.1834 152.524 47.3038C152.831 47.4243 153.11 47.6048 153.346 47.8349C153.582 48.0649 153.769 48.3398 153.897 48.6433C154.025 48.9469 154.091 49.2729 154.091 49.6023C154.091 49.9317 154.025 50.2578 153.897 50.5614C153.769 50.8649 153.582 51.1398 153.346 51.3698C153.11 51.5999 152.831 51.7804 152.524 51.9009C152.218 52.0213 151.89 52.0792 151.561 52.0711Z" stroke="url(#paint44_linear_240_165)" stroke-width="1.294" stroke-linecap="round" stroke-linejoin="round"/>
<path d="M86.898 49.5955C86.8977 49.9585 86.7898 50.3133 86.5879 50.6151C86.386 50.9168 86.0993 51.1519 85.7638 51.2907C85.4283 51.4295 85.0593 51.4658 84.7032 51.3949C84.3472 51.324 84.0201 51.1491 83.7634 50.8924C83.5067 50.6357 83.3318 50.3087 83.2609 49.9526C83.19 49.5966 83.2263 49.2275 83.3651 48.892C83.5039 48.5565 83.739 48.2698 84.0407 48.0679C84.3425 47.866 84.6973 47.7581 85.0603 47.7578C85.3017 47.7574 85.5409 47.8047 85.764 47.8969C85.9872 47.9891 86.1899 48.1245 86.3606 48.2952C86.5313 48.4659 86.6667 48.6687 86.7589 48.8918C86.8511 49.1149 86.8984 49.3541 86.898 49.5955Z" stroke="url(#paint45_linear_240_165)" stroke-width="1.294" stroke-linecap="round" stroke-linejoin="round"/>
<path d="M222.108 62.6344H136.4C135.744 62.6332 135.116 62.3723 134.653 61.9088C134.19 61.4453 133.929 60.8171 133.929 60.1619C133.931 59.5078 134.193 58.8813 134.656 58.4192C135.119 57.9571 135.746 57.6969 136.4 57.6953H222.108C222.763 57.6953 223.391 57.9555 223.854 58.4186C224.317 58.8817 224.578 59.5099 224.578 60.1648C224.578 60.8198 224.317 61.4479 223.854 61.9111C223.391 62.3742 222.763 62.6344 222.108 62.6344Z" stroke="url(#paint46_linear_240_165)" stroke-width="1.294" stroke-linecap="round" stroke-linejoin="round"/>
<path d="M85.9761 61.4295C85.9761 61.5348 85.9761 61.6401 85.9657 61.741C86.2683 61.5704 86.5158 61.3169 86.6791 61.0104C86.8424 60.7039 86.9148 60.3571 86.8877 60.0109C86.8606 59.6646 86.7351 59.3333 86.5261 59.0559C86.317 58.7786 86.0331 58.5667 85.7076 58.4453H85.6973C85.8286 59.1719 85.9138 59.9061 85.9524 60.6434V60.7028C85.9702 60.9401 85.9761 61.1848 85.9761 61.4295Z" stroke="url(#paint47_linear_240_165)" stroke-width="1.294" stroke-linecap="round" stroke-linejoin="round"/>
<path d="M180.356 73.1876H99.4476C98.7923 73.1872 98.1641 72.9267 97.7007 72.4634C97.2374 72.0001 96.977 71.3718 96.9766 70.7166C96.9777 70.062 97.2386 69.4346 97.7019 68.9722C98.1652 68.5097 98.793 68.25 99.4476 68.25H180.356C181.001 68.2658 181.613 68.5328 182.063 68.9941C182.513 69.4554 182.765 70.0743 182.765 70.7188C182.765 71.3633 182.513 71.9822 182.063 72.4435C181.613 72.9048 181.001 73.1718 180.356 73.1876Z" stroke="url(#paint48_linear_240_165)" stroke-width="1.294" stroke-linecap="round" stroke-linejoin="round"/>
<path d="M84.3209 69.0131C84.4693 68.8648 84.935 68.8752 85.0625 68.8752C85.5499 68.8752 86.0173 69.0688 86.362 69.4134C86.7066 69.758 86.9002 70.2255 86.9002 70.7128C86.9002 71.2002 86.7066 71.6677 86.362 72.0123C86.0173 72.3569 85.5499 72.5505 85.0625 72.5505C84.6708 72.5413 84.2919 72.4087 83.9798 72.1718C83.6677 71.9348 83.4383 71.6054 83.3242 71.2305" stroke="url(#paint49_linear_240_165)" stroke-width="1.294" stroke-linecap="round" stroke-linejoin="round"/>
<path d="M222.108 83.7516H131.601C130.946 83.7508 130.317 83.49 129.854 83.0265C129.39 82.563 129.13 81.9346 129.129 81.2791C129.132 80.6247 129.393 79.998 129.856 79.5359C130.32 79.0737 130.947 78.8137 131.601 78.8125H222.108C222.763 78.8125 223.391 79.0727 223.854 79.5358C224.317 79.9989 224.577 80.6271 224.577 81.282C224.577 81.937 224.317 82.5651 223.854 83.0283C223.391 83.4914 222.763 83.7516 222.108 83.7516Z" stroke="url(#paint50_linear_240_165)" stroke-width="1.294" stroke-linecap="round" stroke-linejoin="round"/>
<path d="M161.159 94.297H99.4476C98.7923 94.2966 98.1641 94.0361 97.7007 93.5728C97.2374 93.1095 96.977 92.4812 96.9766 91.8259C96.9777 91.1714 97.2386 90.544 97.7019 90.0815C98.1652 89.6191 98.793 89.3594 99.4476 89.3594H161.159C161.803 89.3752 162.416 89.6422 162.866 90.1035C163.316 90.5647 163.568 91.1837 163.568 91.8282C163.568 92.4727 163.316 93.0916 162.866 93.5529C162.416 94.0141 161.803 94.2812 161.159 94.297Z" stroke="url(#paint51_linear_240_165)" stroke-width="1.294" stroke-linecap="round" stroke-linejoin="round"/>
<path d="M86.898 91.8235C86.8974 92.1865 86.7893 92.5412 86.5872 92.8427C86.3851 93.1443 86.0983 93.3792 85.7628 93.5177C85.4273 93.6563 85.0582 93.6923 84.7023 93.6213C84.3463 93.5502 84.0194 93.3752 83.7629 93.1185C83.5063 92.8617 83.3316 92.5346 83.2608 92.1786C83.1901 91.8226 83.2264 91.4536 83.3652 91.1182C83.5041 90.7829 83.7392 90.4962 84.0409 90.2943C84.3426 90.0925 84.6973 89.9847 85.0603 89.9844C85.3019 89.984 85.5411 90.0313 85.7644 90.1236C85.9876 90.2159 86.1904 90.3514 86.3611 90.5223C86.5319 90.6931 86.6672 90.8961 86.7593 91.1194C86.8515 91.3427 86.8986 91.582 86.898 91.8235Z" stroke="url(#paint52_linear_240_165)" stroke-width="1.294" stroke-linecap="round" stroke-linejoin="round"/>
<path d="M222.108 104.852H208.387C207.732 104.852 207.104 104.592 206.64 104.128C206.177 103.665 205.916 103.037 205.916 102.381C205.918 101.727 206.179 101.1 206.642 100.638C207.105 100.176 207.733 99.9156 208.387 99.9148H222.108C222.437 99.9067 222.765 99.9646 223.072 100.085C223.378 100.205 223.658 100.386 223.893 100.616C224.129 100.846 224.316 101.121 224.444 101.425C224.572 101.728 224.638 102.054 224.638 102.384C224.638 102.713 224.572 103.039 224.444 103.343C224.316 103.646 224.129 103.921 223.893 104.151C223.658 104.381 223.378 104.562 223.072 104.682C222.765 104.803 222.437 104.86 222.108 104.852Z" stroke="url(#paint53_linear_240_165)" stroke-width="1.294" stroke-linecap="round" stroke-linejoin="round"/>
<path d="M86.898 102.377C86.8977 102.74 86.7898 103.095 86.5879 103.396C86.386 103.698 86.0993 103.933 85.7638 104.072C85.4283 104.211 85.0593 104.247 84.7032 104.176C84.3472 104.105 84.0201 103.93 83.7634 103.674C83.5067 103.417 83.3318 103.09 83.2609 102.734C83.19 102.378 83.2263 102.009 83.3651 101.673C83.5039 101.338 83.739 101.051 84.0407 100.849C84.3425 100.647 84.6973 100.539 85.0603 100.539C85.3017 100.539 85.5409 100.586 85.764 100.678C85.9872 100.77 86.1899 100.906 86.3606 101.076C86.5313 101.247 86.6667 101.45 86.7589 101.673C86.8511 101.896 86.8984 102.135 86.898 102.377Z" stroke="url(#paint54_linear_240_165)" stroke-width="1.294" stroke-linecap="round" stroke-linejoin="round"/>
<path d="M132.364 115.416H99.4476C98.7922 115.415 98.1639 115.154 97.7007 114.69C97.2374 114.227 96.977 113.599 96.9766 112.943C96.9785 112.289 97.2396 111.662 97.7027 111.2C98.1658 110.737 98.7932 110.477 99.4476 110.477H132.364C133.019 110.477 133.647 110.737 134.111 111.2C134.574 111.663 134.834 112.291 134.834 112.946C134.834 113.601 134.574 114.229 134.111 114.692C133.647 115.155 133.019 115.416 132.364 115.416Z" stroke="url(#paint55_linear_240_165)" stroke-width="1.294" stroke-linecap="round" stroke-linejoin="round"/>
<path d="M86.898 112.939C86.8977 113.302 86.7898 113.657 86.5879 113.959C86.386 114.261 86.0993 114.496 85.7638 114.634C85.4283 114.773 85.0593 114.81 84.7032 114.739C84.3472 114.668 84.0201 114.493 83.7634 114.236C83.5067 113.979 83.3318 113.652 83.2609 113.296C83.19 112.94 83.2263 112.571 83.3651 112.236C83.5039 111.9 83.739 111.614 84.0407 111.412C84.3425 111.21 84.6973 111.102 85.0603 111.102C85.3017 111.101 85.5407 111.149 85.7638 111.241C85.9868 111.333 86.1895 111.469 86.3602 111.639C86.5309 111.81 86.6662 112.013 86.7585 112.236C86.8508 112.459 86.8982 112.698 86.898 112.939Z" stroke="url(#paint56_linear_240_165)" stroke-width="1.294" stroke-linecap="round" stroke-linejoin="round"/>
<path d="M222.303 36.5894L223.666 33.7877C223.062 33.0002 222.517 32.1694 222.035 31.3018C221.387 30.1401 220.869 28.9105 220.491 27.6354C220.021 26.0865 219.779 24.4778 219.77 22.8594V22.72C219.769 21.5628 219.885 20.4084 220.117 19.2745C220.407 17.8609 220.869 16.4878 221.49 15.1853C225.425 6.90314 235.661 1 247.669 1C263.073 1 275.566 10.7224 275.566 22.72C275.566 34.7176 263.073 44.4371 247.669 44.4371C245.227 44.4411 242.791 44.1886 240.401 43.6836C238.484 43.291 236.608 42.722 234.796 41.9838C233.466 41.4482 232.178 40.8162 230.94 40.0928L217.888 45.6607L222.312 36.588" fill="#010412"/>
<path d="M253.561 30.7201L266.6 23.1958L253.561 15.6656" fill="#010412"/>
<path d="M240.177 15.6656L227.138 23.1958L240.177 30.7201" fill="#010412"/>
<path d="M250.581 12.2647L242.787 34.0188L250.581 12.2647Z" fill="#010412"/>
<path d="M222.303 36.5894L223.666 33.7877C223.062 33.0002 222.517 32.1694 222.035 31.3018C221.387 30.1401 220.869 28.9105 220.491 27.6354C220.021 26.0865 219.779 24.4778 219.77 22.8594V22.72C219.769 21.5628 219.885 20.4084 220.117 19.2745C220.407 17.8609 220.869 16.4878 221.49 15.1853C225.425 6.90314 235.661 1 247.669 1C263.073 1 275.566 10.7224 275.566 22.72C275.566 34.7176 263.073 44.4371 247.669 44.4371C245.227 44.4411 242.791 44.1886 240.401 43.6836C238.484 43.291 236.608 42.722 234.796 41.9838C233.466 41.4482 232.178 40.8162 230.94 40.0928L217.888 45.6607L222.312 36.588M253.561 30.7201L266.6 23.1958L253.561 15.6656M240.177 15.6656L227.138 23.1958L240.177 30.7201M250.581 12.2647L242.787 34.0188" stroke="url(#paint57_linear_240_165)" stroke-width="1.294" stroke-linecap="round" stroke-linejoin="round"/>
<path d="M239.039 136.557L246.161 114.931L253.288 136.557" fill="#010412"/>
<path d="M241.151 130.146H251.176H241.151Z" fill="#010412"/>
<path d="M264.138 132.822C262.761 135.773 260.183 137.486 258.389 136.651C256.594 135.816 256.259 132.74 257.635 129.784C259.012 126.828 261.585 125.119 263.384 125.954C263.937 126.294 264.382 126.785 264.666 127.369C264.95 127.952 265.062 128.605 264.988 129.25C264.965 130.488 264.675 131.706 264.138 132.822Z" fill="#010412"/>
<path d="M264.983 129.207V129.25C265.247 131.847 263.658 138.686 267.801 135.902" fill="#010412"/>
<path d="M226.388 106.578L229.907 116.536C228.815 117.954 227.923 119.516 227.258 121.177C226.434 123.221 226.01 125.403 226.009 127.607C226.039 131.434 227.285 135.152 229.568 138.223C234.343 144.846 243.457 149.324 253.914 149.324C269.32 149.324 281.811 139.6 281.811 127.607C281.811 115.613 269.32 105.891 253.914 105.891C249.273 105.867 244.677 106.79 240.405 108.602C239.295 109.079 238.217 109.624 237.174 110.234L226.388 106.578Z" fill="#010412"/>
<path d="M239.039 136.557L246.161 114.931L253.288 136.557M241.151 130.146H251.176M264.983 129.207V129.25C265.247 131.847 263.658 138.686 267.801 135.902M264.138 132.822C262.761 135.773 260.183 137.486 258.389 136.651C256.594 135.816 256.259 132.74 257.635 129.784C259.012 126.828 261.585 125.119 263.384 125.954C263.937 126.294 264.382 126.785 264.666 127.369C264.95 127.952 265.062 128.605 264.988 129.25C264.965 130.488 264.675 131.706 264.138 132.822ZM226.388 106.578L229.907 116.536C228.815 117.954 227.923 119.516 227.258 121.177C226.434 123.221 226.01 125.403 226.009 127.607C226.039 131.434 227.285 135.152 229.568 138.223C234.343 144.846 243.457 149.324 253.914 149.324C269.32 149.324 281.811 139.6 281.811 127.607C281.811 115.613 269.32 105.891 253.914 105.891C249.273 105.867 244.677 106.79 240.405 108.602C239.295 109.079 238.217 109.624 237.174 110.234L226.388 106.578Z" stroke="url(#paint58_linear_240_165)" stroke-width="1.294" stroke-linecap="round" stroke-linejoin="round"/>
<path d="M52.0799 61.313H51.7299C49.9481 61.222 48.2723 60.4385 47.06 59.1296C45.8477 57.8206 45.1947 56.0898 45.2404 54.3063C45.286 52.5228 46.0267 50.8276 47.3044 49.5824C48.5821 48.3372 50.2958 47.6405 52.0799 47.6408M42.3666 61.3083H52.0801H51.908C50.1142 61.3607 48.4129 62.1158 47.1707 63.411C45.9285 64.7061 45.245 66.4375 45.2676 68.232C45.2902 70.0264 46.017 71.7401 47.2913 73.0036C48.5657 74.2671 50.2855 74.9792 52.0801 74.9864M64.3612 61.313H64.7112C66.493 61.222 68.1687 60.4385 69.3811 59.1296C70.5934 57.8206 71.2463 56.0898 71.2007 54.3063C71.155 52.5228 70.4143 50.8276 69.1366 49.5824C67.8589 48.3372 66.1453 47.6405 64.3612 47.6408M74.0747 61.3083H64.3612H64.5391C66.3333 61.3608 68.035 62.1165 69.2771 63.4123C70.5192 64.708 71.2023 66.4401 71.1789 68.2349C71.1555 70.0297 70.4277 71.7434 69.1523 73.0064C67.8768 74.2695 66.1561 74.9806 64.3612 74.9864M85.9576 60.6416C85.924 59.9063 85.8423 59.174 85.7129 58.4495C84.6569 53.2971 81.6643 48.7464 77.352 45.7354C75.6131 44.447 73.7326 43.3617 71.747 42.5006C67.4309 40.6383 62.7756 39.6909 58.0749 39.7181C50.1786 39.5498 42.5075 42.3557 36.5833 47.5791C34.6159 49.3196 33.0306 51.4489 31.9273 53.8327C30.824 56.2165 30.2266 58.803 30.1729 61.4292C30.1729 71.6945 39.3242 80.3 51.6289 82.5649C53.7557 82.952 55.9131 83.1461 58.0749 83.1448C60.6307 83.1486 63.1794 82.8751 65.6763 82.329C67.7593 81.8734 69.7926 81.2146 71.747 80.3623M71.7475 80.3548C72.8003 79.9014 73.8241 79.3838 74.8133 78.8048L77.4831 80.067L90.5353 86.2104L82.081 72.4997C82.4355 72.034 82.7722 71.5594 83.0792 71.0684C83.5127 70.3953 83.9022 69.6947 84.245 68.9712C85.3367 66.7137 85.9257 64.2462 85.9715 61.7391V61.4276C85.9715 61.1829 85.9715 60.9382 85.9522 60.6934" stroke="url(#paint59_linear_240_165)" stroke-width="1.294" stroke-linecap="round" stroke-linejoin="round"/>
<path d="M15.8242 159.398H76.5605" stroke="url(#paint60_linear_240_165)" stroke-width="1.294" stroke-linecap="round" stroke-linejoin="round"/>
<defs>
<linearGradient id="paint0_linear_240_165" x1="140.466" y1="144.34" x2="175.063" y2="144.001" gradientUnits="userSpaceOnUse">
<stop stop-color="#32F6F4"/>
<stop offset="1" stop-color="#11508B"/>
</linearGradient>
<linearGradient id="paint1_linear_240_165" x1="135.665" y1="148.805" x2="177.212" y2="148.522" gradientUnits="userSpaceOnUse">
<stop stop-color="#32F6F4"/>
<stop offset="1" stop-color="#11508B"/>
</linearGradient>
<linearGradient id="paint2_linear_240_165" x1="139.75" y1="159.898" x2="173.742" y2="155.83" gradientUnits="userSpaceOnUse">
<stop stop-color="#32F6F4"/>
<stop offset="1" stop-color="#11508B"/>
</linearGradient>
<linearGradient id="paint3_linear_240_165" x1="125.181" y1="159.898" x2="184.283" y2="147.215" gradientUnits="userSpaceOnUse">
<stop stop-color="#32F6F4"/>
<stop offset="1" stop-color="#11508B"/>
</linearGradient>
<linearGradient id="paint4_linear_240_165" x1="18.0742" y1="86.6992" x2="39.1867" y2="86.6497" gradientUnits="userSpaceOnUse">
<stop stop-color="#32F6F4"/>
<stop offset="1" stop-color="#11508B"/>
</linearGradient>
<linearGradient id="paint5_linear_240_165" x1="77.3525" y1="25.2949" x2="224.372" y2="19.0455" gradientUnits="userSpaceOnUse">
<stop stop-color="#32F6F4"/>
<stop offset="1" stop-color="#11508B"/>
</linearGradient>
<linearGradient id="paint6_linear_240_165" x1="77.3525" y1="25.2949" x2="224.372" y2="19.0455" gradientUnits="userSpaceOnUse">
<stop stop-color="#32F6F4"/>
<stop offset="1" stop-color="#11508B"/>
</linearGradient>
<linearGradient id="paint7_linear_240_165" x1="133.929" y1="60.157" x2="225.815" y2="54.1983" gradientUnits="userSpaceOnUse">
<stop stop-color="#32F6F4"/>
<stop offset="1" stop-color="#11508B"/>
</linearGradient>
<linearGradient id="paint8_linear_240_165" x1="129.129" y1="81.2664" x2="225.836" y2="74.6631" gradientUnits="userSpaceOnUse">
<stop stop-color="#32F6F4"/>
<stop offset="1" stop-color="#11508B"/>
</linearGradient>
<linearGradient id="paint9_linear_240_165" x1="205.916" y1="102.384" x2="224.97" y2="102.128" gradientUnits="userSpaceOnUse">
<stop stop-color="#32F6F4"/>
<stop offset="1" stop-color="#11508B"/>
</linearGradient>
<linearGradient id="paint10_linear_240_165" x1="143.53" y1="39.0398" x2="223.457" y2="34.5359" gradientUnits="userSpaceOnUse">
<stop stop-color="#32F6F4"/>
<stop offset="1" stop-color="#11508B"/>
</linearGradient>
<linearGradient id="paint11_linear_240_165" x1="96.9766" y1="70.7188" x2="183.974" y2="65.378" gradientUnits="userSpaceOnUse">
<stop stop-color="#32F6F4"/>
<stop offset="1" stop-color="#11508B"/>
</linearGradient>
<linearGradient id="paint12_linear_240_165" x1="140.466" y1="144.34" x2="175.063" y2="144.001" gradientUnits="userSpaceOnUse">
<stop stop-color="#32F6F4"/>
<stop offset="1" stop-color="#11508B"/>
</linearGradient>
<linearGradient id="paint13_linear_240_165" x1="96.9766" y1="91.8282" x2="164.607" y2="88.6054" gradientUnits="userSpaceOnUse">
<stop stop-color="#32F6F4"/>
<stop offset="1" stop-color="#11508B"/>
</linearGradient>
<linearGradient id="paint14_linear_240_165" x1="96.917" y1="49.6023" x2="155.018" y2="47.226" gradientUnits="userSpaceOnUse">
<stop stop-color="#32F6F4"/>
<stop offset="1" stop-color="#11508B"/>
</linearGradient>
<linearGradient id="paint15_linear_240_165" x1="96.9766" y1="112.946" x2="135.484" y2="111.903" gradientUnits="userSpaceOnUse">
<stop stop-color="#32F6F4"/>
<stop offset="1" stop-color="#11508B"/>
</linearGradient>
<linearGradient id="paint16_linear_240_165" x1="85.7129" y1="60.0932" x2="86.9197" y2="60.0916" gradientUnits="userSpaceOnUse">
<stop stop-color="#32F6F4"/>
<stop offset="1" stop-color="#11508B"/>
</linearGradient>
<linearGradient id="paint17_linear_240_165" x1="83.2266" y1="39.0345" x2="86.9707" y2="39.0213" gradientUnits="userSpaceOnUse">
<stop stop-color="#32F6F4"/>
<stop offset="1" stop-color="#11508B"/>
</linearGradient>
<linearGradient id="paint18_linear_240_165" x1="83.2266" y1="49.5955" x2="86.9677" y2="49.5823" gradientUnits="userSpaceOnUse">
<stop stop-color="#32F6F4"/>
<stop offset="1" stop-color="#11508B"/>
</linearGradient>
<linearGradient id="paint19_linear_240_165" x1="83.0703" y1="70.7128" x2="86.967" y2="70.6985" gradientUnits="userSpaceOnUse">
<stop stop-color="#32F6F4"/>
<stop offset="1" stop-color="#11508B"/>
</linearGradient>
<linearGradient id="paint20_linear_240_165" x1="83.2266" y1="91.8235" x2="86.9707" y2="91.8103" gradientUnits="userSpaceOnUse">
<stop stop-color="#32F6F4"/>
<stop offset="1" stop-color="#11508B"/>
</linearGradient>
<linearGradient id="paint21_linear_240_165" x1="83.2266" y1="102.385" x2="86.9677" y2="102.371" gradientUnits="userSpaceOnUse">
<stop stop-color="#32F6F4"/>
<stop offset="1" stop-color="#11508B"/>
</linearGradient>
<linearGradient id="paint22_linear_240_165" x1="83.2266" y1="112.941" x2="86.9707" y2="112.928" gradientUnits="userSpaceOnUse">
<stop stop-color="#32F6F4"/>
<stop offset="1" stop-color="#11508B"/>
</linearGradient>
<linearGradient id="paint23_linear_240_165" x1="51.6299" y1="91.1324" x2="65.9816" y2="91.0918" gradientUnits="userSpaceOnUse">
<stop stop-color="#32F6F4"/>
<stop offset="1" stop-color="#11508B"/>
</linearGradient>
<linearGradient id="paint24_linear_240_165" x1="45.2988" y1="111.459" x2="67.8833" y2="111.399" gradientUnits="userSpaceOnUse">
<stop stop-color="#32F6F4"/>
<stop offset="1" stop-color="#11508B"/>
</linearGradient>
<linearGradient id="paint25_linear_240_165" x1="50.75" y1="120.483" x2="54.4625" y2="120.479" gradientUnits="userSpaceOnUse">
<stop stop-color="#32F6F4"/>
<stop offset="1" stop-color="#11508B"/>
</linearGradient>
<linearGradient id="paint26_linear_240_165" x1="24.3115" y1="73.7514" x2="53.7362" y2="73.7104" gradientUnits="userSpaceOnUse">
<stop stop-color="#32F6F4"/>
<stop offset="1" stop-color="#11508B"/>
</linearGradient>
<linearGradient id="paint27_linear_240_165" x1="43.1963" y1="117.654" x2="46.0758" y2="117.653" gradientUnits="userSpaceOnUse">
<stop stop-color="#32F6F4"/>
<stop offset="1" stop-color="#11508B"/>
</linearGradient>
<linearGradient id="paint28_linear_240_165" x1="-6.36091e-08" y1="100.395" x2="40.0569" y2="100.287" gradientUnits="userSpaceOnUse">
<stop stop-color="#32F6F4"/>
<stop offset="1" stop-color="#11508B"/>
</linearGradient>
<linearGradient id="paint29_linear_240_165" x1="18.0742" y1="86.6914" x2="39.7045" y2="86.6394" gradientUnits="userSpaceOnUse">
<stop stop-color="#32F6F4"/>
<stop offset="1" stop-color="#11508B"/>
</linearGradient>
<linearGradient id="paint30_linear_240_165" x1="71.7471" y1="28.8433" x2="224.119" y2="25.8915" gradientUnits="userSpaceOnUse">
<stop stop-color="#32F6F4"/>
<stop offset="1" stop-color="#11508B"/>
</linearGradient>
<linearGradient id="paint31_linear_240_165" x1="71.7471" y1="109.291" x2="141.699" y2="108.998" gradientUnits="userSpaceOnUse">
<stop stop-color="#32F6F4"/>
<stop offset="1" stop-color="#11508B"/>
</linearGradient>
<linearGradient id="paint32_linear_240_165" x1="81.3869" y1="138.766" x2="199.749" y2="76.7475" gradientUnits="userSpaceOnUse">
<stop stop-color="#32F6F4"/>
<stop offset="1" stop-color="#11508B"/>
</linearGradient>
<linearGradient id="paint33_linear_240_165" x1="240.401" y1="76.1437" x2="241.419" y2="76.1436" gradientUnits="userSpaceOnUse">
<stop stop-color="#32F6F4"/>
<stop offset="1" stop-color="#11508B"/>
</linearGradient>
<linearGradient id="paint34_linear_240_165" x1="77.3525" y1="100.768" x2="229.918" y2="98.7885" gradientUnits="userSpaceOnUse">
<stop stop-color="#32F6F4"/>
<stop offset="1" stop-color="#11508B"/>
</linearGradient>
<linearGradient id="paint35_linear_240_165" x1="234.797" y1="75.5967" x2="235.815" y2="75.5967" gradientUnits="userSpaceOnUse">
<stop stop-color="#32F6F4"/>
<stop offset="1" stop-color="#11508B"/>
</linearGradient>
<linearGradient id="paint36_linear_240_165" x1="151.398" y1="129.7" x2="160.919" y2="129.666" gradientUnits="userSpaceOnUse">
<stop stop-color="#32F6F4"/>
<stop offset="1" stop-color="#11508B"/>
</linearGradient>
<linearGradient id="paint37_linear_240_165" x1="17.1709" y1="159.898" x2="24.6995" y2="159.702" gradientUnits="userSpaceOnUse">
<stop stop-color="#32F6F4"/>
<stop offset="1" stop-color="#11508B"/>
</linearGradient>
<linearGradient id="paint38_linear_240_165" x1="26.7705" y1="159.898" x2="36.9472" y2="159.538" gradientUnits="userSpaceOnUse">
<stop stop-color="#32F6F4"/>
<stop offset="1" stop-color="#11508B"/>
</linearGradient>
<linearGradient id="paint39_linear_240_165" x1="77.7422" y1="25.2924" x2="228.313" y2="18.8018" gradientUnits="userSpaceOnUse">
<stop stop-color="#32F6F4"/>
<stop offset="1" stop-color="#11508B"/>
</linearGradient>
<linearGradient id="paint40_linear_240_165" x1="26.7705" y1="142.715" x2="64.1488" y2="142.57" gradientUnits="userSpaceOnUse">
<stop stop-color="#32F6F4"/>
<stop offset="1" stop-color="#11508B"/>
</linearGradient>
<linearGradient id="paint41_linear_240_165" x1="93.166" y1="75.3077" x2="94.1839" y2="75.3077" gradientUnits="userSpaceOnUse">
<stop stop-color="#32F6F4"/>
<stop offset="1" stop-color="#11508B"/>
</linearGradient>
<linearGradient id="paint42_linear_240_165" x1="143.53" y1="39.0398" x2="223.462" y2="34.5354" gradientUnits="userSpaceOnUse">
<stop stop-color="#32F6F4"/>
<stop offset="1" stop-color="#11508B"/>
</linearGradient>
<linearGradient id="paint43_linear_240_165" x1="83.2256" y1="39.0315" x2="86.9637" y2="39.0183" gradientUnits="userSpaceOnUse">
<stop stop-color="#32F6F4"/>
<stop offset="1" stop-color="#11508B"/>
</linearGradient>
<linearGradient id="paint44_linear_240_165" x1="96.917" y1="49.6023" x2="155.018" y2="47.226" gradientUnits="userSpaceOnUse">
<stop stop-color="#32F6F4"/>
<stop offset="1" stop-color="#11508B"/>
</linearGradient>
<linearGradient id="paint45_linear_240_165" x1="83.2256" y1="49.594" x2="86.9637" y2="49.5808" gradientUnits="userSpaceOnUse">
<stop stop-color="#32F6F4"/>
<stop offset="1" stop-color="#11508B"/>
</linearGradient>
<linearGradient id="paint46_linear_240_165" x1="133.929" y1="60.1648" x2="225.815" y2="54.2062" gradientUnits="userSpaceOnUse">
<stop stop-color="#32F6F4"/>
<stop offset="1" stop-color="#11508B"/>
</linearGradient>
<linearGradient id="paint47_linear_240_165" x1="85.6973" y1="60.0932" x2="86.9147" y2="60.0916" gradientUnits="userSpaceOnUse">
<stop stop-color="#32F6F4"/>
<stop offset="1" stop-color="#11508B"/>
</linearGradient>
<linearGradient id="paint48_linear_240_165" x1="96.9766" y1="70.7188" x2="183.974" y2="65.378" gradientUnits="userSpaceOnUse">
<stop stop-color="#32F6F4"/>
<stop offset="1" stop-color="#11508B"/>
</linearGradient>
<linearGradient id="paint49_linear_240_165" x1="83.3242" y1="70.7128" x2="86.9642" y2="70.7003" gradientUnits="userSpaceOnUse">
<stop stop-color="#32F6F4"/>
<stop offset="1" stop-color="#11508B"/>
</linearGradient>
<linearGradient id="paint50_linear_240_165" x1="129.129" y1="81.282" x2="225.836" y2="74.6787" gradientUnits="userSpaceOnUse">
<stop stop-color="#32F6F4"/>
<stop offset="1" stop-color="#11508B"/>
</linearGradient>
<linearGradient id="paint51_linear_240_165" x1="96.9766" y1="91.8282" x2="164.607" y2="88.6054" gradientUnits="userSpaceOnUse">
<stop stop-color="#32F6F4"/>
<stop offset="1" stop-color="#11508B"/>
</linearGradient>
<linearGradient id="paint52_linear_240_165" x1="83.2256" y1="91.8206" x2="86.9637" y2="91.8074" gradientUnits="userSpaceOnUse">
<stop stop-color="#32F6F4"/>
<stop offset="1" stop-color="#11508B"/>
</linearGradient>
<linearGradient id="paint53_linear_240_165" x1="205.916" y1="102.384" x2="224.97" y2="102.128" gradientUnits="userSpaceOnUse">
<stop stop-color="#32F6F4"/>
<stop offset="1" stop-color="#11508B"/>
</linearGradient>
<linearGradient id="paint54_linear_240_165" x1="83.2256" y1="102.375" x2="86.9637" y2="102.362" gradientUnits="userSpaceOnUse">
<stop stop-color="#32F6F4"/>
<stop offset="1" stop-color="#11508B"/>
</linearGradient>
<linearGradient id="paint55_linear_240_165" x1="96.9766" y1="112.946" x2="135.484" y2="111.903" gradientUnits="userSpaceOnUse">
<stop stop-color="#32F6F4"/>
<stop offset="1" stop-color="#11508B"/>
</linearGradient>
<linearGradient id="paint56_linear_240_165" x1="83.2256" y1="112.938" x2="86.9637" y2="112.925" gradientUnits="userSpaceOnUse">
<stop stop-color="#32F6F4"/>
<stop offset="1" stop-color="#11508B"/>
</linearGradient>
<linearGradient id="paint57_linear_240_165" x1="217.888" y1="23.3304" x2="276.598" y2="23.0625" gradientUnits="userSpaceOnUse">
<stop stop-color="#32F6F4"/>
<stop offset="1" stop-color="#11508B"/>
</linearGradient>
<linearGradient id="paint58_linear_240_165" x1="226.009" y1="127.607" x2="282.81" y2="127.349" gradientUnits="userSpaceOnUse">
<stop stop-color="#32F6F4"/>
<stop offset="1" stop-color="#11508B"/>
</linearGradient>
<linearGradient id="paint59_linear_240_165" x1="30.1729" y1="62.9607" x2="91.6151" y2="62.6789" gradientUnits="userSpaceOnUse">
<stop stop-color="#32F6F4"/>
<stop offset="1" stop-color="#11508B"/>
</linearGradient>
<linearGradient id="paint60_linear_240_165" x1="15.8242" y1="159.898" x2="74.9265" y2="147.215" gradientUnits="userSpaceOnUse">
<stop stop-color="#32F6F4"/>
<stop offset="1" stop-color="#11508B"/>
</linearGradient>
</defs>
</svg>
