<svg width="16" height="16" viewBox="0 0 16 16" fill="none" xmlns="http://www.w3.org/2000/svg">
<rect width="16" height="15.0725" fill="#010412"/>
<path d="M8.448 10.696C9.888 10.696 10.848 9.848 11.152 8.488H13.92C13.584 11.304 11.44 13.224 8.464 13.224C5.184 13.224 2.704 10.84 2.704 7.56C2.704 4.28 5.184 1.896 8.464 1.896C11.44 1.896 13.584 3.816 13.92 6.632H11.152C10.848 5.272 9.888 4.424 8.448 4.424C6.672 4.424 5.44 5.752 5.44 7.56C5.44 9.368 6.672 10.696 8.448 10.696Z" fill="url(#paint0_linear_211_4)"/>
<defs>
<linearGradient id="paint0_linear_211_4" x1="2" y1="9.5" x2="11.1611" y2="9.47352" gradientUnits="userSpaceOnUse">
<stop stop-color="#32F6F4"/>
<stop offset="1" stop-color="#11508B"/>
</linearGradient>
</defs>
</svg>
