<svg width="28" height="18" viewBox="0 0 28 18" fill="none" xmlns="http://www.w3.org/2000/svg">
<path d="M9.37848 1.84049C9.4786 1.74038 9.55801 1.62153 9.61219 1.49072C9.66637 1.35991 9.69426 1.21972 9.69426 1.07814C9.69426 0.936552 9.66637 0.796356 9.61219 0.66555C9.55801 0.534745 9.4786 0.415892 9.37848 0.315778C9.27837 0.215664 9.15952 0.136249 9.02871 0.0820677C8.8979 0.0278864 8.75771 -1.05487e-09 8.61613 0C8.47454 1.05487e-09 8.33435 0.0278864 8.20354 0.0820677C8.07273 0.136249 7.95388 0.215664 7.85377 0.315778L0.316343 7.8532C0.216067 7.95323 0.136509 8.07205 0.0822254 8.20287C0.027942 8.33369 0 8.47393 0 8.61556C0 8.75719 0.027942 8.89743 0.0822254 9.02825C0.136509 9.15907 0.216067 9.27789 0.316343 9.37792L7.85377 16.9153C8.05596 17.1175 8.33019 17.2311 8.61613 17.2311C8.90206 17.2311 9.17629 17.1175 9.37848 16.9153C9.58067 16.7132 9.69426 16.4389 9.69426 16.153C9.69426 15.867 9.58067 15.5928 9.37848 15.3906L2.60126 8.61556L9.37848 1.84049ZM18.6215 1.84049C18.4193 1.6383 18.3057 1.36407 18.3057 1.07814C18.3057 0.792196 18.4193 0.517968 18.6215 0.315778C18.8237 0.113589 19.0979 7.37997e-09 19.3839 0C19.6698 -7.37997e-09 19.944 0.113589 20.1462 0.315778L27.6837 7.8532C27.7839 7.95323 27.8635 8.07205 27.9178 8.20287C27.9721 8.33369 28 8.47393 28 8.61556C28 8.75719 27.9721 8.89743 27.9178 9.02825C27.8635 9.15907 27.7839 9.27789 27.6837 9.37792L20.1462 16.9153C19.944 17.1175 19.6698 17.2311 19.3839 17.2311C19.0979 17.2311 18.8237 17.1175 18.6215 16.9153C18.4193 16.7132 18.3057 16.4389 18.3057 16.153C18.3057 15.867 18.4193 15.5928 18.6215 15.3906L25.3987 8.61556L18.6215 1.84049Z" fill="#7EFEFD"/>
</svg>
