<svg width="28" height="22" viewBox="0 0 28 22" fill="none" xmlns="http://www.w3.org/2000/svg">
<path d="M14.4121 0.0992874C14.2855 0.0340962 14.1443 0 14.0009 0C13.8574 0 13.7162 0.0340962 13.5896 0.0992874L0.464414 6.86887C0.324635 6.94109 0.207763 7.04867 0.126277 7.18012C0.0447909 7.31157 0.00175003 7.46195 0.00175003 7.61521C0.00175003 7.76847 0.0447909 7.91885 0.126277 8.0503C0.207763 8.18175 0.324635 8.28933 0.464414 8.36156L5.57974 11L0.462664 13.6384C0.322885 13.7107 0.206013 13.8182 0.124527 13.9497C0.0430408 14.0811 0 14.2315 0 14.3848C0 14.538 0.0430408 14.6884 0.124527 14.8199C0.206013 14.9513 0.322885 15.0589 0.462664 15.1311L13.5879 21.9007C13.7145 21.9659 13.8557 22 13.9991 22C14.1426 22 14.2838 21.9659 14.4104 21.9007L27.5356 15.1311C27.6754 15.0589 27.7922 14.9513 27.8737 14.8199C27.9552 14.6884 27.9983 14.538 27.9983 14.3848C27.9983 14.2315 27.9552 14.0811 27.8737 13.9497C27.7922 13.8182 27.6754 13.7107 27.5356 13.6384L22.4238 11L27.5373 8.36156C27.6771 8.28933 27.794 8.18175 27.8755 8.0503C27.957 7.91885 28 7.76847 28 7.61521C28 7.46195 27.957 7.31157 27.8755 7.18012C27.794 7.04867 27.6771 6.94109 27.5373 6.86887L14.4121 0.0992874ZM20.5635 11.9596L25.2676 14.3848L14.0009 20.1948L2.7342 14.3848L7.43827 11.9596L13.5896 15.1311C13.7162 15.1963 13.8574 15.2304 14.0009 15.2304C14.1443 15.2304 14.2855 15.1963 14.4121 15.1311L20.5635 11.9596ZM14.0009 13.4252L2.7342 7.61521L14.0009 1.80522L25.2676 7.61521L14.0009 13.4252Z" fill="#7EFEFD"/>
</svg>
