<svg width="28" height="28" viewBox="0 0 28 28" fill="none" xmlns="http://www.w3.org/2000/svg">
<path fill-rule="evenodd" clip-rule="evenodd" d="M0.873653 10.4844C0.742874 10.4844 0.613774 10.5138 0.495868 10.5704C0.377962 10.627 0.274256 10.7093 0.192396 10.8113C0.110535 10.9133 0.0526063 11.0323 0.022879 11.1597C-0.00684836 11.2871 -0.00761616 11.4195 0.0206321 11.5472L2.90832 24.5417C3.12387 25.5123 3.66393 26.3804 4.43935 27.0026C5.21478 27.6249 6.1792 27.9641 7.17342 27.9643H17.2978C18.292 27.9641 19.2565 27.6249 20.0319 27.0026C20.8073 26.3804 21.3474 25.5123 21.5629 24.5417L21.7919 23.5104C23.129 23.7605 24.5109 23.4813 25.646 22.7316C26.781 21.982 27.5804 20.8206 27.8753 19.4927C28.1702 18.1648 27.9375 16.7742 27.2265 15.6146C26.5154 14.455 25.3815 13.617 24.0643 13.2777L24.4506 11.5472C24.4788 11.4195 24.4781 11.2871 24.4484 11.1597C24.4186 11.0323 24.3607 10.9133 24.2788 10.8113C24.197 10.7093 24.0933 10.627 23.9754 10.5704C23.8575 10.5138 23.7284 10.4844 23.5976 10.4844H0.873653ZM22.7236 21.8463C22.5386 21.8463 22.3539 21.8317 22.1712 21.8026L23.6867 14.989C24.4952 15.2231 25.1921 15.7409 25.6496 16.4474C26.1071 17.1539 26.2945 18.0016 26.1774 18.8351C26.0603 19.6686 25.6466 20.4319 25.0122 20.985C24.3778 21.5381 23.5652 21.844 22.7236 21.8463ZM4.61436 24.1624L1.96265 12.2324H22.5086L19.8569 24.1624C19.7276 24.7448 19.4036 25.2658 18.9383 25.6392C18.4731 26.0126 17.8944 26.2162 17.2978 26.2163H7.17342C6.57684 26.2162 5.99815 26.0126 5.53289 25.6392C5.06763 25.2658 4.74362 24.7448 4.61436 24.1624Z" fill="#7EFEFD"/>
<path d="M7.69133 1.3977L7.68609 1.40469L7.66162 1.4379C7.53476 1.61315 7.41578 1.79395 7.30503 1.97978C7.21285 2.12985 7.13052 2.28575 7.05856 2.4465C7.01311 2.55138 6.99913 2.60731 6.99388 2.62654V2.63353C7.01364 2.78816 7.06801 2.93633 7.15295 3.06703C7.28405 3.29952 7.46409 3.54249 7.69133 3.84489L7.70881 3.86587C7.91508 4.14205 8.16329 4.47242 8.35557 4.81503C8.55135 5.16463 8.74013 5.61037 8.74013 6.11728C8.74013 6.44591 8.62651 6.76055 8.53212 6.98079C8.4295 7.21441 8.31155 7.44097 8.17902 7.65902C8.04104 7.8877 7.8935 8.11048 7.73678 8.32675L7.70532 8.37045L7.69658 8.38443L7.69308 8.38793C7.55423 8.5736 7.34732 8.69651 7.11785 8.72962C6.88838 8.76273 6.65516 8.70332 6.46948 8.56448C6.28381 8.42563 6.16091 8.21871 6.1278 7.98924C6.09469 7.75977 6.15409 7.52655 6.29294 7.34088L6.29818 7.33389L6.32265 7.30068C6.44954 7.12546 6.56852 6.94465 6.67924 6.7588C6.77271 6.60947 6.85508 6.45348 6.92571 6.29208C6.97116 6.1872 6.98514 6.13127 6.99039 6.11204C6.97219 5.95514 6.91838 5.80447 6.83307 5.67155C6.66942 5.40125 6.48903 5.14146 6.29294 4.89369L6.27546 4.87271C6.03969 4.57056 5.82365 4.25351 5.6287 3.92355C5.39062 3.52978 5.25816 3.08124 5.24414 2.6213C5.24414 2.29267 5.35776 1.97803 5.45215 1.75779C5.55528 1.51656 5.68638 1.27884 5.80525 1.07957C5.94323 0.850882 6.09077 0.628107 6.24749 0.411832L6.29119 0.350652C6.43004 0.164982 6.63695 0.0420724 6.86642 0.00896337C7.09589 -0.0241457 7.32911 0.0352574 7.51478 0.174105C7.70046 0.312952 7.82336 0.51987 7.85647 0.749339C7.88958 0.978807 7.83018 1.21203 7.69133 1.3977ZM12.9353 1.3977L12.9301 1.40469L12.9056 1.4379C12.7787 1.61315 12.6598 1.79395 12.549 1.97978C12.4568 2.12985 12.3745 2.28575 12.3025 2.4465C12.2571 2.55138 12.2431 2.60731 12.2379 2.62654V2.63353C12.2576 2.78816 12.312 2.93633 12.3969 3.06703C12.528 3.29952 12.7081 3.54249 12.9353 3.84489L12.9528 3.86587C13.1591 4.14205 13.4073 4.47242 13.5996 4.81503C13.7953 5.16463 13.9841 5.61037 13.9841 6.11728C13.9841 6.44591 13.8705 6.76055 13.7761 6.98079C13.6735 7.21441 13.5555 7.44097 13.423 7.65902C13.285 7.8877 13.1375 8.11048 12.9808 8.32675L12.9493 8.37045L12.9406 8.38443L12.9371 8.38793C12.7982 8.5736 12.5913 8.69651 12.3618 8.72962C12.1324 8.76273 11.8991 8.70332 11.7135 8.56448C11.5278 8.42563 11.4049 8.21871 11.3718 7.98924C11.3387 7.75977 11.3981 7.52655 11.5369 7.34088L11.5422 7.33389L11.5666 7.30068C11.6935 7.12546 11.8125 6.94465 11.9232 6.7588C12.0167 6.60947 12.0991 6.45348 12.1697 6.29208C12.2151 6.1872 12.2291 6.13127 12.2344 6.11204C12.2162 5.95514 12.1624 5.80447 12.077 5.67155C11.9134 5.40125 11.733 5.14146 11.5369 4.89369L11.5194 4.87271C11.2837 4.57056 11.0676 4.25351 10.8727 3.92355C10.6346 3.52978 10.5021 3.08124 10.4881 2.6213C10.4881 2.29267 10.6017 1.97803 10.6961 1.75779C10.7993 1.51656 10.9304 1.27884 11.0492 1.07957C11.1872 0.850882 11.3348 0.628107 11.4915 0.411832L11.5352 0.350652C11.674 0.164982 11.8809 0.0420724 12.1104 0.00896336C12.3399 -0.0241457 12.5731 0.0352574 12.7588 0.174105C12.9444 0.312952 13.0673 0.51987 13.1005 0.749339C13.1336 0.978807 13.0742 1.21203 12.9353 1.3977ZM18.1793 1.3977L18.1741 1.40469L18.1496 1.4379C18.0226 1.61302 17.9036 1.79384 17.793 1.97978C17.7009 2.12988 17.6185 2.28578 17.5465 2.4465C17.5011 2.55138 17.4871 2.60731 17.4818 2.62654V2.63353C17.5016 2.78816 17.556 2.93633 17.6409 3.06703C17.772 3.29952 17.9521 3.54249 18.1793 3.84489L18.1968 3.86587C18.403 4.14205 18.6513 4.47242 18.8435 4.81503C19.0393 5.16463 19.2281 5.61037 19.2281 6.11728C19.2281 6.44591 19.1145 6.76055 19.0201 6.98079C18.918 7.21466 18.8 7.44127 18.667 7.65902C18.5297 7.88773 18.3827 8.11051 18.2265 8.32675L18.1933 8.37045L18.1845 8.38443L18.181 8.38793C18.0422 8.5736 17.8353 8.69651 17.6058 8.72962C17.3763 8.76273 17.1431 8.70332 16.9574 8.56448C16.7718 8.42563 16.6489 8.21871 16.6158 7.98924C16.5827 7.75977 16.6421 7.52655 16.7809 7.34088L16.7861 7.33389L16.8106 7.30068C16.9375 7.12546 17.0565 6.94465 17.1672 6.7588C17.2607 6.60947 17.343 6.45348 17.4137 6.29208C17.4591 6.1872 17.4731 6.13127 17.4784 6.11204C17.4602 5.95514 17.4063 5.80447 17.321 5.67155C17.1574 5.40125 16.977 5.14146 16.7809 4.89369L16.7634 4.87271C16.5277 4.57056 16.3116 4.25351 16.1167 3.92355C15.8786 3.52978 15.7461 3.08124 15.7321 2.6213C15.7321 2.29267 15.8457 1.97803 15.9401 1.75779C16.0432 1.51656 16.1743 1.27884 16.2932 1.07957C16.4312 0.850882 16.5787 0.628107 16.7355 0.411832L16.7792 0.350652C16.918 0.164982 17.1249 0.0420724 17.3544 0.00896336C17.5839 -0.0241457 17.8171 0.0352574 18.0027 0.174105C18.1884 0.312952 18.3113 0.51987 18.3444 0.749339C18.3775 0.978807 18.3181 1.21203 18.1793 1.3977Z" fill="#7EFEFD"/>
</svg>
