<svg width="33" height="33" viewBox="0 0 33 33" fill="none" xmlns="http://www.w3.org/2000/svg">
<path fill-rule="evenodd" clip-rule="evenodd" d="M16.0919 0.0486265C16.013 0.0726159 15.8936 0.121775 15.8264 0.157843C15.7592 0.193912 15.6662 0.297285 15.6197 0.387513C15.5732 0.47774 15.5351 0.68769 15.5351 0.853987C15.5351 1.02028 15.5986 1.67255 15.6761 2.30341C15.7537 2.93433 15.8806 3.9056 15.9582 4.46179C16.0358 5.01799 16.1731 5.95341 16.2635 6.54051C16.3538 7.1276 16.5683 8.3664 16.74 9.2934C16.9118 10.2204 17.1174 11.2317 17.197 11.5407C17.2766 11.8497 17.3667 12.1341 17.3973 12.1727C17.4278 12.2113 17.5077 12.2429 17.5747 12.2429C17.6418 12.2429 17.7269 12.2126 17.7639 12.1755C17.8008 12.1384 17.8311 11.9797 17.8311 11.8227C17.8311 11.6657 17.8698 11.2221 17.9171 10.8367C17.9644 10.4514 18.0765 9.80746 18.1661 9.40576C18.2557 9.00406 18.5073 8.00544 18.7251 7.18659C18.9429 6.36775 19.2071 5.268 19.312 4.7427C19.417 4.2174 19.5843 3.24985 19.6838 2.59258L19.8647 1.3976L19.7945 0.92354C19.7558 0.662802 19.6951 0.425885 19.6596 0.397064C19.6241 0.368187 19.3179 0.292341 18.9791 0.228407C18.6403 0.164529 18.1495 0.0859309 17.8885 0.0537951C17.6276 0.0216593 17.1488 -0.00244267 16.8246 0.000197854C16.5004 0.00283838 16.1707 0.024637 16.0919 0.0486265ZM12.5952 0.580946C12.2564 0.651734 11.7524 0.778423 11.4752 0.862471C11.198 0.946462 10.8048 1.07461 10.6014 1.1472C10.3981 1.21978 10.0705 1.34698 9.87341 1.4299C9.6764 1.51277 9.24084 1.71823 8.90547 1.88649C8.57009 2.05481 8.0283 2.35993 7.70149 2.56466C7.37468 2.76938 6.80534 3.16619 6.43631 3.44654C6.06727 3.72683 5.39775 4.32274 4.94847 4.77079C4.49919 5.21884 3.94071 5.82678 3.70737 6.12184C3.47407 6.41685 3.08186 6.96041 2.8358 7.32974C2.58974 7.69902 2.25095 8.25404 2.08289 8.56304C1.91484 8.87204 1.68172 9.32711 1.5649 9.57431C1.44803 9.8215 1.24252 10.309 1.10812 10.6578C0.973722 11.0065 0.777166 11.5909 0.671216 11.9566C0.565322 12.3222 0.415972 12.9218 0.339366 13.2889C0.262759 13.6561 0.155913 14.2851 0.10193 14.6868C0.0333316 15.1977 0.00275613 15.8139 0.000124181 16.7374C-0.00211578 17.5375 0.0261076 18.2901 0.0718028 18.6476C0.113242 18.9721 0.20648 19.5416 0.278999 19.9133C0.351518 20.2849 0.499971 20.8996 0.608889 21.2794C0.717863 21.6591 0.918787 22.2567 1.05537 22.6072C1.19201 22.9577 1.44742 23.5398 1.62297 23.9006C1.79853 24.2615 2.10344 24.8235 2.3005 25.1495C2.49757 25.4756 2.80254 25.9473 2.9782 26.1979C3.15387 26.4485 3.54055 26.9442 3.83745 27.2996C4.13436 27.6549 4.61354 28.1736 4.90233 28.4523C5.19106 28.731 5.64151 29.1388 5.90331 29.3585C6.1651 29.5782 6.57838 29.9009 6.82169 30.0756C7.06501 30.2503 7.4808 30.5269 7.74567 30.6903C8.01055 30.8538 8.44997 31.1066 8.72224 31.2523C8.99445 31.3978 9.45398 31.6185 9.74344 31.7426C10.0328 31.8666 10.5247 32.0562 10.8364 32.1637C11.1481 32.2713 11.6383 32.4207 11.9257 32.4956C12.213 32.5705 12.6703 32.6707 12.9417 32.7184C13.2131 32.766 13.5404 32.8051 13.6691 32.8052C13.8534 32.8053 13.9269 32.7749 14.0155 32.6619C14.0773 32.583 14.1921 32.3239 14.2706 32.0861C14.349 31.8482 14.5402 31.0103 14.6954 30.2241C14.8505 29.4378 15.1025 28.1105 15.2552 27.2746C15.408 26.4386 15.6585 24.9961 15.812 24.0691C15.9655 23.1421 16.2185 21.4988 16.3743 20.4173C16.5301 19.3358 16.6872 18.0659 16.7235 17.5952C16.7748 16.93 16.7743 16.5857 16.7213 16.0493C16.6838 15.6697 16.6021 15.1447 16.5397 14.8826C16.4774 14.6204 16.2915 13.9888 16.1265 13.4789C15.9616 12.9691 15.7739 12.3073 15.7095 12.0082C15.6451 11.7091 15.5533 11.2035 15.5056 10.8846C15.4578 10.5656 15.3825 9.6515 15.3381 8.85316C15.2938 8.05488 15.2185 7.09417 15.1708 6.71827C15.1231 6.34241 15.0197 5.68093 14.941 5.24833C14.8624 4.81574 14.7006 4.05729 14.5816 3.56289C14.4625 3.06849 14.2794 2.36061 14.1747 1.98981C14.0699 1.61901 13.9014 1.15158 13.8001 0.951125C13.6989 0.750614 13.5754 0.555495 13.5256 0.517517C13.4759 0.479482 13.3848 0.449256 13.3232 0.450268C13.2616 0.451335 12.934 0.510101 12.5952 0.580946ZM21.7363 1.22568C21.6612 1.31529 21.5342 1.59974 21.4542 1.85773C21.3741 2.11577 21.1843 2.83253 21.0323 3.45053C20.8802 4.06852 20.6235 5.11771 20.4619 5.78206C20.3002 6.4464 20.0365 7.39446 19.8759 7.88886C19.7153 8.38326 19.4543 9.09452 19.296 9.46936C19.1377 9.84426 18.9581 10.3625 18.897 10.6211C18.8359 10.8797 18.5824 12.2162 18.3336 13.5913C18.0848 14.9663 17.7313 16.95 17.5482 17.9995C17.365 19.049 17.2151 19.9919 17.2151 20.0948C17.2151 20.2186 17.2616 20.3287 17.3526 20.4199C17.4282 20.4957 17.5478 20.5607 17.6186 20.5642C17.6892 20.5678 17.7966 20.5653 17.8571 20.5587C17.9175 20.552 18.071 20.4749 18.1981 20.3872C18.3252 20.2995 18.5494 20.106 18.6964 19.9573C18.8433 19.8086 19.0604 19.5447 19.1788 19.3707C19.2972 19.1968 19.5683 18.7385 19.7813 18.3523C20.0288 17.9037 20.4341 17.308 20.904 16.7022C21.3086 16.1809 21.9607 15.2934 22.3533 14.73C22.7458 14.1667 23.7726 12.6046 24.635 11.2586C25.4973 9.91269 26.4254 8.50276 26.6973 8.12544C26.9692 7.74813 27.3293 7.23171 27.4976 6.97777C27.6658 6.72388 27.9005 6.31938 28.019 6.07886C28.1375 5.83841 28.2661 5.55059 28.3048 5.43941C28.3436 5.32817 28.3585 5.17013 28.338 5.08816C28.3175 5.00619 28.1311 4.75866 27.9238 4.53809C27.7165 4.31757 27.3075 3.9356 27.0149 3.68924C26.7223 3.44294 26.2309 3.0713 25.9229 2.86337C25.6149 2.6555 25.1304 2.35701 24.8461 2.2001C24.5619 2.04324 24.1083 1.81295 23.8381 1.68845C23.568 1.5639 23.1117 1.37221 22.8242 1.26243C22.5367 1.15265 22.205 1.06281 22.0872 1.06281C21.9196 1.06281 21.8432 1.09826 21.7363 1.22568ZM29.5913 7.41093C29.5051 7.5034 29.2946 7.85656 29.1234 8.19567C28.9523 8.53478 28.6598 9.03968 28.4735 9.31767C28.2872 9.5956 27.9502 10.0454 27.7247 10.3173C27.4992 10.5891 27.0519 11.0503 26.7308 11.3422C26.4097 11.634 25.8062 12.2152 25.3897 12.6337C24.9732 13.0522 24.4415 13.6348 24.208 13.9284C23.9746 14.2219 23.5964 14.7275 23.3675 15.052C23.1387 15.3764 22.7358 15.9832 22.4722 16.4004C22.2087 16.8175 21.7708 17.5254 21.4991 17.9734C21.2275 18.4215 20.6124 19.3822 20.1323 20.1083C19.6522 20.8345 18.9966 21.7952 18.6754 22.2432C18.3542 22.6913 17.9095 23.336 17.687 23.6759C17.4646 24.0157 17.1693 24.5214 17.0309 24.7995C16.8924 25.0776 16.6855 25.5578 16.5711 25.8665C16.4567 26.1753 16.3031 26.6935 16.2298 27.0182C16.1564 27.3429 16.0675 27.885 16.032 28.2229C15.993 28.5945 15.9807 29.2161 16.0007 29.796C16.019 30.3233 16.0722 30.9959 16.1188 31.2906C16.1655 31.5854 16.2431 32.0146 16.2913 32.2445C16.3395 32.4743 16.4162 32.7194 16.4617 32.7892C16.5073 32.8589 16.6135 32.9353 16.6978 32.9589C16.7821 32.9826 17.3425 33.0011 17.9431 33C18.8201 32.9983 19.1685 32.9735 19.7129 32.8741C20.0857 32.806 20.6149 32.6862 20.8888 32.6078C21.1629 32.5295 21.639 32.3742 21.947 32.2627C22.255 32.1513 22.7842 31.9356 23.123 31.7836C23.4618 31.6314 23.991 31.365 24.299 31.1914C24.607 31.0179 25.1081 30.7144 25.4126 30.517C25.7171 30.3196 26.1707 30.0031 26.4206 29.8135C26.6705 29.624 27.1269 29.2497 27.4349 28.9819C27.7429 28.714 28.2537 28.2251 28.57 27.8952C28.8863 27.5655 29.3399 27.0498 29.578 26.7494C29.8161 26.449 30.1908 25.9253 30.4107 25.5856C30.6306 25.246 30.938 24.7278 31.0939 24.4343C31.2498 24.1408 31.4887 23.6478 31.6249 23.3388C31.7609 23.0298 31.9642 22.5202 32.0764 22.2064C32.1886 21.8925 32.3789 21.2479 32.4992 20.7737C32.6196 20.2996 32.7737 19.5578 32.8418 19.1252C32.9344 18.536 32.9724 17.9962 32.9931 16.9743C33.0101 16.1311 32.9952 15.3371 32.954 14.8956C32.9174 14.5027 32.8269 13.8525 32.7529 13.4508C32.6789 13.0491 32.5317 12.4044 32.4258 12.0182C32.3199 11.632 32.1285 11.0378 32.0003 10.6979C31.8721 10.358 31.6037 9.75128 31.4038 9.34958C31.204 8.94788 30.852 8.33517 30.6216 7.98802C30.3912 7.64088 30.1549 7.3312 30.0965 7.2998C30.038 7.26845 29.9356 7.24277 29.869 7.24277C29.8023 7.24277 29.6773 7.31845 29.5913 7.41093Z" fill="#7EFEFD"/>
</svg>
