<svg width="55" height="98" viewBox="0 0 55 98" fill="none" xmlns="http://www.w3.org/2000/svg">
<g filter="url(#filter0_d_213_8)">
<rect x="7" y="7" width="41" height="84" rx="20.5" fill="#32F6F4"/>
</g>
<mask id="path-2-inside-1_213_8" fill="white">
<path fill-rule="evenodd" clip-rule="evenodd" d="M27.5 49C27.721 49 27.9329 48.9097 28.0892 48.749C28.2454 48.5882 28.3332 48.3702 28.3332 48.1429V27.9276L33.5758 33.3221C33.7323 33.4831 33.9445 33.5735 34.1657 33.5735C34.387 33.5735 34.5992 33.4831 34.7556 33.3221C34.9121 33.1612 35 32.9429 35 32.7153C35 32.4877 34.9121 32.2694 34.7556 32.1085L28.0899 25.2518C28.0125 25.172 27.9206 25.1087 27.8193 25.0654C27.7181 25.0222 27.6096 25 27.5 25C27.3904 25 27.2819 25.0222 27.1807 25.0654C27.0794 25.1087 26.9875 25.172 26.9101 25.2518L20.2444 32.1085C20.1669 32.1882 20.1054 32.2828 20.0635 32.3869C20.0216 32.491 20 32.6026 20 32.7153C20 32.9429 20.0879 33.1612 20.2444 33.3221C20.4008 33.4831 20.613 33.5735 20.8343 33.5735C21.0555 33.5735 21.2677 33.4831 21.4242 33.3221L26.6668 27.9276V48.1429C26.6668 48.3702 26.7546 48.5882 26.9108 48.749C27.0671 48.9097 27.279 49 27.5 49Z"/>
</mask>
<path fill-rule="evenodd" clip-rule="evenodd" d="M27.5 49C27.721 49 27.9329 48.9097 28.0892 48.749C28.2454 48.5882 28.3332 48.3702 28.3332 48.1429V27.9276L33.5758 33.3221C33.7323 33.4831 33.9445 33.5735 34.1657 33.5735C34.387 33.5735 34.5992 33.4831 34.7556 33.3221C34.9121 33.1612 35 32.9429 35 32.7153C35 32.4877 34.9121 32.2694 34.7556 32.1085L28.0899 25.2518C28.0125 25.172 27.9206 25.1087 27.8193 25.0654C27.7181 25.0222 27.6096 25 27.5 25C27.3904 25 27.2819 25.0222 27.1807 25.0654C27.0794 25.1087 26.9875 25.172 26.9101 25.2518L20.2444 32.1085C20.1669 32.1882 20.1054 32.2828 20.0635 32.3869C20.0216 32.491 20 32.6026 20 32.7153C20 32.9429 20.0879 33.1612 20.2444 33.3221C20.4008 33.4831 20.613 33.5735 20.8343 33.5735C21.0555 33.5735 21.2677 33.4831 21.4242 33.3221L26.6668 27.9276V48.1429C26.6668 48.3702 26.7546 48.5882 26.9108 48.749C27.0671 48.9097 27.279 49 27.5 49Z" fill="#010412"/>
<path d="M28.3332 27.9276L35.5045 20.9583L18.3332 3.28937V27.9276H28.3332ZM33.5758 33.3221L26.4045 40.2915L26.4056 40.2927L33.5758 33.3221ZM35 32.7153H45H35ZM34.7556 32.1085L41.9259 25.138V25.138L34.7556 32.1085ZM28.0899 25.2518L20.9109 32.2133L20.9197 32.2223L28.0899 25.2518ZM27.5 25V15V25ZM26.9101 25.2518L34.0803 32.2223L34.0891 32.2132L26.9101 25.2518ZM20.2444 32.1085L13.0741 25.138L20.2444 32.1085ZM20 32.7153H30H20ZM21.4242 33.3221L28.5944 40.2927L28.5955 40.2915L21.4242 33.3221ZM26.6668 27.9276H36.6668V3.28936L19.4955 20.9583L26.6668 27.9276ZM27.5 59C30.4657 59 33.2509 57.7855 35.2594 55.7195L20.919 41.7785C22.6149 40.0339 24.9762 39 27.5 39V59ZM35.2594 55.7195C37.2585 53.6631 38.3332 50.9326 38.3332 48.1429H18.3332C18.3332 45.8078 19.2323 43.5134 20.919 41.7785L35.2594 55.7195ZM38.3332 48.1429V27.9276H18.3332V48.1429H38.3332ZM21.1619 34.897L26.4045 40.2915L40.7471 26.3528L35.5045 20.9583L21.1619 34.897ZM26.4056 40.2927C28.4142 42.3588 31.1997 43.5735 34.1657 43.5735V23.5735C36.6893 23.5735 39.0503 24.6073 40.746 26.3516L26.4056 40.2927ZM34.1657 43.5735C37.1318 43.5735 39.9172 42.3588 41.9259 40.2927L27.5854 26.3516C29.2812 24.6073 31.6422 23.5735 34.1657 23.5735V43.5735ZM41.9259 40.2927C43.9252 38.236 45 35.5054 45 32.7153H25C25 30.3805 25.899 28.0864 27.5854 26.3516L41.9259 40.2927ZM45 32.7153C45 29.9253 43.9252 27.1946 41.9259 25.138L27.5854 39.079C25.899 37.3443 25 35.0502 25 32.7153H45ZM41.9259 25.138L35.2601 18.2813L20.9197 32.2223L27.5854 39.079L41.9259 25.138ZM35.2689 18.2904C34.2761 17.2665 33.0812 16.4386 31.7451 15.8683L23.8936 34.2626C22.76 33.7788 21.749 33.0775 20.9109 32.2132L35.2689 18.2904ZM31.7451 15.8683C30.4083 15.2977 28.9649 15 27.5 15V35C26.2543 35 25.0279 34.7468 23.8936 34.2626L31.7451 15.8683ZM27.5 15C26.0351 15 24.5917 15.2976 23.2549 15.8683L31.1064 34.2626C29.9721 34.7468 28.7457 35 27.5 35V15ZM23.2549 15.8683C21.9188 16.4386 20.7239 17.2665 19.7311 18.2904L34.0891 32.2132C33.2511 33.0775 32.2401 33.7788 31.1064 34.2626L23.2549 15.8683ZM19.7399 18.2813L13.0741 25.138L27.4146 39.079L34.0803 32.2223L19.7399 18.2813ZM13.0741 25.138C12.082 26.1585 11.3095 27.3548 10.7873 28.6516L29.3397 36.1222C28.9014 37.2108 28.2517 38.2179 27.4146 39.079L13.0741 25.138ZM10.7873 28.6516C10.2653 29.948 10 31.328 10 32.7153H30C30 33.8773 29.7778 35.0341 29.3397 36.1222L10.7873 28.6516ZM10 32.7153C10 35.5054 11.0748 38.2361 13.0741 40.2927L27.4146 26.3516C29.101 28.0864 30 30.3805 30 32.7153H10ZM13.0741 40.2927C15.0828 42.3588 17.8682 43.5735 20.8343 43.5735V23.5735C23.3578 23.5735 25.7188 24.6073 27.4146 26.3516L13.0741 40.2927ZM20.8343 43.5735C23.8003 43.5735 26.5858 42.3588 28.5944 40.2927L14.254 26.3516C15.9497 24.6073 18.3107 23.5735 20.8343 23.5735V43.5735ZM28.5955 40.2915L33.8381 34.897L19.4955 20.9583L14.2529 26.3528L28.5955 40.2915ZM16.6668 27.9276V48.1429H36.6668V27.9276H16.6668ZM16.6668 48.1429C16.6668 50.9327 17.7415 53.6631 19.7406 55.7195L34.081 41.7785C35.7676 43.5134 36.6668 45.8078 36.6668 48.1429H16.6668ZM19.7406 55.7195C21.7491 57.7855 24.5342 59 27.5 59V39C30.0238 39 32.3851 40.0339 34.081 41.7785L19.7406 55.7195Z" fill="black" mask="url(#path-2-inside-1_213_8)"/>
<defs>
<filter id="filter0_d_213_8" x="0.9" y="0.9" width="53.2" height="96.2" filterUnits="userSpaceOnUse" color-interpolation-filters="sRGB">
<feFlood flood-opacity="0" result="BackgroundImageFix"/>
<feColorMatrix in="SourceAlpha" type="matrix" values="0 0 0 0 0 0 0 0 0 0 0 0 0 0 0 0 0 0 127 0" result="hardAlpha"/>
<feOffset/>
<feGaussianBlur stdDeviation="3.05"/>
<feComposite in2="hardAlpha" operator="out"/>
<feColorMatrix type="matrix" values="0 0 0 0 0.196078 0 0 0 0 0.92549 0 0 0 0 0.905882 0 0 0 1 0"/>
<feBlend mode="normal" in2="BackgroundImageFix" result="effect1_dropShadow_213_8"/>
<feBlend mode="normal" in="SourceGraphic" in2="effect1_dropShadow_213_8" result="shape"/>
</filter>
</defs>
</svg>
