<svg width="47" height="90" viewBox="0 0 47 90" fill="none" xmlns="http://www.w3.org/2000/svg">
<g filter="url(#filter0_d_203_92)">
<rect x="4" y="4" width="39" height="82" rx="19.5" stroke="#7EFEFD" stroke-width="2" shape-rendering="crispEdges"/>
</g>
<path fill-rule="evenodd" clip-rule="evenodd" d="M23.5 45C23.721 45 23.9329 44.9097 24.0892 44.749C24.2454 44.5882 24.3332 44.3702 24.3332 44.1429V23.9276L29.5758 29.3221C29.7323 29.4831 29.9445 29.5735 30.1657 29.5735C30.387 29.5735 30.5992 29.4831 30.7556 29.3221C30.9121 29.1612 31 28.9429 31 28.7153C31 28.4877 30.9121 28.2694 30.7556 28.1085L24.0899 21.2518C24.0125 21.172 23.9206 21.1087 23.8193 21.0654C23.7181 21.0222 23.6096 21 23.5 21C23.3904 21 23.2819 21.0222 23.1807 21.0654C23.0794 21.1087 22.9875 21.172 22.9101 21.2518L16.2444 28.1085C16.1669 28.1882 16.1054 28.2828 16.0635 28.3869C16.0216 28.491 16 28.6026 16 28.7153C16 28.9429 16.0879 29.1612 16.2444 29.3221C16.4008 29.4831 16.613 29.5735 16.8343 29.5735C17.0555 29.5735 17.2677 29.4831 17.4242 29.3221L22.6668 23.9276V44.1429C22.6668 44.3702 22.7546 44.5882 22.9108 44.749C23.0671 44.9097 23.279 45 23.5 45Z" fill="#32F6F4"/>
<defs>
<filter id="filter0_d_203_92" x="0.6" y="0.6" width="45.8" height="88.8" filterUnits="userSpaceOnUse" color-interpolation-filters="sRGB">
<feFlood flood-opacity="0" result="BackgroundImageFix"/>
<feColorMatrix in="SourceAlpha" type="matrix" values="0 0 0 0 0 0 0 0 0 0 0 0 0 0 0 0 0 0 127 0" result="hardAlpha"/>
<feOffset/>
<feGaussianBlur stdDeviation="1.2"/>
<feComposite in2="hardAlpha" operator="out"/>
<feColorMatrix type="matrix" values="0 0 0 0 0.196078 0 0 0 0 0.92549 0 0 0 0 0.905882 0 0 0 1 0"/>
<feBlend mode="normal" in2="BackgroundImageFix" result="effect1_dropShadow_203_92"/>
<feBlend mode="normal" in="SourceGraphic" in2="effect1_dropShadow_203_92" result="shape"/>
</filter>
</defs>
</svg>
