<svg width="72" height="72" fill="none" xmlns="http://www.w3.org/2000/svg"><mask id="a" maskUnits="userSpaceOnUse" x="0" y="0" width="72" height="72" fill="#000"><path fill="#fff" d="M0 0h72v72H0z"/><path d="m36.073 48.412 12.056-12.06-2.526-2.523-7.7 7.7V23.52h-3.736v18.01l-7.7-7.7-2.523 2.523 12.13 12.06zM36.007 69c-4.561 0-8.851-.865-12.87-2.596-4.016-1.733-7.51-4.085-10.483-7.055-2.972-2.967-5.325-6.458-7.058-10.472C3.866 44.864 3 40.575 3 36.011c0-4.561.865-8.851 2.596-12.87 1.733-4.016 4.085-7.51 7.055-10.483 2.967-2.972 6.458-5.325 10.472-7.058C27.136 3.867 31.425 3 35.989 3c4.561 0 8.851.865 12.87 2.596 4.016 1.733 7.51 4.085 10.483 7.055 2.972 2.967 5.325 6.458 7.058 10.472 1.733 4.013 2.6 8.302 2.6 12.866 0 4.561-.865 8.851-2.596 12.87-1.733 4.016-4.085 7.51-7.055 10.483-2.967 2.972-6.458 5.325-10.472 7.058-4.013 1.733-8.302 2.6-12.866 2.6"/></mask><path d="m36.073 48.412-2.115 2.127 2.122 2.11 2.115-2.116-2.122-2.121zm12.056-12.06 2.122 2.121 2.122-2.123-2.124-2.12-2.12 2.122zm-2.526-2.523 2.12-2.123-2.121-2.118-2.12 2.12 2.121 2.121zm-7.7 7.7h-3v7.243l5.121-5.121-2.121-2.122zm0-18.01h3v-3h-3v3zm-3.736 0v-3h-3v3h3zm0 18.01-2.122 2.122 5.122 5.121v-7.243h-3zm-7.7-7.7 2.121-2.121-2.121-2.121-2.122 2.121 2.122 2.121zm-2.523 2.523-2.121-2.121-2.128 2.127 2.134 2.121 2.115-2.127zM36.007 72a3 3 0 1 0 0-6v6zm-12.87-5.596-1.188 2.755h.002l1.186-2.755zm-10.483-7.055 2.12-2.122-2.12 2.122zM5.596 48.877l-2.755 1.188v.002l2.755-1.19zm0-25.736-2.754-1.189-.001.002 2.755 1.187zm7.055-10.483 2.122 2.12-2.122-2.12zm36.208-7.062 1.189-2.754-.002-.001-1.187 2.755zm10.483 7.055-2.12 2.122 2.12-2.122zm7.062 36.208 2.755 1.189v-.002l-2.755-1.187zm-7.055 10.483-2.122-2.12 2.122 2.12zM36.011 66a3 3 0 1 0 0 6v-6zm2.184-15.467 12.056-12.06-4.243-4.242-12.056 12.06 4.243 4.242zm12.054-16.304-2.526-2.523-4.24 4.246 2.527 2.523 4.24-4.246zm-6.767-2.521-7.7 7.7 4.242 4.243 7.7-7.7-4.242-4.243zm-2.579 9.821V23.52h-6v18.01h6zm-3-21.01h-3.736v6h3.736v-6zm-6.736 3v18.01h6V23.52h-6zm5.121 15.889-7.7-7.7-4.243 4.243 7.7 7.7 4.243-4.243zm-11.943-7.7-2.522 2.523 4.242 4.242 2.523-2.522-4.243-4.243zm-2.516 6.771 12.13 12.06 4.23-4.255-12.13-12.06-4.23 4.255zM36.007 66c-4.17 0-8.055-.789-11.683-2.351l-2.373 5.51C26.36 71.06 31.056 72 36.007 72v-6zm-11.681-2.35c-3.683-1.59-6.858-3.731-9.551-6.423l-4.241 4.245c3.251 3.248 7.065 5.81 11.415 7.687l2.377-5.51zm-9.552-6.424c-2.693-2.688-4.835-5.858-6.424-9.538l-5.508 2.379c1.877 4.347 4.44 8.159 7.693 11.405l4.239-4.246zM8.35 47.69C6.789 44.067 6 40.184 6 36.01H0c0 4.954.942 9.649 2.841 14.054l5.51-2.375zM6 36.01c0-4.171.789-8.055 2.351-11.683l-5.51-2.374C.94 26.364 0 31.06 0 36.011h6zM8.35 24.33c1.59-3.683 3.732-6.858 6.423-9.552l-4.245-4.24c-3.248 3.25-5.81 7.065-7.686 11.414L8.35 24.33zm6.424-9.552c2.688-2.693 5.858-4.835 9.538-6.424l-2.379-5.509c-4.348 1.878-8.159 4.441-11.405 7.693l4.246 4.24zm9.538-6.424C27.934 6.79 31.816 6 35.989 6V0c-4.954 0-9.65.943-14.056 2.845l2.379 5.509zM35.989 6c4.171 0 8.055.789 11.683 2.351l2.374-5.51C45.636.94 40.94 0 35.989 0v6zM47.67 8.35c3.683 1.59 6.858 3.732 9.552 6.423l4.24-4.245c-3.25-3.248-7.065-5.81-11.414-7.686L47.67 8.35zm9.552 6.424c2.693 2.688 4.835 5.858 6.424 9.538l5.509-2.379c-1.878-4.348-4.441-8.159-7.693-11.405l-4.24 4.246zm6.424 9.538C65.21 27.934 66 31.816 66 35.989h6c0-4.954-.943-9.65-2.845-14.056l-5.509 2.379zM66 35.989c0 4.171-.789 8.055-2.351 11.683l5.51 2.374C71.06 45.636 72 40.94 72 35.989h-6zM63.65 47.67c-1.59 3.683-3.731 6.858-6.423 9.552l4.245 4.24c3.248-3.25 5.81-7.065 7.687-11.414l-5.51-2.378zm-6.424 9.552c-2.688 2.693-5.858 4.835-9.538 6.424l2.379 5.509c4.347-1.878 8.159-4.441 11.405-7.693l-4.246-4.24zm-9.538 6.424C44.066 65.21 40.184 66 36.011 66v6c4.954 0 9.65-.943 14.056-2.845l-2.379-5.509z" fill="#32F6F4" mask="url(#a)"/></svg>