<svg width="72" height="72" viewBox="0 0 72 72" fill="none" xmlns="http://www.w3.org/2000/svg">
<mask id="path-1-outside-1_165_138" maskUnits="userSpaceOnUse" x="0" y="0" width="72" height="72" fill="black">
<rect fill="white" width="72" height="72"/>
<path d="M36.0733 48.4117L48.1293 36.352L45.603 33.8293L37.903 41.5293V23.5187H34.1667V41.5293L26.4667 33.8293L23.944 36.352L36.0733 48.4117ZM36.0073 69C31.446 69 27.156 68.1347 23.1373 66.404C19.1211 64.6709 15.6268 62.3193 12.6543 59.3493C9.68189 56.3818 7.32911 52.8911 5.596 48.8773C3.86533 44.8636 3 40.5748 3 36.011C3 31.4497 3.86533 27.1597 5.596 23.141C7.32911 19.1248 9.68067 15.6304 12.6507 12.658C15.6182 9.68556 19.1089 7.33278 23.1227 5.59967C27.1364 3.86656 31.4252 3 35.989 3C40.5503 3 44.8403 3.86533 48.859 5.596C52.8752 7.32911 56.3696 9.68067 59.342 12.6507C62.3144 15.6182 64.6672 19.1089 66.4003 23.1227C68.1334 27.1364 69 31.4252 69 35.989C69 40.5503 68.1347 44.8403 66.404 48.859C64.6709 52.8752 62.3193 56.3696 59.3493 59.342C56.3818 62.3144 52.8911 64.6672 48.8773 66.4003C44.8636 68.1334 40.5748 69 36.011 69"/>
</mask>
<path d="M36.0733 48.4117L33.9581 50.5391L36.0798 52.6485L38.195 50.5327L36.0733 48.4117ZM48.1293 36.352L50.251 38.473L52.3732 36.3501L50.2491 34.2291L48.1293 36.352ZM45.603 33.8293L47.7228 31.7065L45.6015 29.5882L43.4817 31.708L45.603 33.8293ZM37.903 41.5293H34.903V48.772L40.0243 43.6507L37.903 41.5293ZM37.903 23.5187H40.903V20.5187H37.903V23.5187ZM34.1667 23.5187V20.5187H31.1667V23.5187H34.1667ZM34.1667 41.5293L32.0453 43.6507L37.1667 48.772V41.5293H34.1667ZM26.4667 33.8293L28.588 31.708L26.4667 29.5867L24.3453 31.708L26.4667 33.8293ZM23.944 36.352L21.8227 34.2307L19.6952 36.3581L21.8288 38.4794L23.944 36.352ZM23.1373 66.404L21.9487 69.1585L21.9507 69.1593L23.1373 66.404ZM12.6543 59.3493L14.7748 57.2271L14.7739 57.2263L12.6543 59.3493ZM5.596 48.8773L2.84117 50.0652L2.84179 50.0666L5.596 48.8773ZM5.596 23.141L2.84152 21.9524L2.84065 21.9544L5.596 23.141ZM12.6507 12.658L14.7729 14.7784L14.7737 14.7776L12.6507 12.658ZM48.859 5.596L50.0476 2.84152L50.0456 2.84065L48.859 5.596ZM59.342 12.6507L57.2215 14.7729L57.2224 14.7737L59.342 12.6507ZM66.404 48.859L69.1585 50.0476L69.1593 50.0456L66.404 48.859ZM59.3493 59.342L57.2271 57.2215L57.2263 57.2224L59.3493 59.342ZM38.195 50.5327L50.251 38.473L46.0077 34.231L33.9517 46.2907L38.195 50.5327ZM50.2491 34.2291L47.7228 31.7065L43.4832 35.9522L46.0096 38.4749L50.2491 34.2291ZM43.4817 31.708L35.7817 39.408L40.0243 43.6507L47.7243 35.9507L43.4817 31.708ZM40.903 41.5293V23.5187H34.903V41.5293H40.903ZM37.903 20.5187H34.1667V26.5187H37.903V20.5187ZM31.1667 23.5187V41.5293H37.1667V23.5187H31.1667ZM36.288 39.408L28.588 31.708L24.3453 35.9507L32.0453 43.6507L36.288 39.408ZM24.3453 31.708L21.8227 34.2307L26.0653 38.4733L28.588 35.9507L24.3453 31.708ZM21.8288 38.4794L33.9581 50.5391L38.1885 46.2842L26.0592 34.2246L21.8288 38.4794ZM36.0073 66C31.8364 66 27.9519 65.2111 24.3239 63.6486L21.9507 69.1593C26.3601 71.0583 31.0556 72 36.0073 72V66ZM24.326 63.6495C20.643 62.0602 17.4684 59.9185 14.7748 57.2271L10.5339 61.4715C13.7852 64.7202 17.5992 67.2816 21.9487 69.1585L24.326 63.6495ZM14.7739 57.2263C12.0812 54.5379 9.93905 51.3677 8.35021 47.6881L2.84179 50.0666C4.71917 54.4145 7.28262 58.2256 10.5348 61.4724L14.7739 57.2263ZM8.35082 47.6895C6.78903 44.0674 6 40.1847 6 36.011H0C0 40.9649 0.941639 45.6597 2.84117 50.0652L8.35082 47.6895ZM6 36.011C6 31.84 6.78894 27.9556 8.35135 24.3276L2.84065 21.9544C0.941726 26.3638 0 31.0593 0 36.011H6ZM8.35048 24.3296C9.93979 20.6466 12.0815 17.472 14.7729 14.7784L10.5285 10.5376C7.27985 13.7889 4.71843 17.6029 2.84152 21.9524L8.35048 24.3296ZM14.7737 14.7776C17.4621 12.0848 20.6323 9.94272 24.3119 8.35388L21.9334 2.84545C17.5855 4.72284 13.7744 7.28628 10.5276 10.5384L14.7737 14.7776ZM24.3119 8.35388C27.9337 6.79002 31.8159 6 35.989 6V0C31.0345 0 26.3392 0.943092 21.9334 2.84545L24.3119 8.35388ZM35.989 6C40.16 6 44.0444 6.78894 47.6724 8.35135L50.0456 2.84065C45.6362 0.941726 40.9407 0 35.989 0V6ZM47.6704 8.35048C51.3534 9.93979 54.528 12.0815 57.2215 14.7729L61.4624 10.5285C58.2111 7.27985 54.3971 4.71843 50.0476 2.84152L47.6704 8.35048ZM57.2224 14.7737C59.9152 17.4621 62.0573 20.6323 63.6461 24.3119L69.1545 21.9334C67.2772 17.5855 64.7137 13.7744 61.4616 10.5276L57.2224 14.7737ZM63.6461 24.3119C65.21 27.9337 66 31.8159 66 35.989H72C72 31.0345 71.0569 26.3392 69.1545 21.9334L63.6461 24.3119ZM66 35.989C66 40.16 65.2111 44.0444 63.6486 47.6724L69.1593 50.0456C71.0583 45.6362 72 40.9407 72 35.989H66ZM63.6495 47.6704C62.0602 51.3534 59.9185 54.528 57.2271 57.2215L61.4715 61.4624C64.7202 58.2111 67.2816 54.3971 69.1585 50.0476L63.6495 47.6704ZM57.2263 57.2224C54.5379 59.9152 51.3677 62.0573 47.6881 63.6461L50.0666 69.1545C54.4145 67.2772 58.2256 64.7137 61.4724 61.4616L57.2263 57.2224ZM47.6881 63.6461C44.0663 65.21 40.1841 66 36.011 66V72C40.9655 72 45.6608 71.0569 50.0666 69.1545L47.6881 63.6461Z" fill="#32F6F4" mask="url(#path-1-outside-1_165_138)"/>
</svg>
